<svg width="174" height="185" viewBox="0 0 174 185" fill="none" xmlns="http://www.w3.org/2000/svg">
<path d="M133.063 34.5647C144.08 41.8781 149.6 55.3252 149.531 71.2556C149.462 87.1812 143.802 105.523 132.54 122.488C121.278 139.452 106.572 151.789 91.9227 158.035C77.2685 164.283 62.7334 164.417 51.7165 157.104C40.6997 149.79 35.1802 136.343 35.2491 120.413C35.318 104.487 40.9782 86.1456 52.24 69.1811C63.5017 52.2165 78.2075 39.8795 92.8571 33.6333C107.511 27.3851 122.046 27.2512 133.063 34.5647Z" fill="#BAFF62" stroke="black"/>
<path d="M122.19 27.3463C133.207 34.6597 138.726 48.1068 138.657 64.0373C138.588 79.9628 132.928 98.3046 121.666 115.269C110.405 132.234 95.6988 144.571 81.0492 150.817C66.395 157.065 51.8599 157.199 40.843 149.886C29.8262 142.572 24.3067 129.125 24.3756 113.195C24.4445 97.269 30.1047 78.9272 41.3665 61.9627C52.6283 44.9981 67.334 32.6611 81.9836 26.4149C96.6378 20.1667 111.173 20.0328 122.19 27.3463Z" fill="#BAFF62" stroke="black"/>
<path d="M98.9182 91.3182L99.3347 91.5948L99.6113 91.1782L100.876 89.2729C102.217 87.2523 103.165 85.1192 103.715 82.8749C104.31 80.5677 104.52 78.2605 104.343 75.9556C104.167 73.6452 103.554 71.4127 102.511 69.2607C101.619 67.1885 100.35 65.2885 98.7084 63.561L102.983 57.1218L103.26 56.7052L102.843 56.4287L96.6005 52.2846L96.1839 52.008L95.9074 52.4246L91.7938 58.6212C89.9348 57.7305 87.985 57.1419 85.9462 56.8561C83.7996 56.478 81.6659 56.5273 79.5489 57.0043C77.47 57.4127 75.446 58.2695 73.4781 59.5648L73.478 59.5647L73.4723 59.5686C71.5896 60.8457 69.8878 62.6429 68.3609 64.9429L67.9393 65.578C65.079 69.8866 63.9507 74.079 64.639 78.133L64.6388 78.1331L64.6415 78.1466C65.413 82.0369 67.6968 85.7518 71.4309 89.2956L60.583 105.637C58.8613 103.459 57.9975 101.06 57.9721 98.4269C57.9446 95.5903 59.0053 92.5102 61.2185 89.1763L62.0617 87.9061L62.3383 87.4895L61.9217 87.213L55.3323 82.8387L54.9158 82.5621L54.6392 82.9787L52.9528 85.5191C51.5678 87.6054 50.4787 89.8855 49.6847 92.3577L49.6847 92.3577L49.6833 92.3622C48.9346 94.7701 48.553 97.2648 48.5376 99.8445L48.5375 99.8549L48.5379 99.8654C48.6295 102.423 49.1608 104.957 50.1283 107.466L50.132 107.476L50.1361 107.485C51.1717 109.872 52.7485 112.131 54.8548 114.265L50.6542 120.593L50.3777 121.01L50.7943 121.286L57.0368 125.43L57.4534 125.707L57.7299 125.29L61.763 119.215C66.4013 121.69 71.0005 122.419 75.5399 121.36L75.5407 121.36C80.3249 120.235 84.3122 117.235 87.5069 112.423L87.9285 111.788C90.8876 107.33 91.9395 102.929 91.0031 98.611C90.1962 94.3888 87.663 90.3562 83.475 86.5083L92.8987 72.3127C94.1699 74.0683 94.859 75.9917 94.9769 78.0912L94.9768 78.0912L94.9777 78.1024C95.162 80.4439 94.5245 82.7323 93.032 84.9806L92.1887 86.2508L91.9122 86.6674L92.3288 86.9439L98.9182 91.3182ZM74.19 111.551L74.19 111.551L74.1801 111.553C72.0933 112.047 69.839 111.785 67.3998 110.724L77.8362 95.0026C79.9436 97.2058 81.1697 99.2048 81.587 100.999C82.0201 102.861 81.5065 104.977 79.911 107.38C78.378 109.689 76.471 111.06 74.19 111.551ZM74.194 75.463C74.1218 73.7134 74.6919 71.8909 75.9568 69.9854C77.2534 68.0323 78.8557 66.9269 80.7648 66.5987C82.5464 66.2925 84.3384 66.4643 86.149 67.1245L77.0752 80.793C75.2825 78.8049 74.3561 77.0297 74.194 75.463Z" stroke="black"/>
</svg>
