<svg width="209" height="200" viewBox="0 0 209 200" fill="none" xmlns="http://www.w3.org/2000/svg">
<path d="M154.344 154.237C145.445 164.019 131.317 167.437 115.581 164.955C99.8499 162.474 82.5775 154.1 67.5152 140.398C52.4529 126.696 42.4865 110.291 38.5321 94.8638C34.5764 79.432 36.6464 65.0444 45.5447 55.2629C54.443 45.4814 68.571 42.0631 84.3072 44.545C100.038 47.0261 117.311 55.4001 132.373 69.1023C147.435 82.8045 157.402 99.2097 161.356 114.637C165.312 130.068 163.242 144.456 154.344 154.237Z" fill="#BAFF62" stroke="black"/>
<path d="M163.126 144.583C154.228 154.365 140.1 157.783 124.364 155.301C108.632 152.82 91.36 144.446 76.2977 130.744C61.2354 117.042 51.269 100.636 47.3146 85.2095C43.3589 69.7778 45.4289 55.3902 54.3272 45.6087C63.2255 35.8272 77.3535 32.4089 93.0897 34.8907C108.821 37.3719 126.093 45.7458 141.156 59.448C156.218 73.1502 166.184 89.5555 170.139 104.982C174.094 120.414 172.024 134.802 163.126 144.583Z" fill="#BAFF62" stroke="black"/>
<path d="M103.419 111.887L103.082 112.257L103.452 112.594L105.144 114.133C106.938 115.765 108.903 117.025 111.038 117.908C113.228 118.846 115.477 119.403 117.782 119.578C120.093 119.753 122.392 119.486 124.677 118.781C126.861 118.214 128.931 117.247 130.887 115.886L136.605 121.087L136.974 121.423L137.311 121.053L142.353 115.511L142.689 115.141L142.32 114.804L136.818 109.799C137.98 108.097 138.857 106.259 139.449 104.287C140.148 102.222 140.422 100.106 140.271 97.941C140.183 95.8242 139.642 93.6937 138.66 91.5522L138.66 91.5522L138.657 91.5459C137.68 89.4914 136.162 87.537 134.12 85.6792L133.556 85.1663C129.73 81.6862 125.757 79.9356 121.646 80.0018L121.646 80.0016L121.632 80.0022C117.67 80.1753 113.652 81.8698 109.583 85.0239L95.0743 71.8253C97.4873 70.4534 99.9897 69.9631 102.596 70.3369C105.404 70.7396 108.288 72.2547 111.248 74.9475L112.376 75.9735L112.746 76.3099L113.082 75.9401L118.405 70.0895L118.741 69.7197L118.371 69.3832L116.116 67.3313C114.263 65.6463 112.175 64.2243 109.851 63.0648L109.851 63.0648L109.847 63.0628C107.58 61.9579 105.172 61.2027 102.625 60.7966L102.614 60.7949L102.604 60.7937C100.062 60.4967 97.4763 60.6379 94.85 61.2141L94.8399 61.2163L94.8299 61.2189C92.3139 61.8809 89.8416 63.0971 87.4131 64.8558L81.7949 59.745L81.4251 59.4085L81.0886 59.7784L76.0465 65.321L75.71 65.6908L76.0799 66.0273L81.474 70.9343C78.3245 75.144 76.9072 79.5797 77.2664 84.2271L77.2665 84.2279C77.6529 89.1272 80.0143 93.5231 84.2872 97.4101L84.8511 97.9231C88.8088 101.523 92.9997 103.23 97.4096 102.959C101.705 102.801 106.075 100.908 110.513 97.3513L123.117 108.817C121.189 109.808 119.183 110.197 117.09 109.996L117.09 109.996L117.079 109.995C114.737 109.822 112.571 108.845 110.575 107.029L109.447 106.003L109.078 105.667L108.741 106.037L103.419 111.887ZM87.1667 84.3791L87.1668 84.3791L87.166 84.3689C86.9941 82.2314 87.5941 80.0428 89.013 77.7926L102.971 90.4905C100.474 92.2398 98.3126 93.1489 96.4755 93.2895C94.5693 93.4353 92.5564 92.6072 90.4224 90.6659C88.372 88.8007 87.3063 86.7081 87.1667 84.3791ZM122.837 89.8511C124.578 90.0447 126.293 90.8844 127.984 92.4234C129.719 94.0009 130.568 95.7523 130.604 97.689C130.636 99.4965 130.195 101.242 129.268 102.931L117.132 91.8913C119.369 90.4205 121.264 89.7738 122.837 89.8511Z" stroke="black"/>
</svg>
