<svg width="564" height="280" viewBox="0 0 564 280" fill="none" xmlns="http://www.w3.org/2000/svg">
<rect x="1" y="1" width="562" height="278" fill="#F2F2F2"/>
<rect width="226" height="73" transform="translate(22 22)" fill="white"/>
<circle cx="72.5" cy="62.5" r="25.5" fill="#BAFF62" stroke="black" stroke-width="2"/>
<path d="M94 58.5C94 72.5833 82.5833 84 68.5 84C54.4167 84 43 72.5833 43 58.5C43 44.4167 54.4167 33 68.5 33C82.5833 33 94 44.4167 94 58.5Z" fill="#BAFF62" stroke="black" stroke-width="2"/>
<path d="M71.4608 68.9556H74.1301V45H71.4608V54.6507H71.0501C70.4569 53.624 69.6356 52.8483 68.5861 52.3236C67.5366 51.776 66.3959 51.5022 65.1639 51.5022C64.1144 51.5022 63.122 51.6961 62.1866 52.084C61.2512 52.4719 60.4298 53.0308 59.7226 53.7609C58.9925 54.491 58.4221 55.3921 58.0115 56.4644C57.578 57.5367 57.3612 58.7573 57.3612 60.1262V60.8107C57.3612 62.2024 57.5666 63.4344 57.9772 64.5067C58.3879 65.579 58.9583 66.4801 59.6884 67.2102C60.3956 67.9403 61.2284 68.4993 62.1866 68.8871C63.1448 69.2521 64.1601 69.4347 65.2323 69.4347C65.7799 69.4347 66.3389 69.3662 66.9092 69.2293C67.4796 69.1153 68.0272 68.9327 68.5519 68.6818C69.0538 68.408 69.5215 68.0886 69.955 67.7236C70.3885 67.3357 70.7535 66.8794 71.0501 66.3547H71.4608V68.9556ZM65.7799 66.9022C64.9586 66.9022 64.2057 66.7653 63.5212 66.4916C62.8368 66.195 62.2436 65.7843 61.7417 65.2596C61.2169 64.7348 60.8177 64.096 60.5439 63.3431C60.2473 62.5902 60.099 61.7461 60.099 60.8107V60.1262C60.099 59.2136 60.2473 58.3923 60.5439 57.6622C60.8177 56.9093 61.2169 56.2705 61.7417 55.7458C62.2436 55.1982 62.8482 54.7761 63.5555 54.4796C64.2399 54.183 64.9814 54.0347 65.7799 54.0347C66.5784 54.0347 67.3199 54.1944 68.0043 54.5138C68.6888 54.8104 69.2934 55.2324 69.8181 55.78C70.3201 56.3276 70.7193 56.9892 71.0159 57.7649C71.3125 58.5178 71.4608 59.3505 71.4608 60.2631V60.6738C71.4608 61.6092 71.3125 62.4647 71.0159 63.2404C70.7193 63.9933 70.3201 64.6436 69.8181 65.1911C69.2934 65.7387 68.6888 66.1607 68.0043 66.4573C67.3199 66.7539 66.5784 66.9022 65.7799 66.9022Z" fill="black"/>
<rect x="22" y="22" width="93" height="73" stroke="black" stroke-width="2"/>
<rect x="115" y="22" width="133" height="73" fill="#BAFF62"/>
<path d="M150.04 63.876V51.684H149.608L148.024 57.444H145V57.156L147.016 50.1H153.208V63.876H157.384V66.9H145.288V63.876H150.04Z" fill="black"/>
<path d="M168.023 64.956C168.023 65.276 167.959 65.58 167.831 65.868C167.719 66.14 167.559 66.38 167.351 66.588C167.143 66.78 166.895 66.932 166.607 67.044C166.335 67.172 166.047 67.236 165.743 67.236C165.423 67.236 165.127 67.172 164.855 67.044C164.583 66.932 164.343 66.78 164.135 66.588C163.927 66.38 163.759 66.14 163.631 65.868C163.519 65.58 163.463 65.276 163.463 64.956C163.463 64.636 163.519 64.34 163.631 64.068C163.759 63.78 163.927 63.54 164.135 63.348C164.343 63.14 164.583 62.98 164.855 62.868C165.127 62.74 165.423 62.676 165.743 62.676C166.047 62.676 166.335 62.74 166.607 62.868C166.895 62.98 167.143 63.14 167.351 63.348C167.559 63.54 167.719 63.78 167.831 64.068C167.959 64.34 168.023 64.636 168.023 64.956Z" fill="black"/>
<path d="M178.423 58.5C178.423 57.956 178.623 57.484 179.023 57.084C179.423 56.684 179.895 56.484 180.439 56.484C180.983 56.484 181.455 56.684 181.855 57.084C182.255 57.484 182.455 57.956 182.455 58.5C182.455 59.044 182.255 59.516 181.855 59.916C181.455 60.316 180.983 60.516 180.439 60.516C179.895 60.516 179.423 60.316 179.023 59.916C178.623 59.516 178.423 59.044 178.423 58.5ZM174.247 56.628C174.247 54.452 174.791 52.764 175.879 51.564C176.983 50.364 178.503 49.764 180.439 49.764C182.375 49.764 183.887 50.364 184.975 51.564C186.079 52.764 186.631 54.452 186.631 56.628V60.372C186.631 62.612 186.079 64.316 184.975 65.484C183.887 66.652 182.375 67.236 180.439 67.236C178.503 67.236 176.983 66.652 175.879 65.484C174.791 64.316 174.247 62.612 174.247 60.372V56.628ZM180.439 64.356C181.015 64.356 181.495 64.268 181.879 64.092C182.263 63.9 182.575 63.636 182.815 63.3C183.055 62.964 183.223 62.564 183.319 62.1C183.415 61.636 183.463 61.124 183.463 60.564V56.436C183.463 55.908 183.407 55.412 183.295 54.948C183.183 54.484 183.007 54.084 182.767 53.748C182.527 53.412 182.215 53.148 181.831 52.956C181.447 52.748 180.983 52.644 180.439 52.644C179.895 52.644 179.431 52.748 179.047 52.956C178.663 53.148 178.351 53.412 178.111 53.748C177.871 54.084 177.695 54.484 177.583 54.948C177.471 55.412 177.415 55.908 177.415 56.436V60.564C177.415 61.124 177.463 61.636 177.559 62.1C177.655 62.564 177.823 62.964 178.063 63.3C178.303 63.636 178.615 63.9 178.999 64.092C179.383 64.268 179.863 64.356 180.439 64.356Z" fill="black"/>
<path d="M193.118 58.5C193.118 57.956 193.318 57.484 193.718 57.084C194.118 56.684 194.59 56.484 195.134 56.484C195.678 56.484 196.15 56.684 196.55 57.084C196.95 57.484 197.15 57.956 197.15 58.5C197.15 59.044 196.95 59.516 196.55 59.916C196.15 60.316 195.678 60.516 195.134 60.516C194.59 60.516 194.118 60.316 193.718 59.916C193.318 59.516 193.118 59.044 193.118 58.5ZM188.942 56.628C188.942 54.452 189.486 52.764 190.574 51.564C191.678 50.364 193.198 49.764 195.134 49.764C197.07 49.764 198.582 50.364 199.67 51.564C200.774 52.764 201.326 54.452 201.326 56.628V60.372C201.326 62.612 200.774 64.316 199.67 65.484C198.582 66.652 197.07 67.236 195.134 67.236C193.198 67.236 191.678 66.652 190.574 65.484C189.486 64.316 188.942 62.612 188.942 60.372V56.628ZM195.134 64.356C195.71 64.356 196.19 64.268 196.574 64.092C196.958 63.9 197.27 63.636 197.51 63.3C197.75 62.964 197.918 62.564 198.014 62.1C198.11 61.636 198.158 61.124 198.158 60.564V56.436C198.158 55.908 198.102 55.412 197.99 54.948C197.878 54.484 197.702 54.084 197.462 53.748C197.222 53.412 196.91 53.148 196.526 52.956C196.142 52.748 195.678 52.644 195.134 52.644C194.59 52.644 194.126 52.748 193.742 52.956C193.358 53.148 193.046 53.412 192.806 53.748C192.566 54.084 192.39 54.484 192.278 54.948C192.166 55.412 192.11 55.908 192.11 56.436V60.564C192.11 61.124 192.158 61.636 192.254 62.1C192.35 62.564 192.518 62.964 192.758 63.3C192.998 63.636 193.31 63.9 193.694 64.092C194.078 64.268 194.558 64.356 195.134 64.356Z" fill="black"/>
<rect x="115" y="22" width="133" height="73" stroke="black" stroke-width="2"/>
<path d="M296 43.6111L293.858 45.7889L283.147 34.9L285.289 32.7222L296 43.6111Z" fill="black"/>
<path d="M293.858 41.4333L296 43.6111L285.289 54.5L283.147 52.3222L293.858 41.4333Z" fill="black"/>
<path d="M268 45.0416L268 41.9618L293.75 41.9618V45.0416L268 45.0416Z" fill="black"/>
<path d="M268 73.3889L270.142 71.2111L280.853 82.1L278.711 84.2778L268 73.3889Z" fill="black"/>
<path d="M270.142 75.5667L268 73.3889L278.711 62.5L280.853 64.6778L270.142 75.5667Z" fill="black"/>
<path d="M296 71.9584L296 75.0383L270.25 75.0383L270.25 71.9584L296 71.9584Z" fill="black"/>
<rect width="226" height="73" transform="translate(316 22)" fill="white"/>
<circle cx="366.5" cy="62.5" r="25.5" fill="#7761FF" stroke="black" stroke-width="2"/>
<circle cx="362.5" cy="58.5" r="25.5" fill="#7761FF" stroke="black" stroke-width="2"/>
<path d="M364.099 48.1542C365.015 48.3111 365.838 48.5857 366.57 48.9779C367.329 49.3439 367.969 49.8015 368.492 50.3506C369.015 50.8996 369.42 51.5141 369.708 52.1939C369.996 52.8476 370.139 53.5405 370.139 54.2726V54.9785H367.159V54.5079C367.159 53.645 366.871 52.9129 366.296 52.3116C365.747 51.7102 365.015 51.2918 364.099 51.0565V56.665C366.27 56.9265 367.917 57.5278 369.041 58.4691C370.192 59.3842 370.767 60.6524 370.767 62.2734V62.5088C370.767 64.2606 370.152 65.6725 368.924 66.7445C367.721 67.7904 366.113 68.3787 364.099 68.5094V70.9018H361.276V68.431C360.125 68.248 359.132 67.9342 358.295 67.4897C357.484 67.0191 356.805 66.47 356.255 65.8425C355.733 65.1888 355.34 64.4959 355.079 63.7638C354.817 63.0056 354.687 62.2473 354.687 61.489V60.5478H357.667V61.0184C357.667 62.2734 357.981 63.2801 358.609 64.0383C359.236 64.7966 360.125 65.3065 361.276 65.5679V59.1751C359.315 58.9136 357.811 58.3514 356.765 57.4886C355.746 56.5996 355.236 55.3707 355.236 53.8019V53.5666C355.236 52.7299 355.393 51.9978 355.706 51.3703C356.046 50.7166 356.491 50.1675 357.04 49.723C357.589 49.2524 358.23 48.8864 358.962 48.6249C359.694 48.3373 360.465 48.1542 361.276 48.0758V45.6442H364.099V48.1542ZM367.708 62.5088C367.708 61.5936 367.42 60.9138 366.845 60.4693C366.27 60.0248 365.355 59.698 364.099 59.4888V65.6856C365.224 65.5549 366.1 65.2149 366.727 64.6659C367.381 64.1168 367.708 63.3978 367.708 62.5088ZM358.295 53.5666C358.295 54.2987 358.504 54.9001 358.922 55.3707C359.367 55.8152 360.151 56.1421 361.276 56.3512V50.8996C360.439 51.0304 359.733 51.318 359.158 51.7625C358.583 52.207 358.295 52.8084 358.295 53.5666Z" fill="black"/>
<rect x="316" y="22" width="93" height="73" stroke="black" stroke-width="2"/>
<rect x="409" y="22" width="133" height="73" fill="#7761FF"/>
<path d="M450.952 63.876V66.9H439.144V63.588C439.144 62.708 439.272 61.956 439.528 61.332C439.8 60.708 440.176 60.18 440.656 59.748C441.152 59.316 441.744 58.964 442.432 58.692C443.12 58.404 443.896 58.164 444.76 57.972C445.4 57.828 445.92 57.668 446.32 57.492C446.736 57.3 447.064 57.092 447.304 56.868C447.544 56.628 447.704 56.372 447.784 56.1C447.88 55.812 447.928 55.492 447.928 55.14C447.928 54.468 447.68 53.908 447.184 53.46C446.704 53.012 446.032 52.788 445.168 52.788C444.256 52.788 443.528 53.068 442.984 53.628C442.44 54.172 442.168 54.932 442.168 55.908V56.964H439V55.62C439 54.836 439.136 54.092 439.408 53.388C439.696 52.668 440.096 52.044 440.608 51.516C441.136 50.972 441.776 50.548 442.528 50.244C443.28 49.924 444.128 49.764 445.072 49.764C446.08 49.764 446.96 49.916 447.712 50.22C448.464 50.508 449.088 50.892 449.584 51.372C450.096 51.852 450.472 52.412 450.712 53.052C450.968 53.676 451.096 54.324 451.096 54.996V55.284C451.096 56.692 450.696 57.86 449.896 58.788C449.112 59.716 447.824 60.388 446.032 60.804C445.28 60.98 444.656 61.164 444.16 61.356C443.68 61.532 443.304 61.732 443.032 61.956C442.76 62.18 442.568 62.428 442.456 62.7C442.36 62.956 442.312 63.252 442.312 63.588V63.876H450.952Z" fill="black"/>
<path d="M461.903 64.956C461.903 65.276 461.839 65.58 461.711 65.868C461.599 66.14 461.439 66.38 461.231 66.588C461.023 66.78 460.775 66.932 460.487 67.044C460.215 67.172 459.927 67.236 459.623 67.236C459.303 67.236 459.007 67.172 458.735 67.044C458.463 66.932 458.223 66.78 458.015 66.588C457.807 66.38 457.639 66.14 457.511 65.868C457.399 65.58 457.343 65.276 457.343 64.956C457.343 64.636 457.399 64.34 457.511 64.068C457.639 63.78 457.807 63.54 458.015 63.348C458.223 63.14 458.463 62.98 458.735 62.868C459.007 62.74 459.303 62.676 459.623 62.676C459.927 62.676 460.215 62.74 460.487 62.868C460.775 62.98 461.023 63.14 461.231 63.348C461.439 63.54 461.599 63.78 461.711 64.068C461.839 64.34 461.903 64.636 461.903 64.956Z" fill="black"/>
<path d="M472.303 58.5C472.303 57.956 472.503 57.484 472.903 57.084C473.303 56.684 473.775 56.484 474.319 56.484C474.863 56.484 475.335 56.684 475.735 57.084C476.135 57.484 476.335 57.956 476.335 58.5C476.335 59.044 476.135 59.516 475.735 59.916C475.335 60.316 474.863 60.516 474.319 60.516C473.775 60.516 473.303 60.316 472.903 59.916C472.503 59.516 472.303 59.044 472.303 58.5ZM468.127 56.628C468.127 54.452 468.671 52.764 469.759 51.564C470.863 50.364 472.383 49.764 474.319 49.764C476.255 49.764 477.767 50.364 478.855 51.564C479.959 52.764 480.511 54.452 480.511 56.628V60.372C480.511 62.612 479.959 64.316 478.855 65.484C477.767 66.652 476.255 67.236 474.319 67.236C472.383 67.236 470.863 66.652 469.759 65.484C468.671 64.316 468.127 62.612 468.127 60.372V56.628ZM474.319 64.356C474.895 64.356 475.375 64.268 475.759 64.092C476.143 63.9 476.455 63.636 476.695 63.3C476.935 62.964 477.103 62.564 477.199 62.1C477.295 61.636 477.343 61.124 477.343 60.564V56.436C477.343 55.908 477.287 55.412 477.175 54.948C477.063 54.484 476.887 54.084 476.647 53.748C476.407 53.412 476.095 53.148 475.711 52.956C475.327 52.748 474.863 52.644 474.319 52.644C473.775 52.644 473.311 52.748 472.927 52.956C472.543 53.148 472.231 53.412 471.991 53.748C471.751 54.084 471.575 54.484 471.463 54.948C471.351 55.412 471.295 55.908 471.295 56.436V60.564C471.295 61.124 471.343 61.636 471.439 62.1C471.535 62.564 471.703 62.964 471.943 63.3C472.183 63.636 472.495 63.9 472.879 64.092C473.263 64.268 473.743 64.356 474.319 64.356Z" fill="black"/>
<path d="M486.998 58.5C486.998 57.956 487.198 57.484 487.598 57.084C487.998 56.684 488.47 56.484 489.014 56.484C489.558 56.484 490.03 56.684 490.43 57.084C490.83 57.484 491.03 57.956 491.03 58.5C491.03 59.044 490.83 59.516 490.43 59.916C490.03 60.316 489.558 60.516 489.014 60.516C488.47 60.516 487.998 60.316 487.598 59.916C487.198 59.516 486.998 59.044 486.998 58.5ZM482.822 56.628C482.822 54.452 483.366 52.764 484.454 51.564C485.558 50.364 487.078 49.764 489.014 49.764C490.95 49.764 492.462 50.364 493.55 51.564C494.654 52.764 495.206 54.452 495.206 56.628V60.372C495.206 62.612 494.654 64.316 493.55 65.484C492.462 66.652 490.95 67.236 489.014 67.236C487.078 67.236 485.558 66.652 484.454 65.484C483.366 64.316 482.822 62.612 482.822 60.372V56.628ZM489.014 64.356C489.59 64.356 490.07 64.268 490.454 64.092C490.838 63.9 491.15 63.636 491.39 63.3C491.63 62.964 491.798 62.564 491.894 62.1C491.99 61.636 492.038 61.124 492.038 60.564V56.436C492.038 55.908 491.982 55.412 491.87 54.948C491.758 54.484 491.582 54.084 491.342 53.748C491.102 53.412 490.79 53.148 490.406 52.956C490.022 52.748 489.558 52.644 489.014 52.644C488.47 52.644 488.006 52.748 487.622 52.956C487.238 53.148 486.926 53.412 486.686 53.748C486.446 54.084 486.27 54.484 486.158 54.948C486.046 55.412 485.99 55.908 485.99 56.436V60.564C485.99 61.124 486.038 61.636 486.134 62.1C486.23 62.564 486.398 62.964 486.638 63.3C486.878 63.636 487.19 63.9 487.574 64.092C487.958 64.268 488.438 64.356 489.014 64.356Z" fill="black"/>
<rect x="409" y="22" width="133" height="73" stroke="black" stroke-width="2"/>
<rect x="166" y="124.667" width="376" height="4" fill="#CBCBCB"/>
<rect x="279" y="138.667" width="263" height="4" fill="#CBCBCB"/>
<rect x="2" y="172.333" width="560" height="2" fill="black"/>
<rect width="78.6546" height="44" transform="translate(242.673 204)" fill="black"/>
<path d="M269.761 222.512C269.793 222.352 269.809 222.208 269.809 222.08C269.809 221.664 269.659 221.328 269.361 221.072C269.062 220.805 268.603 220.672 267.985 220.672C267.739 220.672 267.499 220.699 267.265 220.752C267.03 220.805 266.822 220.891 266.641 221.008C266.459 221.115 266.315 221.253 266.209 221.424C266.102 221.595 266.049 221.792 266.049 222.016C266.049 222.389 266.203 222.683 266.513 222.896C266.833 223.109 267.345 223.275 268.049 223.392C269.041 223.552 269.819 223.872 270.385 224.352C270.961 224.821 271.249 225.509 271.249 226.416C271.249 227.024 271.137 227.568 270.913 228.048C270.699 228.528 270.39 228.939 269.985 229.28C269.59 229.621 269.11 229.883 268.545 230.064C267.979 230.245 267.345 230.336 266.641 230.336C265.969 230.336 265.382 230.251 264.881 230.08C264.379 229.899 263.963 229.659 263.633 229.36C263.313 229.051 263.073 228.693 262.913 228.288C262.753 227.883 262.673 227.445 262.673 226.976C262.673 226.837 262.678 226.699 262.689 226.56C262.699 226.421 262.721 226.277 262.753 226.128L262.833 225.76H264.945L264.881 226.032C264.838 226.235 264.817 226.464 264.817 226.72C264.817 227.232 264.977 227.632 265.297 227.92C265.627 228.208 266.118 228.352 266.769 228.352C267.473 228.352 268.022 228.208 268.417 227.92C268.811 227.621 269.009 227.216 269.009 226.704C269.009 226.299 268.838 225.984 268.497 225.76C268.166 225.536 267.606 225.365 266.817 225.248C266.443 225.195 266.075 225.099 265.713 224.96C265.361 224.821 265.046 224.629 264.769 224.384C264.491 224.139 264.267 223.84 264.097 223.488C263.926 223.125 263.841 222.699 263.841 222.208C263.841 221.707 263.931 221.243 264.113 220.816C264.305 220.379 264.582 220.005 264.945 219.696C265.318 219.376 265.771 219.131 266.305 218.96C266.849 218.779 267.473 218.688 268.177 218.688C268.774 218.688 269.307 218.763 269.777 218.912C270.246 219.061 270.641 219.269 270.961 219.536C271.291 219.803 271.542 220.123 271.713 220.496C271.883 220.859 271.969 221.253 271.969 221.68C271.969 221.797 271.963 221.915 271.953 222.032C271.942 222.149 271.921 222.283 271.889 222.432L271.825 222.72H269.713L269.761 222.512Z" fill="white"/>
<path d="M274.566 228.096L274.39 228.96H274.678L274.854 228.192L276.47 222.176H279.67L278.838 228.192L278.678 228.96H278.966L279.158 228.096L280.774 221.984L282.422 222.384L280.294 230.112H277.078L278.022 223.136H277.734L275.894 230.112H272.758L273.67 222.176H275.35L274.566 228.096Z" fill="white"/>
<path d="M289.706 228.208L289.866 228.32L290.634 227.776L291.642 229.28L290.698 229.92C290.282 230.197 289.845 230.336 289.386 230.336C288.981 230.336 288.618 230.224 288.298 230C287.978 229.776 287.776 229.461 287.69 229.056H287.402C287.306 229.237 287.194 229.408 287.066 229.568C286.938 229.717 286.778 229.851 286.586 229.968C286.405 230.075 286.186 230.16 285.93 230.224C285.685 230.299 285.392 230.336 285.05 230.336C284.634 230.336 284.25 230.256 283.898 230.096C283.546 229.925 283.237 229.696 282.97 229.408C282.714 229.109 282.512 228.763 282.362 228.368C282.213 227.973 282.138 227.541 282.138 227.072C282.138 226.357 282.234 225.691 282.426 225.072C282.618 224.453 282.896 223.915 283.258 223.456C283.621 222.987 284.064 222.619 284.586 222.352C285.12 222.085 285.717 221.952 286.378 221.952C286.965 221.952 287.429 222.069 287.77 222.304C288.112 222.539 288.341 222.848 288.458 223.232H288.746L288.97 222.176H290.986L289.706 228.208ZM285.834 228.416C286.218 228.416 286.56 228.341 286.858 228.192C287.157 228.032 287.402 227.824 287.594 227.568C287.797 227.312 287.952 227.013 288.058 226.672C288.165 226.32 288.218 225.952 288.218 225.568C288.218 225.067 288.074 224.661 287.786 224.352C287.498 224.032 287.114 223.872 286.634 223.872C286.25 223.872 285.909 223.952 285.61 224.112C285.312 224.261 285.061 224.464 284.858 224.72C284.656 224.976 284.501 225.28 284.394 225.632C284.288 225.973 284.234 226.336 284.234 226.72C284.234 227.168 284.362 227.563 284.618 227.904C284.885 228.245 285.29 228.416 285.834 228.416Z" fill="white"/>
<path d="M293.775 233.312H291.759L293.727 224.08L293.567 223.968L292.831 224.512L291.791 223.072L292.655 222.432C292.879 222.272 293.109 222.155 293.343 222.08C293.589 221.995 293.823 221.952 294.047 221.952C294.474 221.952 294.847 222.075 295.167 222.32C295.487 222.565 295.685 222.901 295.759 223.328H296.047C296.57 222.411 297.423 221.952 298.607 221.952C298.97 221.952 299.317 222.021 299.647 222.16C299.978 222.299 300.266 222.501 300.511 222.768C300.767 223.035 300.965 223.365 301.103 223.76C301.253 224.144 301.327 224.587 301.327 225.088C301.327 225.717 301.247 226.347 301.087 226.976C300.938 227.605 300.698 228.171 300.367 228.672C300.037 229.163 299.61 229.563 299.087 229.872C298.575 230.181 297.957 230.336 297.231 230.336C296.89 230.336 296.591 230.293 296.335 230.208C296.079 230.133 295.861 230.032 295.679 229.904C295.498 229.776 295.349 229.632 295.231 229.472C295.114 229.301 295.034 229.131 294.991 228.96H294.703L293.775 233.312ZM296.847 228.416C297.242 228.416 297.589 228.347 297.887 228.208C298.186 228.059 298.431 227.856 298.623 227.6C298.826 227.344 298.975 227.04 299.071 226.688C299.167 226.336 299.215 225.952 299.215 225.536C299.215 225.088 299.071 224.699 298.783 224.368C298.495 224.037 298.095 223.872 297.583 223.872C297.221 223.872 296.895 223.947 296.607 224.096C296.319 224.235 296.074 224.432 295.871 224.688C295.669 224.944 295.509 225.248 295.391 225.6C295.285 225.952 295.231 226.336 295.231 226.752C295.231 227.253 295.375 227.659 295.663 227.968C295.951 228.267 296.346 228.416 296.847 228.416Z" fill="white"/>
<rect x="1" y="1" width="562" height="278" stroke="black" stroke-width="2"/>
</svg>
