<svg width="561" height="315" viewBox="0 0 561 315" fill="none" xmlns="http://www.w3.org/2000/svg">
<rect width="560" height="315" fill="#F2F2F2"/>
<path d="M0 0H280V315H0V0Z" fill="white"/>
<rect x="76" y="57" width="140" height="146" fill="black"/>
<rect x="71" y="51.764" width="138" height="144" fill="#BAFF62"/>
<path d="M188.5 123.764C188.5 150.55 166.786 172.264 140 172.264C113.214 172.264 91.5 150.55 91.5 123.764C91.5 96.9782 113.214 75.264 140 75.264C166.786 75.264 188.5 96.9782 188.5 123.764Z" fill="black"/>
<rect x="71" y="51.764" width="138" height="144" stroke="black" stroke-width="2"/>
<path d="M97.7824 217.412L92.5984 225.404V225.836L94.7584 233.9H91.3984L89.6704 226.988H89.2384L85.0624 233.9H81.5344V233.612L86.6944 225.548V225.116L84.4864 217.1H87.7984L89.6224 223.964H90.0544L94.2304 217.1H97.7824V217.412Z" fill="black"/>
<path d="M112.766 217.388L105.806 227.996H105.086L103.838 233.9H100.67L101.918 227.996H101.198L98.5577 217.1H101.918L103.742 225.116H104.174L109.31 217.1H112.766V217.388Z" fill="black"/>
<path d="M114.549 217.1H125.925V222.284L114.429 230.444V230.876H123.645V233.9H111.813V228.716L123.333 220.556V220.124H114.549V217.1Z" fill="black"/>
<path d="M147.828 231.74L148.404 229.004H146.58L146.004 231.74H143.412L143.988 229.004H141.804V226.412H144.54L144.948 224.588H142.764V221.996H145.5L146.076 219.26H148.668L148.092 221.996H149.916L150.492 219.26H153.084L152.508 221.996H154.668V224.588H151.956L151.548 226.412H153.708V229.004H150.996L150.42 231.74H147.828ZM149.364 224.588H147.54L147.132 226.412H148.956L149.364 224.588Z" fill="black"/>
<path d="M160.699 230.876L163.291 218.684H162.859L160.051 224.444H156.883V224.156L160.603 217.1H166.795L163.867 230.876H168.019V233.9H155.947V230.876H160.699Z" fill="black"/>
<path d="M182.258 230.876V233.9H170.114L170.81 230.588C171.002 229.644 171.29 228.852 171.674 228.212C172.074 227.556 172.554 227.02 173.114 226.604C173.69 226.172 174.354 225.836 175.106 225.596C175.858 225.34 176.698 225.132 177.626 224.972C178.106 224.892 178.57 224.78 179.018 224.636C179.482 224.476 179.89 224.276 180.242 224.036C180.61 223.796 180.898 223.492 181.106 223.124C181.33 222.756 181.442 222.316 181.442 221.804C181.442 221.196 181.242 220.708 180.842 220.34C180.442 219.972 179.858 219.788 179.09 219.788C178.146 219.788 177.354 220.068 176.714 220.628C176.09 221.172 175.674 221.932 175.466 222.908L175.25 223.964H172.082L172.37 222.62C172.77 220.764 173.57 219.324 174.77 218.3C175.986 217.276 177.57 216.764 179.522 216.764C180.322 216.764 181.042 216.892 181.682 217.148C182.322 217.388 182.858 217.724 183.29 218.156C183.738 218.572 184.082 219.06 184.322 219.62C184.562 220.18 184.682 220.764 184.682 221.372C184.682 223.116 184.138 224.508 183.05 225.548C181.978 226.572 180.466 227.292 178.514 227.708C177.65 227.884 176.946 228.068 176.402 228.26C175.858 228.452 175.426 228.66 175.106 228.884C174.786 229.108 174.546 229.364 174.386 229.652C174.242 229.924 174.122 230.236 174.026 230.588L173.954 230.876H182.258Z" fill="black"/>
<path d="M190.858 226.7V221.708L195.874 220.556V220.124H188.194V217.1H198.466V222.38L193.21 223.676V224.108H193.762C194.29 224.108 194.794 224.196 195.274 224.372C195.77 224.548 196.21 224.812 196.594 225.164C196.978 225.516 197.282 225.956 197.506 226.484C197.746 227.012 197.866 227.628 197.866 228.332C197.866 229.212 197.706 230.012 197.386 230.732C197.066 231.452 196.61 232.076 196.018 232.604C195.442 233.116 194.73 233.516 193.882 233.804C193.05 234.092 192.122 234.236 191.098 234.236C190.266 234.236 189.506 234.116 188.818 233.876C188.146 233.636 187.57 233.3 187.09 232.868C186.61 232.436 186.234 231.924 185.962 231.332C185.706 230.74 185.578 230.092 185.578 229.388C185.578 228.972 185.626 228.548 185.722 228.116L185.842 227.516H189.01L188.914 228.02C188.882 228.212 188.858 228.372 188.842 228.5C188.826 228.612 188.818 228.732 188.818 228.86C188.818 229.58 189.034 230.156 189.466 230.588C189.914 231.004 190.57 231.212 191.434 231.212C192.346 231.212 193.098 230.996 193.69 230.564C194.282 230.116 194.578 229.484 194.578 228.668C194.578 228.06 194.37 227.58 193.954 227.228C193.554 226.876 193.002 226.7 192.298 226.7H190.858Z" fill="black"/>
<path d="M33 248.236H247V252.236H33V248.236Z" fill="#CBCBCB"/>
<path d="M68.5 260.236H211.5V264.236H68.5V260.236Z" fill="#CBCBCB"/>
<path d="M279 0V315H281V0H279Z" fill="black"/>
<path d="M330 20H510V24H330V20Z" fill="#CBCBCB"/>
<path d="M300 34H540V38H300V34Z" fill="#CBCBCB"/>
<path d="M280 77.75H560V79.75H280V77.75Z" fill="black"/>
<path d="M300 119.5H355V123.5H300V119.5Z" fill="#CBCBCB"/>
<path d="M483 119.5H540V123.5H483V119.5Z" fill="#CBCBCB"/>
<path d="M300 133.5H373V137.5H300V133.5Z" fill="#CBCBCB"/>
<path d="M483 133.5H540V137.5H483V133.5Z" fill="#CBCBCB"/>
<path d="M300 147.5H388V151.5H300V147.5Z" fill="#CBCBCB"/>
<path d="M483 147.5H540V151.5H483V147.5Z" fill="#CBCBCB"/>
<path d="M279 191.25H561V193.25H279V191.25Z" fill="black"/>
<rect width="78.6066" height="44" transform="translate(380.697 233)" fill="black"/>
<path d="M403.065 249.592H406.489L405.401 257.624L405.017 259.448H405.401L405.817 257.528L408.057 249.592H411.577L409.193 260.792H407.369L408.937 253.432L409.657 250.936H409.273L406.409 260.792H403.545L404.809 250.936H404.425L404.105 253.336L402.505 260.792H400.697L403.065 249.592Z" fill="white"/>
<path d="M417.118 260.6C416.904 260.749 416.686 260.856 416.462 260.92C416.238 260.984 416.019 261.016 415.806 261.016C415.571 261.016 415.347 260.973 415.134 260.888C414.92 260.813 414.734 260.707 414.574 260.568C414.414 260.419 414.286 260.243 414.19 260.04C414.104 259.827 414.062 259.592 414.062 259.336C414.062 259.133 414.083 258.947 414.126 258.776L415.086 254.76L414.926 254.648L412.782 256.12L411.774 254.616L414.094 253.048C414.307 252.899 414.526 252.792 414.75 252.728C414.974 252.664 415.192 252.632 415.406 252.632C415.64 252.632 415.864 252.675 416.078 252.76C416.291 252.835 416.478 252.947 416.638 253.096C416.798 253.235 416.92 253.411 417.006 253.624C417.102 253.827 417.15 254.056 417.15 254.312C417.15 254.515 417.128 254.701 417.086 254.872L416.126 258.888L416.286 259L418.43 257.528L419.438 259.032L417.118 260.6ZM418.51 250.504C418.51 250.717 418.467 250.92 418.382 251.112C418.307 251.293 418.2 251.453 418.062 251.592C417.923 251.72 417.758 251.827 417.566 251.912C417.384 251.987 417.192 252.024 416.99 252.024C416.776 252.024 416.579 251.987 416.398 251.912C416.216 251.827 416.056 251.72 415.918 251.592C415.779 251.453 415.667 251.293 415.582 251.112C415.507 250.92 415.47 250.717 415.47 250.504C415.47 250.291 415.507 250.093 415.582 249.912C415.667 249.72 415.779 249.56 415.918 249.432C416.056 249.293 416.216 249.187 416.398 249.112C416.579 249.027 416.776 248.984 416.99 248.984C417.192 248.984 417.384 249.027 417.566 249.112C417.758 249.187 417.923 249.293 418.062 249.432C418.2 249.56 418.307 249.72 418.382 249.912C418.467 250.093 418.51 250.291 418.51 250.504Z" fill="white"/>
<path d="M426.898 256.184C426.941 255.981 426.962 255.811 426.962 255.672C426.962 255.288 426.85 254.989 426.626 254.776C426.402 254.563 426.098 254.456 425.714 254.456C425.234 254.456 424.824 254.627 424.482 254.968C424.141 255.309 423.912 255.768 423.794 256.344L422.85 260.792H420.834L422.514 252.856H424.45L424.178 254.136H424.466C424.722 253.603 425.058 253.219 425.474 252.984C425.901 252.749 426.37 252.632 426.882 252.632C427.554 252.632 428.088 252.835 428.482 253.24C428.888 253.645 429.09 254.216 429.09 254.952C429.09 255.123 429.08 255.283 429.058 255.432C429.037 255.571 429.01 255.725 428.978 255.896L428.338 258.888L428.498 259L429.186 258.52L430.194 260.024L429.33 260.6C428.925 260.877 428.493 261.016 428.034 261.016C427.8 261.016 427.576 260.973 427.362 260.888C427.149 260.813 426.962 260.707 426.802 260.568C426.642 260.419 426.514 260.243 426.418 260.04C426.322 259.827 426.274 259.587 426.274 259.32C426.274 259.181 426.29 259.021 426.322 258.84L426.898 256.184Z" fill="white"/>
<path d="M434.119 254.776H431.879V252.856H434.535L435.271 249.368H437.287L436.551 252.856H439.303V254.776H436.135L435.239 258.888L435.399 259L437.543 257.528L438.551 259.032L436.231 260.6C435.826 260.877 435.394 261.016 434.935 261.016C434.701 261.016 434.477 260.973 434.263 260.888C434.05 260.813 433.863 260.701 433.703 260.552C433.543 260.403 433.415 260.221 433.319 260.008C433.223 259.795 433.175 259.555 433.175 259.288C433.175 259.203 433.181 259.128 433.191 259.064C433.202 258.989 433.218 258.893 433.239 258.776L434.119 254.776Z" fill="white"/>
</svg>
