<svg width="564" height="280" viewBox="0 0 564 280" fill="none" xmlns="http://www.w3.org/2000/svg">
<rect x="1" y="1" width="562" height="278" fill="white"/>
<path d="M2 2H282V278H2V2Z" fill="white"/>
<rect x="80" y="41" width="140" height="146" fill="black"/>
<rect x="73" y="34.264" width="138" height="144" fill="#BAFF62"/>
<path d="M190.5 106.264C190.5 133.05 168.786 154.764 142 154.764C115.214 154.764 93.5 133.05 93.5 106.264C93.5 79.4782 115.214 57.764 142 57.764C168.786 57.764 190.5 79.4782 190.5 106.264Z" fill="black"/>
<rect x="73" y="34.264" width="138" height="144" stroke="black" stroke-width="2"/>
<path d="M99.7824 199.912L94.5984 207.904V208.336L96.7584 216.4H93.3984L91.6704 209.488H91.2384L87.0624 216.4H83.5344V216.112L88.6944 208.048V207.616L86.4864 199.6H89.7984L91.6224 206.464H92.0544L96.2304 199.6H99.7824V199.912Z" fill="black"/>
<path d="M114.766 199.888L107.806 210.496H107.086L105.838 216.4H102.67L103.918 210.496H103.198L100.558 199.6H103.918L105.742 207.616H106.174L111.31 199.6H114.766V199.888Z" fill="black"/>
<path d="M116.549 199.6H127.925V204.784L116.429 212.944V213.376H125.645V216.4H113.813V211.216L125.333 203.056V202.624H116.549V199.6Z" fill="black"/>
<path d="M149.828 214.24L150.404 211.504H148.58L148.004 214.24H145.412L145.988 211.504H143.804V208.912H146.54L146.948 207.088H144.764V204.496H147.5L148.076 201.76H150.668L150.092 204.496H151.916L152.492 201.76H155.084L154.508 204.496H156.668V207.088H153.956L153.548 208.912H155.708V211.504H152.996L152.42 214.24H149.828ZM151.364 207.088H149.54L149.132 208.912H150.956L151.364 207.088Z" fill="black"/>
<path d="M162.699 213.376L165.291 201.184H164.859L162.051 206.944H158.883V206.656L162.603 199.6H168.795L165.867 213.376H170.019V216.4H157.947V213.376H162.699Z" fill="black"/>
<path d="M184.258 213.376V216.4H172.114L172.81 213.088C173.002 212.144 173.29 211.352 173.674 210.712C174.074 210.056 174.554 209.52 175.114 209.104C175.69 208.672 176.354 208.336 177.106 208.096C177.858 207.84 178.698 207.632 179.626 207.472C180.106 207.392 180.57 207.28 181.018 207.136C181.482 206.976 181.89 206.776 182.242 206.536C182.61 206.296 182.898 205.992 183.106 205.624C183.33 205.256 183.442 204.816 183.442 204.304C183.442 203.696 183.242 203.208 182.842 202.84C182.442 202.472 181.858 202.288 181.09 202.288C180.146 202.288 179.354 202.568 178.714 203.128C178.09 203.672 177.674 204.432 177.466 205.408L177.25 206.464H174.082L174.37 205.12C174.77 203.264 175.57 201.824 176.77 200.8C177.986 199.776 179.57 199.264 181.522 199.264C182.322 199.264 183.042 199.392 183.682 199.648C184.322 199.888 184.858 200.224 185.29 200.656C185.738 201.072 186.082 201.56 186.322 202.12C186.562 202.68 186.682 203.264 186.682 203.872C186.682 205.616 186.138 207.008 185.05 208.048C183.978 209.072 182.466 209.792 180.514 210.208C179.65 210.384 178.946 210.568 178.402 210.76C177.858 210.952 177.426 211.16 177.106 211.384C176.786 211.608 176.546 211.864 176.386 212.152C176.242 212.424 176.122 212.736 176.026 213.088L175.954 213.376H184.258Z" fill="black"/>
<path d="M192.858 209.2V204.208L197.874 203.056V202.624H190.194V199.6H200.466V204.88L195.21 206.176V206.608H195.762C196.29 206.608 196.794 206.696 197.274 206.872C197.77 207.048 198.21 207.312 198.594 207.664C198.978 208.016 199.282 208.456 199.506 208.984C199.746 209.512 199.866 210.128 199.866 210.832C199.866 211.712 199.706 212.512 199.386 213.232C199.066 213.952 198.61 214.576 198.018 215.104C197.442 215.616 196.73 216.016 195.882 216.304C195.05 216.592 194.122 216.736 193.098 216.736C192.266 216.736 191.506 216.616 190.818 216.376C190.146 216.136 189.57 215.8 189.09 215.368C188.61 214.936 188.234 214.424 187.962 213.832C187.706 213.24 187.578 212.592 187.578 211.888C187.578 211.472 187.626 211.048 187.722 210.616L187.842 210.016H191.01L190.914 210.52C190.882 210.712 190.858 210.872 190.842 211C190.826 211.112 190.818 211.232 190.818 211.36C190.818 212.08 191.034 212.656 191.466 213.088C191.914 213.504 192.57 213.712 193.434 213.712C194.346 213.712 195.098 213.496 195.69 213.064C196.282 212.616 196.578 211.984 196.578 211.168C196.578 210.56 196.37 210.08 195.954 209.728C195.554 209.376 195.002 209.2 194.298 209.2H192.858Z" fill="black"/>
<path d="M35 230.736H249V234.736H35V230.736Z" fill="#CBCBCB"/>
<path d="M70.5 242.736H213.5V246.736H70.5V242.736Z" fill="#CBCBCB"/>
<path d="M2 2H282H2ZM282 278H2H282ZM2 278V2V278ZM283 2V278H281V2H283Z" fill="black"/>
<path d="M332 22H512V26H332V22Z" fill="#CBCBCB"/>
<path d="M302 36H542V40H302V36Z" fill="#CBCBCB"/>
<path d="M282 72H562V74H282V72Z" fill="black"/>
<path d="M302 106H357V110H302V106Z" fill="#CBCBCB"/>
<path d="M485 106H542V110H485V106Z" fill="#CBCBCB"/>
<path d="M302 120H375V124H302V120Z" fill="#CBCBCB"/>
<path d="M485 120H542V124H485V120Z" fill="#CBCBCB"/>
<path d="M302 134H390V138H302V134Z" fill="#CBCBCB"/>
<path d="M485 134H542V138H485V134Z" fill="#CBCBCB"/>
<path d="M281 170H563V172H281V170Z" fill="black"/>
<rect width="78.6066" height="44" transform="translate(382.697 204)" fill="black"/>
<path d="M405.065 220.592H408.489L407.401 228.624L407.017 230.448H407.401L407.817 228.528L410.057 220.592H413.577L411.193 231.792H409.369L410.937 224.432L411.657 221.936H411.273L408.409 231.792H405.545L406.809 221.936H406.425L406.105 224.336L404.505 231.792H402.697L405.065 220.592Z" fill="white"/>
<path d="M419.118 231.6C418.904 231.749 418.686 231.856 418.462 231.92C418.238 231.984 418.019 232.016 417.806 232.016C417.571 232.016 417.347 231.973 417.134 231.888C416.92 231.813 416.734 231.707 416.574 231.568C416.414 231.419 416.286 231.243 416.19 231.04C416.104 230.827 416.062 230.592 416.062 230.336C416.062 230.133 416.083 229.947 416.126 229.776L417.086 225.76L416.926 225.648L414.782 227.12L413.774 225.616L416.094 224.048C416.307 223.899 416.526 223.792 416.75 223.728C416.974 223.664 417.192 223.632 417.406 223.632C417.64 223.632 417.864 223.675 418.078 223.76C418.291 223.835 418.478 223.947 418.638 224.096C418.798 224.235 418.92 224.411 419.006 224.624C419.102 224.827 419.15 225.056 419.15 225.312C419.15 225.515 419.128 225.701 419.086 225.872L418.126 229.888L418.286 230L420.43 228.528L421.438 230.032L419.118 231.6ZM420.51 221.504C420.51 221.717 420.467 221.92 420.382 222.112C420.307 222.293 420.2 222.453 420.062 222.592C419.923 222.72 419.758 222.827 419.566 222.912C419.384 222.987 419.192 223.024 418.99 223.024C418.776 223.024 418.579 222.987 418.398 222.912C418.216 222.827 418.056 222.72 417.918 222.592C417.779 222.453 417.667 222.293 417.582 222.112C417.507 221.92 417.47 221.717 417.47 221.504C417.47 221.291 417.507 221.093 417.582 220.912C417.667 220.72 417.779 220.56 417.918 220.432C418.056 220.293 418.216 220.187 418.398 220.112C418.579 220.027 418.776 219.984 418.99 219.984C419.192 219.984 419.384 220.027 419.566 220.112C419.758 220.187 419.923 220.293 420.062 220.432C420.2 220.56 420.307 220.72 420.382 220.912C420.467 221.093 420.51 221.291 420.51 221.504Z" fill="white"/>
<path d="M428.898 227.184C428.941 226.981 428.962 226.811 428.962 226.672C428.962 226.288 428.85 225.989 428.626 225.776C428.402 225.563 428.098 225.456 427.714 225.456C427.234 225.456 426.824 225.627 426.482 225.968C426.141 226.309 425.912 226.768 425.794 227.344L424.85 231.792H422.834L424.514 223.856H426.45L426.178 225.136H426.466C426.722 224.603 427.058 224.219 427.474 223.984C427.901 223.749 428.37 223.632 428.882 223.632C429.554 223.632 430.088 223.835 430.482 224.24C430.888 224.645 431.09 225.216 431.09 225.952C431.09 226.123 431.08 226.283 431.058 226.432C431.037 226.571 431.01 226.725 430.978 226.896L430.338 229.888L430.498 230L431.186 229.52L432.194 231.024L431.33 231.6C430.925 231.877 430.493 232.016 430.034 232.016C429.8 232.016 429.576 231.973 429.362 231.888C429.149 231.813 428.962 231.707 428.802 231.568C428.642 231.419 428.514 231.243 428.418 231.04C428.322 230.827 428.274 230.587 428.274 230.32C428.274 230.181 428.29 230.021 428.322 229.84L428.898 227.184Z" fill="white"/>
<path d="M436.119 225.776H433.879V223.856H436.535L437.271 220.368H439.287L438.551 223.856H441.303V225.776H438.135L437.239 229.888L437.399 230L439.543 228.528L440.551 230.032L438.231 231.6C437.826 231.877 437.394 232.016 436.935 232.016C436.701 232.016 436.477 231.973 436.263 231.888C436.05 231.813 435.863 231.701 435.703 231.552C435.543 231.403 435.415 231.221 435.319 231.008C435.223 230.795 435.175 230.555 435.175 230.288C435.175 230.203 435.181 230.128 435.191 230.064C435.202 229.989 435.218 229.893 435.239 229.776L436.119 225.776Z" fill="white"/>
<rect x="1" y="1" width="562" height="278" stroke="black" stroke-width="2"/>
</svg>
