<svg width="564" height="280" viewBox="0 0 564 280" fill="none" xmlns="http://www.w3.org/2000/svg">
<rect x="1" y="1" width="562" height="278" fill="#F2F2F2"/>
<rect width="245" height="73" transform="translate(22 22)" fill="white"/>
<circle cx="72.5" cy="62.5" r="25.5" fill="#BAFF62" stroke="black" stroke-width="2"/>
<circle cx="68.5" cy="58.5" r="25.5" fill="#BAFF62" stroke="black" stroke-width="2"/>
<path d="M71.4608 68.9556H74.1301V45H71.4608V54.6507H71.0501C70.4569 53.624 69.6356 52.8483 68.5861 52.3236C67.5366 51.776 66.3959 51.5022 65.1639 51.5022C64.1144 51.5022 63.122 51.6961 62.1866 52.084C61.2512 52.4719 60.4298 53.0308 59.7226 53.7609C58.9925 54.491 58.4221 55.3921 58.0115 56.4644C57.578 57.5367 57.3612 58.7573 57.3612 60.1262V60.8107C57.3612 62.2024 57.5666 63.4344 57.9772 64.5067C58.3879 65.579 58.9583 66.4801 59.6884 67.2102C60.3956 67.9403 61.2284 68.4993 62.1866 68.8871C63.1448 69.2521 64.1601 69.4347 65.2323 69.4347C65.7799 69.4347 66.3389 69.3662 66.9092 69.2293C67.4796 69.1153 68.0272 68.9327 68.5519 68.6818C69.0538 68.408 69.5215 68.0886 69.955 67.7236C70.3885 67.3357 70.7535 66.8794 71.0501 66.3547H71.4608V68.9556ZM65.7799 66.9022C64.9586 66.9022 64.2057 66.7653 63.5212 66.4916C62.8368 66.195 62.2436 65.7843 61.7417 65.2596C61.2169 64.7348 60.8177 64.096 60.5439 63.3431C60.2473 62.5902 60.099 61.7461 60.099 60.8107V60.1262C60.099 59.2136 60.2473 58.3923 60.5439 57.6622C60.8177 56.9093 61.2169 56.2705 61.7417 55.7458C62.2436 55.1982 62.8482 54.7761 63.5555 54.4796C64.2399 54.183 64.9814 54.0347 65.7799 54.0347C66.5784 54.0347 67.3199 54.1944 68.0043 54.5138C68.6888 54.8104 69.2934 55.2324 69.8181 55.78C70.3201 56.3276 70.7193 56.9892 71.0159 57.7649C71.3125 58.5178 71.4608 59.3505 71.4608 60.2631V60.6738C71.4608 61.6092 71.3125 62.4647 71.0159 63.2404C70.7193 63.9933 70.3201 64.6436 69.8181 65.1911C69.2934 65.7387 68.6888 66.1607 68.0043 66.4573C67.3199 66.7539 66.5784 66.9022 65.7799 66.9022Z" fill="black"/>
<rect x="22" y="22" width="93" height="73" stroke="black" stroke-width="2"/>
<rect x="115" y="22" width="152" height="73" fill="#BAFF62"/>
<path d="M146.952 62.472V65.496H135.144V62.184C135.144 61.304 135.272 60.552 135.528 59.928C135.8 59.304 136.176 58.776 136.656 58.344C137.152 57.912 137.744 57.56 138.432 57.288C139.12 57 139.896 56.76 140.76 56.568C141.4 56.424 141.92 56.264 142.32 56.088C142.736 55.896 143.064 55.688 143.304 55.464C143.544 55.224 143.704 54.968 143.784 54.696C143.88 54.408 143.928 54.088 143.928 53.736C143.928 53.064 143.68 52.504 143.184 52.056C142.704 51.608 142.032 51.384 141.168 51.384C140.256 51.384 139.528 51.664 138.984 52.224C138.44 52.768 138.168 53.528 138.168 54.504V55.56H135V54.216C135 53.432 135.136 52.688 135.408 51.984C135.696 51.264 136.096 50.64 136.608 50.112C137.136 49.568 137.776 49.144 138.528 48.84C139.28 48.52 140.128 48.36 141.072 48.36C142.08 48.36 142.96 48.512 143.712 48.816C144.464 49.104 145.088 49.488 145.584 49.968C146.096 50.448 146.472 51.008 146.712 51.648C146.968 52.272 147.096 52.92 147.096 53.592V53.88C147.096 55.288 146.696 56.456 145.896 57.384C145.112 58.312 143.824 58.984 142.032 59.4C141.28 59.576 140.656 59.76 140.16 59.952C139.68 60.128 139.304 60.328 139.032 60.552C138.76 60.776 138.568 61.024 138.456 61.296C138.36 61.552 138.312 61.848 138.312 62.184V62.472H146.952Z" fill="black"/>
<path d="M153.607 57.096C153.607 56.552 153.807 56.08 154.207 55.68C154.607 55.28 155.079 55.08 155.623 55.08C156.167 55.08 156.639 55.28 157.039 55.68C157.439 56.08 157.639 56.552 157.639 57.096C157.639 57.64 157.439 58.112 157.039 58.512C156.639 58.912 156.167 59.112 155.623 59.112C155.079 59.112 154.607 58.912 154.207 58.512C153.807 58.112 153.607 57.64 153.607 57.096ZM149.431 55.224C149.431 53.048 149.975 51.36 151.063 50.16C152.167 48.96 153.687 48.36 155.623 48.36C157.559 48.36 159.071 48.96 160.159 50.16C161.263 51.36 161.815 53.048 161.815 55.224V58.968C161.815 61.208 161.263 62.912 160.159 64.08C159.071 65.248 157.559 65.832 155.623 65.832C153.687 65.832 152.167 65.248 151.063 64.08C149.975 62.912 149.431 61.208 149.431 58.968V55.224ZM155.623 62.952C156.199 62.952 156.679 62.864 157.063 62.688C157.447 62.496 157.759 62.232 157.999 61.896C158.239 61.56 158.407 61.16 158.503 60.696C158.599 60.232 158.647 59.72 158.647 59.16V55.032C158.647 54.504 158.591 54.008 158.479 53.544C158.367 53.08 158.191 52.68 157.951 52.344C157.711 52.008 157.399 51.744 157.015 51.552C156.631 51.344 156.167 51.24 155.623 51.24C155.079 51.24 154.615 51.344 154.231 51.552C153.847 51.744 153.535 52.008 153.295 52.344C153.055 52.68 152.879 53.08 152.767 53.544C152.655 54.008 152.599 54.504 152.599 55.032V59.16C152.599 59.72 152.647 60.232 152.743 60.696C152.839 61.16 153.007 61.56 153.247 61.896C153.487 62.232 153.799 62.496 154.183 62.688C154.567 62.864 155.047 62.952 155.623 62.952Z" fill="black"/>
<path d="M164.559 58.008V48.696H175.791V51.72H167.727V56.28H168.159C168.383 55.656 168.799 55.12 169.407 54.672C170.031 54.208 170.863 53.976 171.903 53.976C172.687 53.976 173.391 54.112 174.015 54.384C174.639 54.656 175.167 55.032 175.599 55.512C176.031 55.992 176.359 56.568 176.583 57.24C176.823 57.912 176.943 58.648 176.943 59.448V59.592C176.943 60.44 176.799 61.24 176.511 61.992C176.239 62.744 175.831 63.408 175.287 63.984C174.759 64.544 174.103 64.992 173.319 65.328C172.535 65.664 171.631 65.832 170.607 65.832C169.583 65.832 168.679 65.696 167.895 65.424C167.111 65.136 166.447 64.744 165.903 64.248C165.375 63.736 164.967 63.136 164.679 62.448C164.407 61.744 164.271 60.984 164.271 60.168V59.592H167.439V59.88C167.439 60.728 167.695 61.432 168.207 61.992C168.735 62.536 169.503 62.808 170.511 62.808C171.519 62.808 172.311 62.536 172.887 61.992C173.479 61.448 173.775 60.696 173.775 59.736C173.775 58.824 173.559 58.144 173.127 57.696C172.695 57.232 172.127 57 171.423 57C170.959 57 170.583 57.104 170.295 57.312C170.007 57.504 169.823 57.736 169.743 58.008H164.559Z" fill="black"/>
<path d="M182.734 63.552C182.734 63.248 182.79 62.96 182.902 62.688C183.03 62.4 183.198 62.16 183.406 61.968C183.614 61.76 183.854 61.6 184.126 61.488C184.398 61.36 184.694 61.296 185.014 61.296C185.318 61.296 185.606 61.36 185.878 61.488C186.166 61.6 186.414 61.76 186.622 61.968C186.83 62.16 186.99 62.4 187.102 62.688C187.23 62.96 187.294 63.248 187.294 63.552V66.48C187.294 67.088 187.086 67.6 186.67 68.016C186.27 68.432 185.766 68.64 185.158 68.64H183.622V66.768H184.774C185.206 66.768 185.422 66.528 185.422 66.048V65.76C185.294 65.808 185.158 65.832 185.014 65.832C184.694 65.832 184.398 65.768 184.126 65.64C183.854 65.528 183.614 65.368 183.406 65.16C183.198 64.952 183.03 64.712 182.902 64.44C182.79 64.168 182.734 63.872 182.734 63.552Z" fill="black"/>
<path d="M197.693 57.096C197.693 56.552 197.893 56.08 198.293 55.68C198.693 55.28 199.165 55.08 199.709 55.08C200.253 55.08 200.725 55.28 201.125 55.68C201.525 56.08 201.725 56.552 201.725 57.096C201.725 57.64 201.525 58.112 201.125 58.512C200.725 58.912 200.253 59.112 199.709 59.112C199.165 59.112 198.693 58.912 198.293 58.512C197.893 58.112 197.693 57.64 197.693 57.096ZM193.517 55.224C193.517 53.048 194.061 51.36 195.149 50.16C196.253 48.96 197.773 48.36 199.709 48.36C201.645 48.36 203.157 48.96 204.245 50.16C205.349 51.36 205.901 53.048 205.901 55.224V58.968C205.901 61.208 205.349 62.912 204.245 64.08C203.157 65.248 201.645 65.832 199.709 65.832C197.773 65.832 196.253 65.248 195.149 64.08C194.061 62.912 193.517 61.208 193.517 58.968V55.224ZM199.709 62.952C200.285 62.952 200.765 62.864 201.149 62.688C201.533 62.496 201.845 62.232 202.085 61.896C202.325 61.56 202.493 61.16 202.589 60.696C202.685 60.232 202.733 59.72 202.733 59.16V55.032C202.733 54.504 202.677 54.008 202.565 53.544C202.453 53.08 202.277 52.68 202.037 52.344C201.797 52.008 201.485 51.744 201.101 51.552C200.717 51.344 200.253 51.24 199.709 51.24C199.165 51.24 198.701 51.344 198.317 51.552C197.933 51.744 197.621 52.008 197.381 52.344C197.141 52.68 196.965 53.08 196.853 53.544C196.741 54.008 196.685 54.504 196.685 55.032V59.16C196.685 59.72 196.733 60.232 196.829 60.696C196.925 61.16 197.093 61.56 197.333 61.896C197.573 62.232 197.885 62.496 198.269 62.688C198.653 62.864 199.133 62.952 199.709 62.952Z" fill="black"/>
<path d="M212.389 57.096C212.389 56.552 212.589 56.08 212.989 55.68C213.389 55.28 213.861 55.08 214.405 55.08C214.949 55.08 215.421 55.28 215.821 55.68C216.221 56.08 216.421 56.552 216.421 57.096C216.421 57.64 216.221 58.112 215.821 58.512C215.421 58.912 214.949 59.112 214.405 59.112C213.861 59.112 213.389 58.912 212.989 58.512C212.589 58.112 212.389 57.64 212.389 57.096ZM208.213 55.224C208.213 53.048 208.757 51.36 209.845 50.16C210.949 48.96 212.469 48.36 214.405 48.36C216.341 48.36 217.853 48.96 218.941 50.16C220.045 51.36 220.597 53.048 220.597 55.224V58.968C220.597 61.208 220.045 62.912 218.941 64.08C217.853 65.248 216.341 65.832 214.405 65.832C212.469 65.832 210.949 65.248 209.845 64.08C208.757 62.912 208.213 61.208 208.213 58.968V55.224ZM214.405 62.952C214.981 62.952 215.461 62.864 215.845 62.688C216.229 62.496 216.541 62.232 216.781 61.896C217.021 61.56 217.189 61.16 217.285 60.696C217.381 60.232 217.429 59.72 217.429 59.16V55.032C217.429 54.504 217.373 54.008 217.261 53.544C217.149 53.08 216.973 52.68 216.733 52.344C216.493 52.008 216.181 51.744 215.797 51.552C215.413 51.344 214.949 51.24 214.405 51.24C213.861 51.24 213.397 51.344 213.013 51.552C212.629 51.744 212.317 52.008 212.077 52.344C211.837 52.68 211.661 53.08 211.549 53.544C211.437 54.008 211.381 54.504 211.381 55.032V59.16C211.381 59.72 211.429 60.232 211.525 60.696C211.621 61.16 211.789 61.56 212.029 61.896C212.269 62.232 212.581 62.496 212.965 62.688C213.349 62.864 213.829 62.952 214.405 62.952Z" fill="black"/>
<path d="M227.084 57.096C227.084 56.552 227.284 56.08 227.684 55.68C228.084 55.28 228.556 55.08 229.1 55.08C229.644 55.08 230.116 55.28 230.516 55.68C230.916 56.08 231.116 56.552 231.116 57.096C231.116 57.64 230.916 58.112 230.516 58.512C230.116 58.912 229.644 59.112 229.1 59.112C228.556 59.112 228.084 58.912 227.684 58.512C227.284 58.112 227.084 57.64 227.084 57.096ZM222.908 55.224C222.908 53.048 223.452 51.36 224.54 50.16C225.644 48.96 227.164 48.36 229.1 48.36C231.036 48.36 232.548 48.96 233.636 50.16C234.74 51.36 235.292 53.048 235.292 55.224V58.968C235.292 61.208 234.74 62.912 233.636 64.08C232.548 65.248 231.036 65.832 229.1 65.832C227.164 65.832 225.644 65.248 224.54 64.08C223.452 62.912 222.908 61.208 222.908 58.968V55.224ZM229.1 62.952C229.676 62.952 230.156 62.864 230.54 62.688C230.924 62.496 231.236 62.232 231.476 61.896C231.716 61.56 231.884 61.16 231.98 60.696C232.076 60.232 232.124 59.72 232.124 59.16V55.032C232.124 54.504 232.068 54.008 231.956 53.544C231.844 53.08 231.668 52.68 231.428 52.344C231.188 52.008 230.876 51.744 230.492 51.552C230.108 51.344 229.644 51.24 229.1 51.24C228.556 51.24 228.092 51.344 227.708 51.552C227.324 51.744 227.012 52.008 226.772 52.344C226.532 52.68 226.356 53.08 226.244 53.544C226.132 54.008 226.076 54.504 226.076 55.032V59.16C226.076 59.72 226.124 60.232 226.22 60.696C226.316 61.16 226.484 61.56 226.724 61.896C226.964 62.232 227.276 62.496 227.66 62.688C228.044 62.864 228.524 62.952 229.1 62.952Z" fill="black"/>
<rect x="306" y="31" width="243" height="119" fill="white" stroke="black" stroke-width="2"/>
<rect x="115" y="22" width="152" height="73" stroke="black" stroke-width="2"/>
<rect x="22" y="125" width="245" height="4" fill="#CBCBCB"/>
<rect x="22" y="139" width="179" height="4" fill="#CBCBCB"/>
<rect x="298" y="23" width="243" height="119" fill="white"/>
<path d="M443.66 46.112V49.136H431.852V45.824C431.852 44.944 431.98 44.192 432.236 43.568C432.508 42.944 432.884 42.416 433.364 41.984C433.86 41.552 434.452 41.2 435.14 40.928C435.828 40.64 436.604 40.4 437.468 40.208C438.108 40.064 438.628 39.904 439.028 39.728C439.444 39.536 439.772 39.328 440.012 39.104C440.252 38.864 440.412 38.608 440.492 38.336C440.588 38.048 440.636 37.728 440.636 37.376C440.636 36.704 440.388 36.144 439.892 35.696C439.412 35.248 438.74 35.024 437.876 35.024C436.964 35.024 436.236 35.304 435.692 35.864C435.148 36.408 434.876 37.168 434.876 38.144V39.2H431.708V37.856C431.708 37.072 431.844 36.328 432.116 35.624C432.404 34.904 432.804 34.28 433.316 33.752C433.844 33.208 434.484 32.784 435.236 32.48C435.988 32.16 436.836 32 437.78 32C438.788 32 439.668 32.152 440.42 32.456C441.172 32.744 441.796 33.128 442.292 33.608C442.804 34.088 443.18 34.648 443.42 35.288C443.676 35.912 443.804 36.56 443.804 37.232V37.52C443.804 38.928 443.404 40.096 442.604 41.024C441.82 41.952 440.532 42.624 438.74 43.04C437.988 43.216 437.364 43.4 436.868 43.592C436.388 43.768 436.012 43.968 435.74 44.192C435.468 44.416 435.276 44.664 435.164 44.936C435.068 45.192 435.02 45.488 435.02 45.824V46.112H443.66Z" fill="black"/>
<path d="M450.315 40.736C450.315 40.192 450.515 39.72 450.915 39.32C451.315 38.92 451.787 38.72 452.331 38.72C452.875 38.72 453.347 38.92 453.747 39.32C454.147 39.72 454.347 40.192 454.347 40.736C454.347 41.28 454.147 41.752 453.747 42.152C453.347 42.552 452.875 42.752 452.331 42.752C451.787 42.752 451.315 42.552 450.915 42.152C450.515 41.752 450.315 41.28 450.315 40.736ZM446.139 38.864C446.139 36.688 446.683 35 447.771 33.8C448.875 32.6 450.395 32 452.331 32C454.267 32 455.779 32.6 456.867 33.8C457.971 35 458.523 36.688 458.523 38.864V42.608C458.523 44.848 457.971 46.552 456.867 47.72C455.779 48.888 454.267 49.472 452.331 49.472C450.395 49.472 448.875 48.888 447.771 47.72C446.683 46.552 446.139 44.848 446.139 42.608V38.864ZM452.331 46.592C452.907 46.592 453.387 46.504 453.771 46.328C454.155 46.136 454.467 45.872 454.707 45.536C454.947 45.2 455.115 44.8 455.211 44.336C455.307 43.872 455.355 43.36 455.355 42.8V38.672C455.355 38.144 455.299 37.648 455.187 37.184C455.075 36.72 454.899 36.32 454.659 35.984C454.419 35.648 454.107 35.384 453.723 35.192C453.339 34.984 452.875 34.88 452.331 34.88C451.787 34.88 451.323 34.984 450.939 35.192C450.555 35.384 450.243 35.648 450.003 35.984C449.763 36.32 449.587 36.72 449.475 37.184C449.363 37.648 449.307 38.144 449.307 38.672V42.8C449.307 43.36 449.355 43.872 449.451 44.336C449.547 44.8 449.715 45.2 449.955 45.536C450.195 45.872 450.507 46.136 450.891 46.328C451.275 46.504 451.755 46.592 452.331 46.592Z" fill="black"/>
<path d="M461.267 41.648V32.336H472.499V35.36H464.435V39.92H464.867C465.091 39.296 465.507 38.76 466.115 38.312C466.739 37.848 467.571 37.616 468.611 37.616C469.395 37.616 470.099 37.752 470.723 38.024C471.347 38.296 471.875 38.672 472.307 39.152C472.739 39.632 473.067 40.208 473.291 40.88C473.531 41.552 473.651 42.288 473.651 43.088V43.232C473.651 44.08 473.507 44.88 473.219 45.632C472.947 46.384 472.539 47.048 471.995 47.624C471.467 48.184 470.811 48.632 470.027 48.968C469.243 49.304 468.339 49.472 467.315 49.472C466.291 49.472 465.387 49.336 464.603 49.064C463.819 48.776 463.155 48.384 462.611 47.888C462.083 47.376 461.675 46.776 461.387 46.088C461.115 45.384 460.979 44.624 460.979 43.808V43.232H464.147V43.52C464.147 44.368 464.403 45.072 464.915 45.632C465.443 46.176 466.211 46.448 467.219 46.448C468.227 46.448 469.019 46.176 469.595 45.632C470.187 45.088 470.483 44.336 470.483 43.376C470.483 42.464 470.267 41.784 469.835 41.336C469.403 40.872 468.835 40.64 468.131 40.64C467.667 40.64 467.291 40.744 467.003 40.952C466.715 41.144 466.531 41.376 466.451 41.648H461.267Z" fill="black"/>
<path d="M479.442 47.192C479.442 46.888 479.498 46.6 479.61 46.328C479.738 46.04 479.906 45.8 480.114 45.608C480.322 45.4 480.562 45.24 480.834 45.128C481.106 45 481.402 44.936 481.722 44.936C482.026 44.936 482.314 45 482.586 45.128C482.874 45.24 483.122 45.4 483.33 45.608C483.538 45.8 483.698 46.04 483.81 46.328C483.938 46.6 484.002 46.888 484.002 47.192V50.12C484.002 50.728 483.794 51.24 483.378 51.656C482.978 52.072 482.474 52.28 481.866 52.28H480.33V50.408H481.482C481.914 50.408 482.13 50.168 482.13 49.688V49.4C482.002 49.448 481.866 49.472 481.722 49.472C481.402 49.472 481.106 49.408 480.834 49.28C480.562 49.168 480.322 49.008 480.114 48.8C479.906 48.592 479.738 48.352 479.61 48.08C479.498 47.808 479.442 47.512 479.442 47.192Z" fill="black"/>
<path d="M494.401 40.736C494.401 40.192 494.601 39.72 495.001 39.32C495.401 38.92 495.873 38.72 496.417 38.72C496.961 38.72 497.433 38.92 497.833 39.32C498.233 39.72 498.433 40.192 498.433 40.736C498.433 41.28 498.233 41.752 497.833 42.152C497.433 42.552 496.961 42.752 496.417 42.752C495.873 42.752 495.401 42.552 495.001 42.152C494.601 41.752 494.401 41.28 494.401 40.736ZM490.225 38.864C490.225 36.688 490.769 35 491.857 33.8C492.961 32.6 494.481 32 496.417 32C498.353 32 499.865 32.6 500.953 33.8C502.057 35 502.609 36.688 502.609 38.864V42.608C502.609 44.848 502.057 46.552 500.953 47.72C499.865 48.888 498.353 49.472 496.417 49.472C494.481 49.472 492.961 48.888 491.857 47.72C490.769 46.552 490.225 44.848 490.225 42.608V38.864ZM496.417 46.592C496.993 46.592 497.473 46.504 497.857 46.328C498.241 46.136 498.553 45.872 498.793 45.536C499.033 45.2 499.201 44.8 499.297 44.336C499.393 43.872 499.441 43.36 499.441 42.8V38.672C499.441 38.144 499.385 37.648 499.273 37.184C499.161 36.72 498.985 36.32 498.745 35.984C498.505 35.648 498.193 35.384 497.809 35.192C497.425 34.984 496.961 34.88 496.417 34.88C495.873 34.88 495.409 34.984 495.025 35.192C494.641 35.384 494.329 35.648 494.089 35.984C493.849 36.32 493.673 36.72 493.561 37.184C493.449 37.648 493.393 38.144 493.393 38.672V42.8C493.393 43.36 493.441 43.872 493.537 44.336C493.633 44.8 493.801 45.2 494.041 45.536C494.281 45.872 494.593 46.136 494.977 46.328C495.361 46.504 495.841 46.592 496.417 46.592Z" fill="black"/>
<path d="M509.097 40.736C509.097 40.192 509.297 39.72 509.697 39.32C510.097 38.92 510.569 38.72 511.113 38.72C511.657 38.72 512.129 38.92 512.529 39.32C512.929 39.72 513.129 40.192 513.129 40.736C513.129 41.28 512.929 41.752 512.529 42.152C512.129 42.552 511.657 42.752 511.113 42.752C510.569 42.752 510.097 42.552 509.697 42.152C509.297 41.752 509.097 41.28 509.097 40.736ZM504.921 38.864C504.921 36.688 505.465 35 506.553 33.8C507.657 32.6 509.177 32 511.113 32C513.049 32 514.561 32.6 515.649 33.8C516.753 35 517.305 36.688 517.305 38.864V42.608C517.305 44.848 516.753 46.552 515.649 47.72C514.561 48.888 513.049 49.472 511.113 49.472C509.177 49.472 507.657 48.888 506.553 47.72C505.465 46.552 504.921 44.848 504.921 42.608V38.864ZM511.113 46.592C511.689 46.592 512.169 46.504 512.553 46.328C512.937 46.136 513.249 45.872 513.489 45.536C513.729 45.2 513.897 44.8 513.993 44.336C514.089 43.872 514.137 43.36 514.137 42.8V38.672C514.137 38.144 514.081 37.648 513.969 37.184C513.857 36.72 513.681 36.32 513.441 35.984C513.201 35.648 512.889 35.384 512.505 35.192C512.121 34.984 511.657 34.88 511.113 34.88C510.569 34.88 510.105 34.984 509.721 35.192C509.337 35.384 509.025 35.648 508.785 35.984C508.545 36.32 508.369 36.72 508.257 37.184C508.145 37.648 508.089 38.144 508.089 38.672V42.8C508.089 43.36 508.137 43.872 508.233 44.336C508.329 44.8 508.497 45.2 508.737 45.536C508.977 45.872 509.289 46.136 509.673 46.328C510.057 46.504 510.537 46.592 511.113 46.592Z" fill="black"/>
<path d="M523.792 40.736C523.792 40.192 523.992 39.72 524.392 39.32C524.792 38.92 525.264 38.72 525.808 38.72C526.352 38.72 526.824 38.92 527.224 39.32C527.624 39.72 527.824 40.192 527.824 40.736C527.824 41.28 527.624 41.752 527.224 42.152C526.824 42.552 526.352 42.752 525.808 42.752C525.264 42.752 524.792 42.552 524.392 42.152C523.992 41.752 523.792 41.28 523.792 40.736ZM519.616 38.864C519.616 36.688 520.16 35 521.248 33.8C522.352 32.6 523.872 32 525.808 32C527.744 32 529.256 32.6 530.344 33.8C531.448 35 532 36.688 532 38.864V42.608C532 44.848 531.448 46.552 530.344 47.72C529.256 48.888 527.744 49.472 525.808 49.472C523.872 49.472 522.352 48.888 521.248 47.72C520.16 46.552 519.616 44.848 519.616 42.608V38.864ZM525.808 46.592C526.384 46.592 526.864 46.504 527.248 46.328C527.632 46.136 527.944 45.872 528.184 45.536C528.424 45.2 528.592 44.8 528.688 44.336C528.784 43.872 528.832 43.36 528.832 42.8V38.672C528.832 38.144 528.776 37.648 528.664 37.184C528.552 36.72 528.376 36.32 528.136 35.984C527.896 35.648 527.584 35.384 527.2 35.192C526.816 34.984 526.352 34.88 525.808 34.88C525.264 34.88 524.8 34.984 524.416 35.192C524.032 35.384 523.72 35.648 523.48 35.984C523.24 36.32 523.064 36.72 522.952 37.184C522.84 37.648 522.784 38.144 522.784 38.672V42.8C522.784 43.36 522.832 43.872 522.928 44.336C523.024 44.8 523.192 45.2 523.432 45.536C523.672 45.872 523.984 46.136 524.368 46.328C524.752 46.504 525.232 46.592 525.808 46.592Z" fill="black"/>
<rect x="307" y="80.2025" width="225" height="8" fill="#BAFF62" stroke="black" stroke-width="2"/>
<path d="M482.799 129.755V117.979H482.388L480.879 123.543H478V123.264L479.92 116.45H485.816V129.755H489.792V132.675H478.274V129.755H482.799Z" fill="black"/>
<path d="M495.832 124.562C495.832 124.037 496.023 123.581 496.404 123.195C496.785 122.809 497.234 122.615 497.752 122.615C498.27 122.615 498.72 122.809 499.1 123.195C499.481 123.581 499.672 124.037 499.672 124.562C499.672 125.088 499.481 125.544 499.1 125.93C498.72 126.316 498.27 126.51 497.752 126.51C497.234 126.51 496.785 126.316 496.404 125.93C496.023 125.544 495.832 125.088 495.832 124.562ZM491.856 122.754C491.856 120.653 492.374 119.022 493.41 117.863C494.461 116.704 495.909 116.125 497.752 116.125C499.596 116.125 501.035 116.704 502.071 117.863C503.123 119.022 503.648 120.653 503.648 122.754V126.371C503.648 128.534 503.123 130.18 502.071 131.308C501.035 132.436 499.596 133 497.752 133C495.909 133 494.461 132.436 493.41 131.308C492.374 130.18 491.856 128.534 491.856 126.371V122.754ZM497.752 130.218C498.301 130.218 498.758 130.133 499.123 129.963C499.489 129.778 499.786 129.523 500.015 129.198C500.243 128.874 500.403 128.488 500.494 128.039C500.586 127.591 500.632 127.097 500.632 126.556V122.569C500.632 122.059 500.578 121.58 500.472 121.132C500.365 120.684 500.197 120.297 499.969 119.973C499.74 119.648 499.443 119.393 499.078 119.208C498.712 119.007 498.27 118.907 497.752 118.907C497.234 118.907 496.792 119.007 496.427 119.208C496.061 119.393 495.764 119.648 495.535 119.973C495.307 120.297 495.139 120.684 495.033 121.132C494.926 121.58 494.873 122.059 494.873 122.569V126.556C494.873 127.097 494.918 127.591 495.01 128.039C495.101 128.488 495.261 128.874 495.49 129.198C495.718 129.523 496.015 129.778 496.381 129.963C496.747 130.133 497.204 130.218 497.752 130.218Z" fill="black"/>
<path d="M509.825 124.562C509.825 124.037 510.016 123.581 510.397 123.195C510.778 122.809 511.227 122.615 511.745 122.615C512.263 122.615 512.713 122.809 513.093 123.195C513.474 123.581 513.665 124.037 513.665 124.562C513.665 125.088 513.474 125.544 513.093 125.93C512.713 126.316 512.263 126.51 511.745 126.51C511.227 126.51 510.778 126.316 510.397 125.93C510.016 125.544 509.825 125.088 509.825 124.562ZM505.849 122.754C505.849 120.653 506.367 119.022 507.403 117.863C508.454 116.704 509.902 116.125 511.745 116.125C513.589 116.125 515.028 116.704 516.064 117.863C517.116 119.022 517.641 120.653 517.641 122.754V126.371C517.641 128.534 517.116 130.18 516.064 131.308C515.028 132.436 513.589 133 511.745 133C509.902 133 508.454 132.436 507.403 131.308C506.367 130.18 505.849 128.534 505.849 126.371V122.754ZM511.745 130.218C512.294 130.218 512.751 130.133 513.116 129.963C513.482 129.778 513.779 129.523 514.008 129.198C514.236 128.874 514.396 128.488 514.488 128.039C514.579 127.591 514.625 127.097 514.625 126.556V122.569C514.625 122.059 514.571 121.58 514.465 121.132C514.358 120.684 514.19 120.297 513.962 119.973C513.733 119.648 513.436 119.393 513.071 119.208C512.705 119.007 512.263 118.907 511.745 118.907C511.227 118.907 510.785 119.007 510.42 119.208C510.054 119.393 509.757 119.648 509.528 119.973C509.3 120.297 509.132 120.684 509.026 121.132C508.919 121.58 508.866 122.059 508.866 122.569V126.556C508.866 127.097 508.911 127.591 509.003 128.039C509.094 128.488 509.254 128.874 509.483 129.198C509.711 129.523 510.008 129.778 510.374 129.963C510.74 130.133 511.197 130.218 511.745 130.218Z" fill="black"/>
<path d="M526.47 119.648C526.47 120.205 526.371 120.699 526.172 121.132C525.974 121.549 525.708 121.912 525.373 122.221C525.053 122.515 524.679 122.739 524.253 122.894C523.841 123.048 523.415 123.125 522.973 123.125C522.531 123.125 522.097 123.048 521.67 122.894C521.259 122.739 520.886 122.515 520.551 122.221C520.231 121.912 519.972 121.549 519.774 121.132C519.576 120.699 519.476 120.205 519.476 119.648C519.476 119.092 519.576 118.605 519.774 118.188C519.972 117.755 520.231 117.392 520.551 117.099C520.886 116.789 521.259 116.558 521.67 116.403C522.097 116.249 522.531 116.171 522.973 116.171C523.415 116.171 523.841 116.249 524.253 116.403C524.679 116.558 525.053 116.789 525.373 117.099C525.708 117.392 525.974 117.755 526.172 118.188C526.371 118.605 526.47 119.092 526.47 119.648ZM522.973 121.178C523.354 121.178 523.689 121.047 523.979 120.784C524.268 120.521 524.413 120.143 524.413 119.648C524.413 119.154 524.268 118.775 523.979 118.513C523.689 118.25 523.354 118.118 522.973 118.118C522.592 118.118 522.257 118.25 521.967 118.513C521.678 118.775 521.533 119.154 521.533 119.648C521.533 120.143 521.678 120.521 521.967 120.784C522.257 121.047 522.592 121.178 522.973 121.178ZM532 129.477C532 130.033 531.901 130.527 531.703 130.96C531.505 131.377 531.238 131.741 530.903 132.05C530.583 132.343 530.21 132.567 529.783 132.722C529.372 132.876 528.945 132.954 528.503 132.954C528.062 132.954 527.627 132.876 527.201 132.722C526.789 132.567 526.416 132.343 526.081 132.05C525.761 131.741 525.502 131.377 525.304 130.96C525.106 130.527 525.007 130.033 525.007 129.477C525.007 128.92 525.106 128.434 525.304 128.016C525.502 127.584 525.761 127.22 526.081 126.927C526.416 126.618 526.789 126.386 527.201 126.231C527.627 126.077 528.062 126 528.503 126C528.945 126 529.372 126.077 529.783 126.231C530.21 126.386 530.583 126.618 530.903 126.927C531.238 127.22 531.505 127.584 531.703 128.016C531.901 128.434 532 128.92 532 129.477ZM528.503 131.007C528.884 131.007 529.22 130.875 529.509 130.612C529.798 130.35 529.943 129.971 529.943 129.477C529.943 128.982 529.798 128.604 529.509 128.341C529.22 128.078 528.884 127.947 528.503 127.947C528.123 127.947 527.787 128.078 527.498 128.341C527.208 128.604 527.064 128.982 527.064 129.477C527.064 129.971 527.208 130.35 527.498 130.612C527.787 130.875 528.123 131.007 528.503 131.007ZM530.652 120.854L531.589 122.662L520.802 128.271L519.865 126.463L530.652 120.854Z" fill="black"/>
<rect x="298" y="23" width="243" height="119" stroke="black" stroke-width="2"/>
<rect x="2" y="172" width="560" height="2" fill="black"/>
<rect width="77.8546" height="44" transform="translate(243.073 204)" fill="black"/>
<path d="M263.073 231.408L265.409 220.4H267.521L265.569 229.584H270.433V231.6H263.073V231.408Z" fill="white"/>
<path d="M281.558 226.64C281.558 227.387 281.451 228.08 281.238 228.72C281.024 229.349 280.71 229.893 280.294 230.352C279.878 230.811 279.355 231.173 278.726 231.44C278.107 231.696 277.387 231.824 276.566 231.824C276.096 231.824 275.654 231.755 275.238 231.616C274.832 231.477 274.475 231.275 274.166 231.008C273.856 230.731 273.611 230.395 273.43 230C273.248 229.605 273.158 229.157 273.158 228.656C273.158 227.835 273.286 227.104 273.542 226.464C273.798 225.813 274.144 225.264 274.582 224.816C275.03 224.368 275.552 224.027 276.15 223.792C276.758 223.557 277.408 223.44 278.102 223.44C278.603 223.44 279.067 223.52 279.494 223.68C279.92 223.829 280.283 224.043 280.582 224.32C280.891 224.597 281.131 224.933 281.302 225.328C281.472 225.723 281.558 226.16 281.558 226.64ZM276.87 229.936C277.254 229.925 277.606 229.84 277.926 229.68C278.256 229.52 278.534 229.312 278.758 229.056C278.992 228.789 279.174 228.48 279.302 228.128C279.43 227.776 279.494 227.403 279.494 227.008C279.494 226.453 279.344 226.037 279.046 225.76C278.747 225.472 278.347 225.328 277.846 225.328C277.462 225.328 277.11 225.413 276.79 225.584C276.47 225.744 276.192 225.963 275.958 226.24C275.723 226.507 275.542 226.816 275.414 227.168C275.286 227.52 275.222 227.888 275.222 228.272C275.222 228.816 275.371 229.232 275.67 229.52C275.968 229.797 276.368 229.936 276.87 229.936Z" fill="white"/>
<path d="M290.97 228.688C290.672 229.637 290.138 230.4 289.37 230.976C288.613 231.541 287.594 231.824 286.314 231.824C285.845 231.824 285.402 231.749 284.986 231.6C284.57 231.451 284.208 231.227 283.898 230.928C283.589 230.629 283.344 230.261 283.162 229.824C282.992 229.376 282.906 228.859 282.906 228.272C282.906 227.611 283.018 226.987 283.242 226.4C283.477 225.813 283.813 225.301 284.25 224.864C284.688 224.427 285.216 224.08 285.834 223.824C286.453 223.568 287.157 223.44 287.946 223.44C288.522 223.44 289.029 223.525 289.466 223.696C289.904 223.867 290.266 224.101 290.554 224.4C290.842 224.688 291.061 225.029 291.21 225.424C291.36 225.819 291.434 226.235 291.434 226.672L289.386 227.072C289.386 226.528 289.248 226.107 288.97 225.808C288.704 225.509 288.266 225.36 287.658 225.36C287.274 225.36 286.917 225.435 286.586 225.584C286.266 225.723 285.984 225.92 285.738 226.176C285.504 226.421 285.317 226.715 285.178 227.056C285.05 227.387 284.986 227.744 284.986 228.128C284.986 228.736 285.146 229.184 285.466 229.472C285.786 229.76 286.192 229.904 286.682 229.904C287.354 229.904 287.877 229.755 288.25 229.456C288.624 229.157 288.906 228.736 289.098 228.192L290.97 228.688Z" fill="white"/>
<path d="M292.607 231.6L295.039 220.176H297.055L295.695 226.576H296.079L299.295 223.44L300.543 224.784L297.599 227.536V227.824L298.879 229.936H299.071L299.951 229.328L300.927 230.736L300.207 231.28C299.941 231.483 299.679 231.621 299.423 231.696C299.178 231.781 298.938 231.824 298.703 231.824C298.362 231.824 298.053 231.744 297.775 231.584C297.498 231.413 297.269 231.173 297.087 230.864L295.647 228.496H295.279L294.623 231.6H292.607Z" fill="white"/>
<rect x="1" y="1" width="562" height="278" stroke="black" stroke-width="2"/>
</svg>
