<svg width="564" height="280" viewBox="0 0 564 280" fill="none" xmlns="http://www.w3.org/2000/svg">
<rect x="1" y="1" width="562" height="278" fill="#F2F2F2"/>
<rect width="520" height="73" transform="translate(22 22)" fill="white"/>
<circle cx="72.5" cy="62.5" r="25.5" fill="#BAFF62" stroke="black" stroke-width="2"/>
<circle cx="68.5" cy="58.5" r="25.5" fill="#BAFF62" stroke="black" stroke-width="2"/>
<path d="M71.4608 68.9556H74.1301V45H71.4608V54.6507H71.0501C70.4569 53.624 69.6356 52.8483 68.5861 52.3236C67.5366 51.776 66.3959 51.5022 65.1639 51.5022C64.1144 51.5022 63.122 51.6961 62.1866 52.084C61.2512 52.4719 60.4298 53.0308 59.7226 53.7609C58.9925 54.491 58.4221 55.3921 58.0115 56.4644C57.578 57.5367 57.3612 58.7573 57.3612 60.1262V60.8107C57.3612 62.2024 57.5666 63.4344 57.9772 64.5067C58.3879 65.579 58.9583 66.4801 59.6884 67.2102C60.3956 67.9403 61.2284 68.4993 62.1866 68.8871C63.1448 69.2521 64.1601 69.4347 65.2323 69.4347C65.7799 69.4347 66.3389 69.3662 66.9092 69.2293C67.4796 69.1153 68.0272 68.9327 68.5519 68.6818C69.0538 68.408 69.5215 68.0886 69.955 67.7236C70.3885 67.3357 70.7535 66.8794 71.0501 66.3547H71.4608V68.9556ZM65.7799 66.9022C64.9586 66.9022 64.2057 66.7653 63.5212 66.4916C62.8368 66.195 62.2436 65.7843 61.7417 65.2596C61.2169 64.7348 60.8177 64.096 60.5439 63.3431C60.2473 62.5902 60.099 61.7461 60.099 60.8107V60.1262C60.099 59.2136 60.2473 58.3923 60.5439 57.6622C60.8177 56.9093 61.2169 56.2705 61.7417 55.7458C62.2436 55.1982 62.8482 54.7761 63.5555 54.4796C64.2399 54.183 64.9814 54.0347 65.7799 54.0347C66.5784 54.0347 67.3199 54.1944 68.0043 54.5138C68.6888 54.8104 69.2934 55.2324 69.8181 55.78C70.3201 56.3276 70.7193 56.9892 71.0159 57.7649C71.3125 58.5178 71.4608 59.3505 71.4608 60.2631V60.6738C71.4608 61.6092 71.3125 62.4647 71.0159 63.2404C70.7193 63.9933 70.3201 64.6436 69.8181 65.1911C69.2934 65.7387 68.6888 66.1607 68.0043 66.4573C67.3199 66.7539 66.5784 66.9022 65.7799 66.9022Z" fill="black"/>
<rect x="22" y="22" width="93" height="73" stroke="black" stroke-width="2"/>
<rect x="115" y="22" width="427" height="73" fill="#BAFF62"/>
<path d="M150.04 63.876V51.684H149.608L148.024 57.444H145V57.156L147.016 50.1H153.208V63.876H157.384V66.9H145.288V63.876H150.04Z" fill="black"/>
<path d="M171.767 63.876V66.9H159.959V63.588C159.959 62.708 160.087 61.956 160.343 61.332C160.615 60.708 160.991 60.18 161.471 59.748C161.967 59.316 162.559 58.964 163.247 58.692C163.935 58.404 164.711 58.164 165.575 57.972C166.215 57.828 166.735 57.668 167.135 57.492C167.551 57.3 167.879 57.092 168.119 56.868C168.359 56.628 168.519 56.372 168.599 56.1C168.695 55.812 168.743 55.492 168.743 55.14C168.743 54.468 168.495 53.908 167.999 53.46C167.519 53.012 166.847 52.788 165.983 52.788C165.071 52.788 164.343 53.068 163.799 53.628C163.255 54.172 162.983 54.932 162.983 55.908V56.964H159.815V55.62C159.815 54.836 159.951 54.092 160.223 53.388C160.511 52.668 160.911 52.044 161.423 51.516C161.951 50.972 162.591 50.548 163.343 50.244C164.095 49.924 164.943 49.764 165.887 49.764C166.895 49.764 167.775 49.916 168.527 50.22C169.279 50.508 169.903 50.892 170.399 51.372C170.911 51.852 171.287 52.412 171.527 53.052C171.783 53.676 171.911 54.324 171.911 54.996V55.284C171.911 56.692 171.511 57.86 170.711 58.788C169.927 59.716 168.639 60.388 166.847 60.804C166.095 60.98 165.471 61.164 164.975 61.356C164.495 61.532 164.119 61.732 163.847 61.956C163.575 62.18 163.383 62.428 163.271 62.7C163.175 62.956 163.127 63.252 163.127 63.588V63.876H171.767Z" fill="black"/>
<path d="M178.807 59.7V54.708L182.983 53.556V53.124H174.631V50.1H185.575V55.38L181.111 56.676V57.108H181.687C182.279 57.108 182.863 57.204 183.439 57.396C184.015 57.572 184.519 57.852 184.951 58.236C185.399 58.62 185.759 59.1 186.031 59.676C186.303 60.236 186.439 60.9 186.439 61.668V61.956C186.439 62.708 186.311 63.404 186.055 64.044C185.815 64.684 185.447 65.244 184.951 65.724C184.471 66.188 183.871 66.556 183.151 66.828C182.431 67.1 181.607 67.236 180.679 67.236C179.735 67.236 178.879 67.084 178.111 66.78C177.343 66.476 176.687 66.06 176.143 65.532C175.615 65.004 175.207 64.396 174.919 63.708C174.631 63.02 174.487 62.292 174.487 61.524V60.516H177.655V61.38C177.655 62.148 177.903 62.812 178.399 63.372C178.895 63.932 179.639 64.212 180.631 64.212C181.479 64.212 182.127 63.996 182.575 63.564C183.039 63.132 183.271 62.564 183.271 61.86C183.271 61.108 183.023 60.564 182.527 60.228C182.047 59.876 181.431 59.7 180.679 59.7H178.807Z" fill="black"/>
<path d="M197.414 64.956C197.414 65.276 197.35 65.58 197.222 65.868C197.11 66.14 196.95 66.38 196.742 66.588C196.534 66.78 196.286 66.932 195.998 67.044C195.726 67.172 195.438 67.236 195.134 67.236C194.814 67.236 194.518 67.172 194.246 67.044C193.974 66.932 193.734 66.78 193.526 66.588C193.318 66.38 193.15 66.14 193.022 65.868C192.91 65.58 192.854 65.276 192.854 64.956C192.854 64.636 192.91 64.34 193.022 64.068C193.15 63.78 193.318 63.54 193.526 63.348C193.734 63.14 193.974 62.98 194.246 62.868C194.518 62.74 194.814 62.676 195.134 62.676C195.438 62.676 195.726 62.74 195.998 62.868C196.286 62.98 196.534 63.14 196.742 63.348C196.95 63.54 197.11 63.78 197.222 64.068C197.35 64.34 197.414 64.636 197.414 64.956Z" fill="black"/>
<path d="M207.813 58.5C207.813 57.956 208.013 57.484 208.413 57.084C208.813 56.684 209.285 56.484 209.829 56.484C210.373 56.484 210.845 56.684 211.245 57.084C211.645 57.484 211.845 57.956 211.845 58.5C211.845 59.044 211.645 59.516 211.245 59.916C210.845 60.316 210.373 60.516 209.829 60.516C209.285 60.516 208.813 60.316 208.413 59.916C208.013 59.516 207.813 59.044 207.813 58.5ZM203.637 56.628C203.637 54.452 204.181 52.764 205.269 51.564C206.373 50.364 207.893 49.764 209.829 49.764C211.765 49.764 213.277 50.364 214.365 51.564C215.469 52.764 216.021 54.452 216.021 56.628V60.372C216.021 62.612 215.469 64.316 214.365 65.484C213.277 66.652 211.765 67.236 209.829 67.236C207.893 67.236 206.373 66.652 205.269 65.484C204.181 64.316 203.637 62.612 203.637 60.372V56.628ZM209.829 64.356C210.405 64.356 210.885 64.268 211.269 64.092C211.653 63.9 211.965 63.636 212.205 63.3C212.445 62.964 212.613 62.564 212.709 62.1C212.805 61.636 212.853 61.124 212.853 60.564V56.436C212.853 55.908 212.797 55.412 212.685 54.948C212.573 54.484 212.397 54.084 212.157 53.748C211.917 53.412 211.605 53.148 211.221 52.956C210.837 52.748 210.373 52.644 209.829 52.644C209.285 52.644 208.821 52.748 208.437 52.956C208.053 53.148 207.741 53.412 207.501 53.748C207.261 54.084 207.085 54.484 206.973 54.948C206.861 55.412 206.805 55.908 206.805 56.436V60.564C206.805 61.124 206.853 61.636 206.949 62.1C207.045 62.564 207.213 62.964 207.453 63.3C207.693 63.636 208.005 63.9 208.389 64.092C208.773 64.268 209.253 64.356 209.829 64.356Z" fill="black"/>
<path d="M222.509 58.5C222.509 57.956 222.709 57.484 223.109 57.084C223.509 56.684 223.981 56.484 224.525 56.484C225.069 56.484 225.541 56.684 225.941 57.084C226.341 57.484 226.541 57.956 226.541 58.5C226.541 59.044 226.341 59.516 225.941 59.916C225.541 60.316 225.069 60.516 224.525 60.516C223.981 60.516 223.509 60.316 223.109 59.916C222.709 59.516 222.509 59.044 222.509 58.5ZM218.333 56.628C218.333 54.452 218.877 52.764 219.965 51.564C221.069 50.364 222.589 49.764 224.525 49.764C226.461 49.764 227.973 50.364 229.061 51.564C230.165 52.764 230.717 54.452 230.717 56.628V60.372C230.717 62.612 230.165 64.316 229.061 65.484C227.973 66.652 226.461 67.236 224.525 67.236C222.589 67.236 221.069 66.652 219.965 65.484C218.877 64.316 218.333 62.612 218.333 60.372V56.628ZM224.525 64.356C225.101 64.356 225.581 64.268 225.965 64.092C226.349 63.9 226.661 63.636 226.901 63.3C227.141 62.964 227.309 62.564 227.405 62.1C227.501 61.636 227.549 61.124 227.549 60.564V56.436C227.549 55.908 227.493 55.412 227.381 54.948C227.269 54.484 227.093 54.084 226.853 53.748C226.613 53.412 226.301 53.148 225.917 52.956C225.533 52.748 225.069 52.644 224.525 52.644C223.981 52.644 223.517 52.748 223.133 52.956C222.749 53.148 222.437 53.412 222.197 53.748C221.957 54.084 221.781 54.484 221.669 54.948C221.557 55.412 221.501 55.908 221.501 56.436V60.564C221.501 61.124 221.549 61.636 221.645 62.1C221.741 62.564 221.909 62.964 222.149 63.3C222.389 63.636 222.701 63.9 223.085 64.092C223.469 64.268 223.949 64.356 224.525 64.356Z" fill="black"/>
<rect x="115" y="22" width="427" height="73" stroke="black" stroke-width="2"/>
<path d="M282 128L279.5 125.541L292 113.245L294.5 115.705L282 128Z" fill="black"/>
<path d="M284.5 125.541L282 128L269.5 115.705L272 113.246L284.5 125.541Z" fill="black"/>
<path d="M280.358 103H283.893L283.893 125.417H280.358L280.358 103Z" fill="black"/>
<rect x="31" y="146" width="518" height="47" fill="white" stroke="black" stroke-width="2"/>
<rect x="22" y="136" width="520" height="49" fill="white"/>
<path d="M56.944 160.5C56.944 160.084 57.096 159.724 57.4 159.42C57.704 159.116 58.064 158.964 58.48 158.964C58.896 158.964 59.256 159.116 59.56 159.42C59.864 159.724 60.016 160.084 60.016 160.5C60.016 160.916 59.864 161.276 59.56 161.58C59.256 161.884 58.896 162.036 58.48 162.036C58.064 162.036 57.704 161.884 57.4 161.58C57.096 161.276 56.944 160.916 56.944 160.5ZM52.984 158.628C53.448 156.388 54.264 154.684 55.432 153.516C56.616 152.348 58.2 151.764 60.184 151.764C61.736 151.764 62.92 152.212 63.736 153.108C64.568 153.988 64.984 155.212 64.984 156.78C64.984 157.1 64.96 157.444 64.912 157.812C64.88 158.164 64.824 158.524 64.744 158.892L64 162.372C63.536 164.612 62.712 166.316 61.528 167.484C60.36 168.652 58.784 169.236 56.8 169.236C55.248 169.236 54.056 168.796 53.224 167.916C52.408 167.02 52 165.788 52 164.22C52 163.9 52.016 163.564 52.048 163.212C52.096 162.844 52.16 162.476 52.24 162.108L52.984 158.628ZM57.088 167.412C57.744 167.412 58.336 167.292 58.864 167.052C59.408 166.796 59.88 166.444 60.28 165.996C60.696 165.532 61.04 164.988 61.312 164.364C61.6 163.724 61.832 163.012 62.008 162.228L62.776 158.628C62.904 157.988 62.968 157.428 62.968 156.948C62.968 155.908 62.712 155.092 62.2 154.5C61.688 153.892 60.92 153.588 59.896 153.588C58.568 153.588 57.496 154.06 56.68 155.004C55.88 155.948 55.312 157.204 54.976 158.772L54.208 162.372C54.08 163.012 54.016 163.572 54.016 164.052C54.016 165.092 54.272 165.916 54.784 166.524C55.296 167.116 56.064 167.412 57.088 167.412Z" fill="black"/>
<path d="M71.5913 162.852L69.9833 158.964C69.8873 158.756 69.7433 158.652 69.5513 158.652C69.3593 158.652 69.2153 158.748 69.1193 158.94L68.0633 160.74L66.5753 159.876L67.6553 158.004C67.9113 157.572 68.1913 157.244 68.4953 157.02C68.8153 156.78 69.2073 156.66 69.6713 156.66C70.5353 156.66 71.1673 157.132 71.5673 158.076L72.9833 161.508L77.8313 156.756L79.1033 158.028L73.7273 163.284L75.2873 166.98C75.3833 167.188 75.5273 167.292 75.7193 167.292C75.8953 167.292 76.0313 167.204 76.1273 167.028L77.1593 165.18L78.6713 165.996L77.6393 167.892C77.3833 168.356 77.0873 168.692 76.7513 168.9C76.4153 169.124 76.0313 169.236 75.5993 169.236C75.2153 169.236 74.8473 169.124 74.4953 168.9C74.1593 168.692 73.8873 168.348 73.6793 167.868L72.3353 164.652L67.7033 169.188L66.4313 167.916L71.5913 162.852Z" fill="black"/>
<path d="M90.6306 164.724H83.8866L81.8466 168.9H79.5666L87.8946 152.1H91.7346L92.9346 168.9H90.8946L90.6306 164.724ZM84.7986 162.852H90.5106L89.8866 152.988H89.5986L84.7986 162.852Z" fill="black"/>
<path d="M103.694 167.028C103.182 167.876 102.574 168.46 101.87 168.78C101.166 169.084 100.422 169.236 99.6379 169.236C98.9979 169.236 98.4139 169.124 97.8859 168.9C97.3579 168.676 96.9099 168.364 96.5419 167.964C96.1739 167.548 95.8859 167.052 95.6779 166.476C95.4699 165.884 95.3659 165.236 95.3659 164.532C95.3659 163.54 95.5179 162.572 95.8219 161.628C96.1259 160.684 96.5659 159.844 97.1419 159.108C97.7179 158.372 98.4219 157.78 99.2539 157.332C100.102 156.884 101.07 156.66 102.158 156.66C103.006 156.66 103.71 156.836 104.27 157.188C104.846 157.54 105.238 158.1 105.446 158.868H105.734L107.222 151.764H109.094L105.878 166.884C105.83 167.172 105.934 167.316 106.19 167.316C106.286 167.316 106.39 167.276 106.502 167.196L107.366 166.572L108.398 167.988L107.318 168.804C107.142 168.932 106.926 169.036 106.67 169.116C106.43 169.196 106.158 169.236 105.854 169.236C105.614 169.236 105.382 169.204 105.158 169.14C104.934 169.076 104.726 168.98 104.534 168.852C104.358 168.708 104.214 168.532 104.102 168.324C103.99 168.1 103.934 167.828 103.934 167.508C103.934 167.428 103.934 167.348 103.934 167.268C103.95 167.188 103.966 167.108 103.982 167.028H103.694ZM100.214 167.46C100.854 167.46 101.462 167.316 102.038 167.028C102.63 166.724 103.142 166.316 103.574 165.804C104.022 165.292 104.374 164.692 104.63 164.004C104.886 163.3 105.014 162.54 105.014 161.724C105.014 160.732 104.766 159.94 104.27 159.348C103.774 158.74 103.054 158.436 102.11 158.436C101.358 158.436 100.686 158.604 100.094 158.94C99.5179 159.26 99.0219 159.692 98.6059 160.236C98.1899 160.764 97.8699 161.38 97.6459 162.084C97.4379 162.788 97.3339 163.516 97.3339 164.268C97.3339 166.396 98.2939 167.46 100.214 167.46Z" fill="black"/>
<path d="M118.389 167.028C117.877 167.876 117.269 168.46 116.565 168.78C115.861 169.084 115.117 169.236 114.333 169.236C113.693 169.236 113.109 169.124 112.581 168.9C112.053 168.676 111.605 168.364 111.237 167.964C110.869 167.548 110.581 167.052 110.373 166.476C110.165 165.884 110.061 165.236 110.061 164.532C110.061 163.54 110.213 162.572 110.517 161.628C110.821 160.684 111.261 159.844 111.837 159.108C112.413 158.372 113.117 157.78 113.949 157.332C114.797 156.884 115.765 156.66 116.853 156.66C117.701 156.66 118.405 156.836 118.965 157.188C119.541 157.54 119.933 158.1 120.141 158.868H120.429L121.917 151.764H123.789L120.573 166.884C120.525 167.172 120.629 167.316 120.885 167.316C120.981 167.316 121.085 167.276 121.197 167.196L122.061 166.572L123.093 167.988L122.013 168.804C121.837 168.932 121.621 169.036 121.365 169.116C121.125 169.196 120.853 169.236 120.549 169.236C120.309 169.236 120.077 169.204 119.853 169.14C119.629 169.076 119.421 168.98 119.229 168.852C119.053 168.708 118.909 168.532 118.797 168.324C118.685 168.1 118.629 167.828 118.629 167.508C118.629 167.428 118.629 167.348 118.629 167.268C118.645 167.188 118.661 167.108 118.677 167.028H118.389ZM114.909 167.46C115.549 167.46 116.157 167.316 116.733 167.028C117.325 166.724 117.837 166.316 118.269 165.804C118.717 165.292 119.069 164.692 119.325 164.004C119.581 163.3 119.709 162.54 119.709 161.724C119.709 160.732 119.461 159.94 118.965 159.348C118.469 158.74 117.749 158.436 116.805 158.436C116.053 158.436 115.381 158.604 114.789 158.94C114.213 159.26 113.717 159.692 113.301 160.236C112.885 160.764 112.565 161.38 112.341 162.084C112.133 162.788 112.029 163.516 112.029 164.268C112.029 166.396 112.989 167.46 114.909 167.46Z" fill="black"/>
<path d="M129.317 159.06C129.365 158.868 129.341 158.724 129.245 158.628C129.149 158.516 129.029 158.46 128.885 158.46C128.757 158.46 128.637 158.5 128.525 158.58L126.341 160.068L125.381 158.652L127.517 157.212C128.061 156.844 128.613 156.66 129.173 156.66C129.669 156.66 130.101 156.804 130.469 157.092C130.837 157.364 131.045 157.812 131.093 158.436H131.381C131.845 157.78 132.365 157.324 132.941 157.068C133.517 156.796 134.117 156.66 134.741 156.66C135.893 156.66 136.797 156.996 137.453 157.668C138.109 158.324 138.437 159.196 138.437 160.284C138.437 160.7 138.389 161.124 138.293 161.556L136.253 161.7C136.333 161.3 136.373 160.964 136.373 160.692C136.373 159.924 136.157 159.356 135.725 158.988C135.309 158.62 134.765 158.436 134.093 158.436C133.613 158.436 133.173 158.532 132.773 158.724C132.389 158.9 132.053 159.148 131.765 159.468C131.477 159.772 131.229 160.132 131.021 160.548C130.829 160.964 130.685 161.396 130.589 161.844L129.461 167.172H132.293V168.9H124.661V167.172H127.589L129.317 159.06Z" fill="black"/>
<path d="M142.044 163.524C142.012 163.652 141.988 163.796 141.972 163.956C141.956 164.116 141.948 164.284 141.948 164.46C141.948 165.34 142.204 166.068 142.716 166.644C143.228 167.204 144.044 167.484 145.164 167.484C145.724 167.484 146.22 167.42 146.652 167.292C147.1 167.164 147.484 166.988 147.804 166.764C148.124 166.524 148.396 166.26 148.62 165.972C148.86 165.668 149.06 165.348 149.22 165.012L150.756 165.876C150.532 166.34 150.252 166.78 149.916 167.196C149.58 167.596 149.18 167.948 148.716 168.252C148.252 168.556 147.716 168.796 147.108 168.972C146.5 169.148 145.804 169.236 145.02 169.236C144.3 169.236 143.636 169.124 143.028 168.9C142.436 168.692 141.924 168.388 141.492 167.988C141.06 167.572 140.724 167.068 140.484 166.476C140.244 165.884 140.124 165.212 140.124 164.46C140.124 163.452 140.284 162.484 140.604 161.556C140.924 160.612 141.388 159.78 141.996 159.06C142.604 158.34 143.356 157.764 144.252 157.332C145.148 156.884 146.164 156.66 147.3 156.66C148.1 156.66 148.796 156.788 149.388 157.044C149.98 157.284 150.468 157.62 150.852 158.052C151.236 158.468 151.524 158.948 151.716 159.492C151.908 160.02 152.004 160.572 152.004 161.148C152.004 161.58 151.956 161.996 151.86 162.396L151.596 163.524H142.044ZM147.06 158.436C146.5 158.436 145.972 158.524 145.476 158.7C144.996 158.86 144.556 159.092 144.156 159.396C143.756 159.7 143.412 160.06 143.124 160.476C142.836 160.876 142.612 161.316 142.452 161.796H150.084C150.132 161.54 150.156 161.3 150.156 161.076C150.156 160.212 149.86 159.556 149.268 159.108C148.676 158.66 147.94 158.436 147.06 158.436Z" fill="black"/>
<path d="M162.115 158.34C161.795 158.34 161.459 158.38 161.107 158.46C160.771 158.54 160.459 158.66 160.171 158.82C159.899 158.98 159.675 159.188 159.499 159.444C159.323 159.684 159.235 159.972 159.235 160.308C159.235 160.82 159.459 161.204 159.907 161.46C160.371 161.716 161.163 161.884 162.283 161.964C163.435 162.044 164.323 162.332 164.947 162.828C165.587 163.324 165.907 164.052 165.907 165.012C165.907 165.684 165.763 166.284 165.475 166.812C165.203 167.34 164.819 167.788 164.323 168.156C163.827 168.508 163.235 168.772 162.547 168.948C161.875 169.14 161.131 169.236 160.315 169.236C159.499 169.236 158.803 169.124 158.227 168.9C157.667 168.692 157.203 168.412 156.835 168.06C156.467 167.692 156.195 167.284 156.019 166.836C155.859 166.372 155.779 165.9 155.779 165.42C155.779 165.34 155.779 165.26 155.779 165.18C155.779 165.084 155.787 164.996 155.803 164.916L157.675 164.676C157.659 164.804 157.651 164.884 157.651 164.916C157.651 164.948 157.651 164.996 157.651 165.06C157.651 165.412 157.699 165.74 157.795 166.044C157.907 166.332 158.083 166.588 158.323 166.812C158.563 167.02 158.875 167.188 159.259 167.316C159.643 167.444 160.115 167.508 160.675 167.508C161.043 167.508 161.419 167.468 161.803 167.388C162.203 167.292 162.563 167.156 162.883 166.98C163.203 166.788 163.467 166.556 163.675 166.284C163.883 165.996 163.987 165.652 163.987 165.252C163.987 164.628 163.731 164.212 163.219 164.004C162.723 163.78 161.979 163.628 160.987 163.548C159.851 163.468 158.955 163.196 158.299 162.732C157.659 162.268 157.339 161.54 157.339 160.548C157.339 159.988 157.459 159.468 157.699 158.988C157.939 158.508 158.275 158.1 158.707 157.764C159.155 157.412 159.683 157.14 160.291 156.948C160.915 156.756 161.603 156.66 162.355 156.66C163.091 156.66 163.723 156.764 164.251 156.972C164.795 157.164 165.235 157.42 165.571 157.74C165.923 158.06 166.179 158.428 166.339 158.844C166.515 159.244 166.603 159.66 166.603 160.092V160.356L164.755 160.62V160.524C164.755 160.492 164.755 160.468 164.755 160.452C164.771 160.42 164.779 160.388 164.779 160.356C164.779 159.748 164.547 159.26 164.083 158.892C163.635 158.524 162.979 158.34 162.115 158.34Z" fill="black"/>
<path d="M176.811 158.34C176.491 158.34 176.154 158.38 175.802 158.46C175.466 158.54 175.155 158.66 174.867 158.82C174.594 158.98 174.37 159.188 174.194 159.444C174.018 159.684 173.93 159.972 173.93 160.308C173.93 160.82 174.155 161.204 174.603 161.46C175.066 161.716 175.858 161.884 176.979 161.964C178.131 162.044 179.018 162.332 179.642 162.828C180.283 163.324 180.603 164.052 180.603 165.012C180.603 165.684 180.458 166.284 180.171 166.812C179.898 167.34 179.515 167.788 179.019 168.156C178.522 168.508 177.931 168.772 177.243 168.948C176.571 169.14 175.826 169.236 175.01 169.236C174.194 169.236 173.498 169.124 172.923 168.9C172.363 168.692 171.898 168.412 171.53 168.06C171.162 167.692 170.891 167.284 170.715 166.836C170.554 166.372 170.474 165.9 170.474 165.42C170.474 165.34 170.474 165.26 170.474 165.18C170.474 165.084 170.482 164.996 170.498 164.916L172.37 164.676C172.354 164.804 172.346 164.884 172.346 164.916C172.346 164.948 172.346 164.996 172.346 165.06C172.346 165.412 172.395 165.74 172.491 166.044C172.603 166.332 172.779 166.588 173.019 166.812C173.258 167.02 173.57 167.188 173.954 167.316C174.339 167.444 174.811 167.508 175.37 167.508C175.738 167.508 176.114 167.468 176.498 167.388C176.898 167.292 177.258 167.156 177.578 166.98C177.898 166.788 178.162 166.556 178.37 166.284C178.578 165.996 178.683 165.652 178.683 165.252C178.683 164.628 178.426 164.212 177.914 164.004C177.418 163.78 176.674 163.628 175.682 163.548C174.546 163.468 173.65 163.196 172.994 162.732C172.354 162.268 172.035 161.54 172.035 160.548C172.035 159.988 172.155 159.468 172.395 158.988C172.634 158.508 172.97 158.1 173.402 157.764C173.85 157.412 174.378 157.14 174.986 156.948C175.61 156.756 176.299 156.66 177.05 156.66C177.786 156.66 178.418 156.764 178.946 156.972C179.49 157.164 179.931 157.42 180.267 157.74C180.619 158.06 180.874 158.428 181.035 158.844C181.21 159.244 181.299 159.66 181.299 160.092V160.356L179.45 160.62V160.524C179.45 160.492 179.45 160.468 179.45 160.452C179.466 160.42 179.474 160.388 179.474 160.356C179.474 159.748 179.242 159.26 178.778 158.892C178.33 158.524 177.674 158.34 176.811 158.34Z" fill="black"/>
<path d="M191.506 158.34C191.186 158.34 190.85 158.38 190.498 158.46C190.162 158.54 189.85 158.66 189.562 158.82C189.29 158.98 189.066 159.188 188.89 159.444C188.714 159.684 188.626 159.972 188.626 160.308C188.626 160.82 188.85 161.204 189.298 161.46C189.762 161.716 190.554 161.884 191.674 161.964C192.826 162.044 193.714 162.332 194.338 162.828C194.978 163.324 195.298 164.052 195.298 165.012C195.298 165.684 195.154 166.284 194.866 166.812C194.594 167.34 194.21 167.788 193.714 168.156C193.218 168.508 192.626 168.772 191.938 168.948C191.266 169.14 190.522 169.236 189.706 169.236C188.89 169.236 188.194 169.124 187.618 168.9C187.058 168.692 186.594 168.412 186.226 168.06C185.858 167.692 185.586 167.284 185.41 166.836C185.25 166.372 185.17 165.9 185.17 165.42C185.17 165.34 185.17 165.26 185.17 165.18C185.17 165.084 185.178 164.996 185.194 164.916L187.066 164.676C187.05 164.804 187.042 164.884 187.042 164.916C187.042 164.948 187.042 164.996 187.042 165.06C187.042 165.412 187.09 165.74 187.186 166.044C187.298 166.332 187.474 166.588 187.714 166.812C187.954 167.02 188.266 167.188 188.65 167.316C189.034 167.444 189.506 167.508 190.066 167.508C190.434 167.508 190.81 167.468 191.194 167.388C191.594 167.292 191.954 167.156 192.274 166.98C192.594 166.788 192.858 166.556 193.066 166.284C193.274 165.996 193.378 165.652 193.378 165.252C193.378 164.628 193.122 164.212 192.61 164.004C192.114 163.78 191.37 163.628 190.378 163.548C189.242 163.468 188.346 163.196 187.69 162.732C187.05 162.268 186.73 161.54 186.73 160.548C186.73 159.988 186.85 159.468 187.09 158.988C187.33 158.508 187.666 158.1 188.098 157.764C188.546 157.412 189.074 157.14 189.682 156.948C190.306 156.756 190.994 156.66 191.746 156.66C192.482 156.66 193.114 156.764 193.642 156.972C194.186 157.164 194.626 157.42 194.962 157.74C195.314 158.06 195.57 158.428 195.73 158.844C195.906 159.244 195.994 159.66 195.994 160.092V160.356L194.146 160.62V160.524C194.146 160.492 194.146 160.468 194.146 160.452C194.162 160.42 194.17 160.388 194.17 160.356C194.17 159.748 193.938 159.26 193.474 158.892C193.026 158.524 192.37 158.34 191.506 158.34Z" fill="black"/>
<rect x="22" y="136" width="520" height="49" stroke="black" stroke-width="2"/>
<rect width="116.386" height="44" transform="translate(223.807 214)" fill="black"/>
<path d="M243.807 228.704H251.871V230.72H248.895L246.943 239.904H244.831L246.783 230.72H243.807V228.704Z" fill="white"/>
<path d="M254.852 233.856L254.692 233.76L253.428 234.688L252.356 233.248L253.636 232.288C253.881 232.107 254.137 231.973 254.404 231.888C254.681 231.792 254.942 231.744 255.188 231.744C255.614 231.744 255.988 231.861 256.308 232.096C256.628 232.331 256.82 232.661 256.884 233.088H257.172C257.385 232.64 257.684 232.304 258.068 232.08C258.452 231.856 258.884 231.744 259.364 231.744C259.972 231.744 260.462 231.936 260.836 232.32C261.22 232.693 261.412 233.216 261.412 233.888C261.412 234.027 261.401 234.165 261.38 234.304C261.369 234.432 261.342 234.592 261.3 234.784L261.22 235.136L259.076 235.296L259.124 235.072C259.156 234.912 259.172 234.768 259.172 234.64C259.172 234.331 259.086 234.085 258.916 233.904C258.745 233.723 258.489 233.632 258.148 233.632C257.721 233.632 257.38 233.776 257.124 234.064C256.878 234.352 256.697 234.763 256.58 235.296L256.004 237.984H257.924V239.904H252.452V237.984H253.988L254.852 233.856Z" fill="white"/>
<path d="M269.465 238L269.625 238.112L270.393 237.568L271.401 239.072L270.457 239.712C270.041 239.989 269.603 240.128 269.145 240.128C268.739 240.128 268.377 240.016 268.057 239.792C267.737 239.568 267.534 239.253 267.449 238.848H267.161C267.065 239.029 266.953 239.2 266.825 239.36C266.697 239.509 266.537 239.643 266.345 239.76C266.163 239.867 265.945 239.952 265.689 240.016C265.443 240.091 265.15 240.128 264.809 240.128C264.393 240.128 264.009 240.048 263.657 239.888C263.305 239.717 262.995 239.488 262.729 239.2C262.473 238.901 262.27 238.555 262.121 238.16C261.971 237.765 261.897 237.333 261.897 236.864C261.897 236.149 261.993 235.483 262.185 234.864C262.377 234.245 262.654 233.707 263.017 233.248C263.379 232.779 263.822 232.411 264.345 232.144C264.878 231.877 265.475 231.744 266.137 231.744C266.723 231.744 267.187 231.861 267.529 232.096C267.87 232.331 268.099 232.64 268.217 233.024H268.505L268.729 231.968H270.745L269.465 238ZM265.593 238.208C265.977 238.208 266.318 238.133 266.617 237.984C266.915 237.824 267.161 237.616 267.353 237.36C267.555 237.104 267.71 236.805 267.817 236.464C267.923 236.112 267.977 235.744 267.977 235.36C267.977 234.859 267.833 234.453 267.545 234.144C267.257 233.824 266.873 233.664 266.393 233.664C266.009 233.664 265.667 233.744 265.369 233.904C265.07 234.053 264.819 234.256 264.617 234.512C264.414 234.768 264.259 235.072 264.153 235.424C264.046 235.765 263.993 236.128 263.993 236.512C263.993 236.96 264.121 237.355 264.377 237.696C264.643 238.037 265.049 238.208 265.593 238.208Z" fill="white"/>
<path d="M277.662 235.296C277.704 235.093 277.726 234.923 277.726 234.784C277.726 234.4 277.614 234.101 277.39 233.888C277.166 233.675 276.862 233.568 276.478 233.568C275.998 233.568 275.587 233.739 275.246 234.08C274.904 234.421 274.675 234.88 274.558 235.456L273.614 239.904H271.598L273.278 231.968H275.214L274.942 233.248H275.23C275.486 232.715 275.822 232.331 276.238 232.096C276.664 231.861 277.134 231.744 277.646 231.744C278.318 231.744 278.851 231.947 279.246 232.352C279.651 232.757 279.854 233.328 279.854 234.064C279.854 234.235 279.843 234.395 279.822 234.544C279.8 234.683 279.774 234.837 279.742 235.008L279.102 238L279.262 238.112L279.95 237.632L280.958 239.136L280.094 239.712C279.688 239.989 279.256 240.128 278.798 240.128C278.563 240.128 278.339 240.085 278.126 240C277.912 239.925 277.726 239.819 277.566 239.68C277.406 239.531 277.278 239.355 277.182 239.152C277.086 238.939 277.038 238.699 277.038 238.432C277.038 238.293 277.054 238.133 277.086 237.952L277.662 235.296Z" fill="white"/>
<path d="M286.546 233.568C286.429 233.568 286.306 233.584 286.178 233.616C286.061 233.637 285.949 233.675 285.842 233.728C285.736 233.781 285.645 233.856 285.57 233.952C285.506 234.037 285.474 234.144 285.474 234.272C285.474 234.496 285.602 234.661 285.858 234.768C286.114 234.875 286.552 234.965 287.17 235.04C287.864 235.125 288.424 235.339 288.85 235.68C289.277 236.011 289.49 236.491 289.49 237.12C289.49 238.059 289.16 238.795 288.498 239.328C287.848 239.861 286.941 240.128 285.778 240.128C285.192 240.128 284.685 240.043 284.258 239.872C283.842 239.701 283.496 239.488 283.218 239.232C282.952 238.976 282.749 238.693 282.61 238.384C282.472 238.075 282.397 237.781 282.386 237.504L284.37 237.024C284.402 237.376 284.552 237.68 284.818 237.936C285.085 238.181 285.49 238.304 286.034 238.304C286.408 238.304 286.733 238.245 287.01 238.128C287.288 238.011 287.426 237.803 287.426 237.504C287.426 237.28 287.32 237.104 287.106 236.976C286.893 236.837 286.498 236.741 285.922 236.688C285.154 236.624 284.541 236.405 284.082 236.032C283.634 235.659 283.41 235.163 283.41 234.544C283.41 234.096 283.501 233.696 283.682 233.344C283.874 232.992 284.125 232.699 284.434 232.464C284.744 232.229 285.101 232.053 285.506 231.936C285.922 231.808 286.354 231.744 286.802 231.744C287.357 231.744 287.821 231.819 288.194 231.968C288.568 232.117 288.872 232.304 289.106 232.528C289.341 232.752 289.512 232.997 289.618 233.264C289.736 233.52 289.81 233.76 289.842 233.984L287.89 234.496C287.848 234.208 287.714 233.984 287.49 233.824C287.266 233.653 286.952 233.568 286.546 233.568Z" fill="white"/>
<path d="M295.015 233.888H292.759V231.968H295.431L295.783 230.336C295.826 230.112 295.911 229.899 296.039 229.696C296.167 229.493 296.317 229.323 296.487 229.184C296.669 229.035 296.866 228.917 297.079 228.832C297.303 228.747 297.527 228.704 297.751 228.704H300.567V230.624H298.167C297.879 230.624 297.703 230.784 297.639 231.104L297.447 231.968H300.151V233.888H297.031L295.255 241.824C295.138 242.347 294.919 242.72 294.599 242.944C294.279 243.179 293.933 243.296 293.559 243.296C293.25 243.296 292.946 243.221 292.647 243.072C292.359 242.933 292.135 242.731 291.975 242.464L290.967 240.848L292.519 239.904L293.223 241.12L293.415 241.088L295.015 233.888Z" fill="white"/>
<path d="M303.628 236.592C303.607 236.677 303.596 236.768 303.596 236.864C303.596 237.248 303.74 237.568 304.028 237.824C304.327 238.08 304.716 238.208 305.196 238.208C305.698 238.208 306.098 238.117 306.396 237.936C306.695 237.755 306.924 237.541 307.084 237.296L308.684 238.304C308.556 238.517 308.386 238.731 308.172 238.944C307.97 239.157 307.714 239.355 307.404 239.536C307.106 239.707 306.748 239.845 306.332 239.952C305.927 240.069 305.452 240.128 304.908 240.128C304.418 240.128 303.964 240.053 303.548 239.904C303.143 239.744 302.791 239.531 302.492 239.264C302.204 238.987 301.975 238.661 301.804 238.288C301.644 237.904 301.564 237.483 301.564 237.024C301.564 236.299 301.671 235.616 301.884 234.976C302.108 234.336 302.428 233.776 302.844 233.296C303.26 232.816 303.772 232.437 304.38 232.16C304.988 231.883 305.687 231.744 306.476 231.744C307.031 231.744 307.511 231.835 307.916 232.016C308.332 232.187 308.674 232.421 308.94 232.72C309.207 233.008 309.404 233.339 309.532 233.712C309.671 234.085 309.74 234.469 309.74 234.864C309.74 234.992 309.73 235.125 309.708 235.264C309.698 235.392 309.671 235.563 309.628 235.776L309.452 236.592H303.628ZM306.156 233.568C305.655 233.568 305.218 233.696 304.844 233.952C304.482 234.197 304.21 234.501 304.028 234.864H307.772C307.772 234.459 307.644 234.144 307.388 233.92C307.143 233.685 306.732 233.568 306.156 233.568Z" fill="white"/>
<path d="M313.633 233.856L313.473 233.76L312.209 234.688L311.137 233.248L312.417 232.288C312.662 232.107 312.918 231.973 313.185 231.888C313.462 231.792 313.724 231.744 313.969 231.744C314.396 231.744 314.769 231.861 315.089 232.096C315.409 232.331 315.601 232.661 315.665 233.088H315.953C316.166 232.64 316.465 232.304 316.849 232.08C317.233 231.856 317.665 231.744 318.145 231.744C318.753 231.744 319.244 231.936 319.617 232.32C320.001 232.693 320.193 233.216 320.193 233.888C320.193 234.027 320.182 234.165 320.161 234.304C320.15 234.432 320.124 234.592 320.081 234.784L320.001 235.136L317.857 235.296L317.905 235.072C317.937 234.912 317.953 234.768 317.953 234.64C317.953 234.331 317.868 234.085 317.697 233.904C317.526 233.723 317.27 233.632 316.929 233.632C316.502 233.632 316.161 233.776 315.905 234.064C315.66 234.352 315.478 234.763 315.361 235.296L314.785 237.984H316.705V239.904H311.233V237.984H312.769L313.633 233.856Z" fill="white"/>
<rect x="1" y="1" width="562" height="278" stroke="black" stroke-width="2"/>
</svg>
