<svg width="560" height="315" viewBox="0 0 560 315" fill="none" xmlns="http://www.w3.org/2000/svg">
<rect width="560" height="315" fill="#F2F2F2"/>
<rect width="245" height="73" transform="translate(20 20)" fill="white"/>
<circle cx="70.5" cy="60.5" r="25.5" fill="#BAFF62" stroke="black" stroke-width="2"/>
<circle cx="66.5" cy="56.5" r="25.5" fill="#BAFF62" stroke="black" stroke-width="2"/>
<path d="M69.4608 66.9556H72.1301V43H69.4608V52.6507H69.0501C68.4569 51.624 67.6356 50.8483 66.5861 50.3236C65.5366 49.776 64.3959 49.5022 63.1639 49.5022C62.1144 49.5022 61.122 49.6961 60.1866 50.084C59.2512 50.4719 58.4298 51.0308 57.7226 51.7609C56.9925 52.491 56.4221 53.3921 56.0115 54.4644C55.578 55.5367 55.3612 56.7573 55.3612 58.1262V58.8107C55.3612 60.2024 55.5666 61.4344 55.9772 62.5067C56.3879 63.579 56.9583 64.4801 57.6884 65.2102C58.3956 65.9403 59.2284 66.4993 60.1866 66.8871C61.1448 67.2521 62.1601 67.4347 63.2323 67.4347C63.7799 67.4347 64.3389 67.3662 64.9092 67.2293C65.4796 67.1153 66.0272 66.9327 66.5519 66.6818C67.0538 66.408 67.5215 66.0886 67.955 65.7236C68.3885 65.3357 68.7535 64.8794 69.0501 64.3547H69.4608V66.9556ZM63.7799 64.9022C62.9586 64.9022 62.2057 64.7653 61.5212 64.4916C60.8368 64.195 60.2436 63.7843 59.7417 63.2596C59.2169 62.7348 58.8177 62.096 58.5439 61.3431C58.2473 60.5902 58.099 59.7461 58.099 58.8107V58.1262C58.099 57.2136 58.2473 56.3923 58.5439 55.6622C58.8177 54.9093 59.2169 54.2705 59.7417 53.7458C60.2436 53.1982 60.8482 52.7761 61.5555 52.4796C62.2399 52.183 62.9814 52.0347 63.7799 52.0347C64.5784 52.0347 65.3199 52.1944 66.0043 52.5138C66.6888 52.8104 67.2934 53.2324 67.8181 53.78C68.3201 54.3276 68.7193 54.9892 69.0159 55.7649C69.3125 56.5178 69.4608 57.3505 69.4608 58.2631V58.6738C69.4608 59.6092 69.3125 60.4647 69.0159 61.2404C68.7193 61.9933 68.3201 62.6436 67.8181 63.1911C67.2934 63.7387 66.6888 64.1607 66.0043 64.4573C65.3199 64.7539 64.5784 64.9022 63.7799 64.9022Z" fill="black"/>
<rect x="20" y="20" width="93" height="73" stroke="black" stroke-width="2"/>
<rect x="113" y="20" width="152" height="73" fill="#BAFF62"/>
<path d="M144.952 60.472V63.496H133.144V60.184C133.144 59.304 133.272 58.552 133.528 57.928C133.8 57.304 134.176 56.776 134.656 56.344C135.152 55.912 135.744 55.56 136.432 55.288C137.12 55 137.896 54.76 138.76 54.568C139.4 54.424 139.92 54.264 140.32 54.088C140.736 53.896 141.064 53.688 141.304 53.464C141.544 53.224 141.704 52.968 141.784 52.696C141.88 52.408 141.928 52.088 141.928 51.736C141.928 51.064 141.68 50.504 141.184 50.056C140.704 49.608 140.032 49.384 139.168 49.384C138.256 49.384 137.528 49.664 136.984 50.224C136.44 50.768 136.168 51.528 136.168 52.504V53.56H133V52.216C133 51.432 133.136 50.688 133.408 49.984C133.696 49.264 134.096 48.64 134.608 48.112C135.136 47.568 135.776 47.144 136.528 46.84C137.28 46.52 138.128 46.36 139.072 46.36C140.08 46.36 140.96 46.512 141.712 46.816C142.464 47.104 143.088 47.488 143.584 47.968C144.096 48.448 144.472 49.008 144.712 49.648C144.968 50.272 145.096 50.92 145.096 51.592V51.88C145.096 53.288 144.696 54.456 143.896 55.384C143.112 56.312 141.824 56.984 140.032 57.4C139.28 57.576 138.656 57.76 138.16 57.952C137.68 58.128 137.304 58.328 137.032 58.552C136.76 58.776 136.568 59.024 136.456 59.296C136.36 59.552 136.312 59.848 136.312 60.184V60.472H144.952Z" fill="black"/>
<path d="M151.607 55.096C151.607 54.552 151.807 54.08 152.207 53.68C152.607 53.28 153.079 53.08 153.623 53.08C154.167 53.08 154.639 53.28 155.039 53.68C155.439 54.08 155.639 54.552 155.639 55.096C155.639 55.64 155.439 56.112 155.039 56.512C154.639 56.912 154.167 57.112 153.623 57.112C153.079 57.112 152.607 56.912 152.207 56.512C151.807 56.112 151.607 55.64 151.607 55.096ZM147.431 53.224C147.431 51.048 147.975 49.36 149.063 48.16C150.167 46.96 151.687 46.36 153.623 46.36C155.559 46.36 157.071 46.96 158.159 48.16C159.263 49.36 159.815 51.048 159.815 53.224V56.968C159.815 59.208 159.263 60.912 158.159 62.08C157.071 63.248 155.559 63.832 153.623 63.832C151.687 63.832 150.167 63.248 149.063 62.08C147.975 60.912 147.431 59.208 147.431 56.968V53.224ZM153.623 60.952C154.199 60.952 154.679 60.864 155.063 60.688C155.447 60.496 155.759 60.232 155.999 59.896C156.239 59.56 156.407 59.16 156.503 58.696C156.599 58.232 156.647 57.72 156.647 57.16V53.032C156.647 52.504 156.591 52.008 156.479 51.544C156.367 51.08 156.191 50.68 155.951 50.344C155.711 50.008 155.399 49.744 155.015 49.552C154.631 49.344 154.167 49.24 153.623 49.24C153.079 49.24 152.615 49.344 152.231 49.552C151.847 49.744 151.535 50.008 151.295 50.344C151.055 50.68 150.879 51.08 150.767 51.544C150.655 52.008 150.599 52.504 150.599 53.032V57.16C150.599 57.72 150.647 58.232 150.743 58.696C150.839 59.16 151.007 59.56 151.247 59.896C151.487 60.232 151.799 60.496 152.183 60.688C152.567 60.864 153.047 60.952 153.623 60.952Z" fill="black"/>
<path d="M162.559 56.008V46.696H173.791V49.72H165.727V54.28H166.159C166.383 53.656 166.799 53.12 167.407 52.672C168.031 52.208 168.863 51.976 169.903 51.976C170.687 51.976 171.391 52.112 172.015 52.384C172.639 52.656 173.167 53.032 173.599 53.512C174.031 53.992 174.359 54.568 174.583 55.24C174.823 55.912 174.943 56.648 174.943 57.448V57.592C174.943 58.44 174.799 59.24 174.511 59.992C174.239 60.744 173.831 61.408 173.287 61.984C172.759 62.544 172.103 62.992 171.319 63.328C170.535 63.664 169.631 63.832 168.607 63.832C167.583 63.832 166.679 63.696 165.895 63.424C165.111 63.136 164.447 62.744 163.903 62.248C163.375 61.736 162.967 61.136 162.679 60.448C162.407 59.744 162.271 58.984 162.271 58.168V57.592H165.439V57.88C165.439 58.728 165.695 59.432 166.207 59.992C166.735 60.536 167.503 60.808 168.511 60.808C169.519 60.808 170.311 60.536 170.887 59.992C171.479 59.448 171.775 58.696 171.775 57.736C171.775 56.824 171.559 56.144 171.127 55.696C170.695 55.232 170.127 55 169.423 55C168.959 55 168.583 55.104 168.295 55.312C168.007 55.504 167.823 55.736 167.743 56.008H162.559Z" fill="black"/>
<path d="M180.734 61.552C180.734 61.248 180.79 60.96 180.902 60.688C181.03 60.4 181.198 60.16 181.406 59.968C181.614 59.76 181.854 59.6 182.126 59.488C182.398 59.36 182.694 59.296 183.014 59.296C183.318 59.296 183.606 59.36 183.878 59.488C184.166 59.6 184.414 59.76 184.622 59.968C184.83 60.16 184.99 60.4 185.102 60.688C185.23 60.96 185.294 61.248 185.294 61.552V64.48C185.294 65.088 185.086 65.6 184.67 66.016C184.27 66.432 183.766 66.64 183.158 66.64H181.622V64.768H182.774C183.206 64.768 183.422 64.528 183.422 64.048V63.76C183.294 63.808 183.158 63.832 183.014 63.832C182.694 63.832 182.398 63.768 182.126 63.64C181.854 63.528 181.614 63.368 181.406 63.16C181.198 62.952 181.03 62.712 180.902 62.44C180.79 62.168 180.734 61.872 180.734 61.552Z" fill="black"/>
<path d="M195.693 55.096C195.693 54.552 195.893 54.08 196.293 53.68C196.693 53.28 197.165 53.08 197.709 53.08C198.253 53.08 198.725 53.28 199.125 53.68C199.525 54.08 199.725 54.552 199.725 55.096C199.725 55.64 199.525 56.112 199.125 56.512C198.725 56.912 198.253 57.112 197.709 57.112C197.165 57.112 196.693 56.912 196.293 56.512C195.893 56.112 195.693 55.64 195.693 55.096ZM191.517 53.224C191.517 51.048 192.061 49.36 193.149 48.16C194.253 46.96 195.773 46.36 197.709 46.36C199.645 46.36 201.157 46.96 202.245 48.16C203.349 49.36 203.901 51.048 203.901 53.224V56.968C203.901 59.208 203.349 60.912 202.245 62.08C201.157 63.248 199.645 63.832 197.709 63.832C195.773 63.832 194.253 63.248 193.149 62.08C192.061 60.912 191.517 59.208 191.517 56.968V53.224ZM197.709 60.952C198.285 60.952 198.765 60.864 199.149 60.688C199.533 60.496 199.845 60.232 200.085 59.896C200.325 59.56 200.493 59.16 200.589 58.696C200.685 58.232 200.733 57.72 200.733 57.16V53.032C200.733 52.504 200.677 52.008 200.565 51.544C200.453 51.08 200.277 50.68 200.037 50.344C199.797 50.008 199.485 49.744 199.101 49.552C198.717 49.344 198.253 49.24 197.709 49.24C197.165 49.24 196.701 49.344 196.317 49.552C195.933 49.744 195.621 50.008 195.381 50.344C195.141 50.68 194.965 51.08 194.853 51.544C194.741 52.008 194.685 52.504 194.685 53.032V57.16C194.685 57.72 194.733 58.232 194.829 58.696C194.925 59.16 195.093 59.56 195.333 59.896C195.573 60.232 195.885 60.496 196.269 60.688C196.653 60.864 197.133 60.952 197.709 60.952Z" fill="black"/>
<path d="M210.389 55.096C210.389 54.552 210.589 54.08 210.989 53.68C211.389 53.28 211.861 53.08 212.405 53.08C212.949 53.08 213.421 53.28 213.821 53.68C214.221 54.08 214.421 54.552 214.421 55.096C214.421 55.64 214.221 56.112 213.821 56.512C213.421 56.912 212.949 57.112 212.405 57.112C211.861 57.112 211.389 56.912 210.989 56.512C210.589 56.112 210.389 55.64 210.389 55.096ZM206.213 53.224C206.213 51.048 206.757 49.36 207.845 48.16C208.949 46.96 210.469 46.36 212.405 46.36C214.341 46.36 215.853 46.96 216.941 48.16C218.045 49.36 218.597 51.048 218.597 53.224V56.968C218.597 59.208 218.045 60.912 216.941 62.08C215.853 63.248 214.341 63.832 212.405 63.832C210.469 63.832 208.949 63.248 207.845 62.08C206.757 60.912 206.213 59.208 206.213 56.968V53.224ZM212.405 60.952C212.981 60.952 213.461 60.864 213.845 60.688C214.229 60.496 214.541 60.232 214.781 59.896C215.021 59.56 215.189 59.16 215.285 58.696C215.381 58.232 215.429 57.72 215.429 57.16V53.032C215.429 52.504 215.373 52.008 215.261 51.544C215.149 51.08 214.973 50.68 214.733 50.344C214.493 50.008 214.181 49.744 213.797 49.552C213.413 49.344 212.949 49.24 212.405 49.24C211.861 49.24 211.397 49.344 211.013 49.552C210.629 49.744 210.317 50.008 210.077 50.344C209.837 50.68 209.661 51.08 209.549 51.544C209.437 52.008 209.381 52.504 209.381 53.032V57.16C209.381 57.72 209.429 58.232 209.525 58.696C209.621 59.16 209.789 59.56 210.029 59.896C210.269 60.232 210.581 60.496 210.965 60.688C211.349 60.864 211.829 60.952 212.405 60.952Z" fill="black"/>
<path d="M225.084 55.096C225.084 54.552 225.284 54.08 225.684 53.68C226.084 53.28 226.556 53.08 227.1 53.08C227.644 53.08 228.116 53.28 228.516 53.68C228.916 54.08 229.116 54.552 229.116 55.096C229.116 55.64 228.916 56.112 228.516 56.512C228.116 56.912 227.644 57.112 227.1 57.112C226.556 57.112 226.084 56.912 225.684 56.512C225.284 56.112 225.084 55.64 225.084 55.096ZM220.908 53.224C220.908 51.048 221.452 49.36 222.54 48.16C223.644 46.96 225.164 46.36 227.1 46.36C229.036 46.36 230.548 46.96 231.636 48.16C232.74 49.36 233.292 51.048 233.292 53.224V56.968C233.292 59.208 232.74 60.912 231.636 62.08C230.548 63.248 229.036 63.832 227.1 63.832C225.164 63.832 223.644 63.248 222.54 62.08C221.452 60.912 220.908 59.208 220.908 56.968V53.224ZM227.1 60.952C227.676 60.952 228.156 60.864 228.54 60.688C228.924 60.496 229.236 60.232 229.476 59.896C229.716 59.56 229.884 59.16 229.98 58.696C230.076 58.232 230.124 57.72 230.124 57.16V53.032C230.124 52.504 230.068 52.008 229.956 51.544C229.844 51.08 229.668 50.68 229.428 50.344C229.188 50.008 228.876 49.744 228.492 49.552C228.108 49.344 227.644 49.24 227.1 49.24C226.556 49.24 226.092 49.344 225.708 49.552C225.324 49.744 225.012 50.008 224.772 50.344C224.532 50.68 224.356 51.08 224.244 51.544C224.132 52.008 224.076 52.504 224.076 53.032V57.16C224.076 57.72 224.124 58.232 224.22 58.696C224.316 59.16 224.484 59.56 224.724 59.896C224.964 60.232 225.276 60.496 225.66 60.688C226.044 60.864 226.524 60.952 227.1 60.952Z" fill="black"/>
<rect x="304" y="29" width="243" height="119" fill="white" stroke="black" stroke-width="2"/>
<rect x="113" y="20" width="152" height="73" stroke="black" stroke-width="2"/>
<rect x="20" y="123" width="245" height="4" fill="#CBCBCB"/>
<rect x="20" y="137" width="179" height="4" fill="#CBCBCB"/>
<rect x="296" y="21" width="243" height="119" fill="white"/>
<path d="M441.66 44.112V47.136H429.852V43.824C429.852 42.944 429.98 42.192 430.236 41.568C430.508 40.944 430.884 40.416 431.364 39.984C431.86 39.552 432.452 39.2 433.14 38.928C433.828 38.64 434.604 38.4 435.468 38.208C436.108 38.064 436.628 37.904 437.028 37.728C437.444 37.536 437.772 37.328 438.012 37.104C438.252 36.864 438.412 36.608 438.492 36.336C438.588 36.048 438.636 35.728 438.636 35.376C438.636 34.704 438.388 34.144 437.892 33.696C437.412 33.248 436.74 33.024 435.876 33.024C434.964 33.024 434.236 33.304 433.692 33.864C433.148 34.408 432.876 35.168 432.876 36.144V37.2H429.708V35.856C429.708 35.072 429.844 34.328 430.116 33.624C430.404 32.904 430.804 32.28 431.316 31.752C431.844 31.208 432.484 30.784 433.236 30.48C433.988 30.16 434.836 30 435.78 30C436.788 30 437.668 30.152 438.42 30.456C439.172 30.744 439.796 31.128 440.292 31.608C440.804 32.088 441.18 32.648 441.42 33.288C441.676 33.912 441.804 34.56 441.804 35.232V35.52C441.804 36.928 441.404 38.096 440.604 39.024C439.82 39.952 438.532 40.624 436.74 41.04C435.988 41.216 435.364 41.4 434.868 41.592C434.388 41.768 434.012 41.968 433.74 42.192C433.468 42.416 433.276 42.664 433.164 42.936C433.068 43.192 433.02 43.488 433.02 43.824V44.112H441.66Z" fill="black"/>
<path d="M448.315 38.736C448.315 38.192 448.515 37.72 448.915 37.32C449.315 36.92 449.787 36.72 450.331 36.72C450.875 36.72 451.347 36.92 451.747 37.32C452.147 37.72 452.347 38.192 452.347 38.736C452.347 39.28 452.147 39.752 451.747 40.152C451.347 40.552 450.875 40.752 450.331 40.752C449.787 40.752 449.315 40.552 448.915 40.152C448.515 39.752 448.315 39.28 448.315 38.736ZM444.139 36.864C444.139 34.688 444.683 33 445.771 31.8C446.875 30.6 448.395 30 450.331 30C452.267 30 453.779 30.6 454.867 31.8C455.971 33 456.523 34.688 456.523 36.864V40.608C456.523 42.848 455.971 44.552 454.867 45.72C453.779 46.888 452.267 47.472 450.331 47.472C448.395 47.472 446.875 46.888 445.771 45.72C444.683 44.552 444.139 42.848 444.139 40.608V36.864ZM450.331 44.592C450.907 44.592 451.387 44.504 451.771 44.328C452.155 44.136 452.467 43.872 452.707 43.536C452.947 43.2 453.115 42.8 453.211 42.336C453.307 41.872 453.355 41.36 453.355 40.8V36.672C453.355 36.144 453.299 35.648 453.187 35.184C453.075 34.72 452.899 34.32 452.659 33.984C452.419 33.648 452.107 33.384 451.723 33.192C451.339 32.984 450.875 32.88 450.331 32.88C449.787 32.88 449.323 32.984 448.939 33.192C448.555 33.384 448.243 33.648 448.003 33.984C447.763 34.32 447.587 34.72 447.475 35.184C447.363 35.648 447.307 36.144 447.307 36.672V40.8C447.307 41.36 447.355 41.872 447.451 42.336C447.547 42.8 447.715 43.2 447.955 43.536C448.195 43.872 448.507 44.136 448.891 44.328C449.275 44.504 449.755 44.592 450.331 44.592Z" fill="black"/>
<path d="M459.267 39.648V30.336H470.499V33.36H462.435V37.92H462.867C463.091 37.296 463.507 36.76 464.115 36.312C464.739 35.848 465.571 35.616 466.611 35.616C467.395 35.616 468.099 35.752 468.723 36.024C469.347 36.296 469.875 36.672 470.307 37.152C470.739 37.632 471.067 38.208 471.291 38.88C471.531 39.552 471.651 40.288 471.651 41.088V41.232C471.651 42.08 471.507 42.88 471.219 43.632C470.947 44.384 470.539 45.048 469.995 45.624C469.467 46.184 468.811 46.632 468.027 46.968C467.243 47.304 466.339 47.472 465.315 47.472C464.291 47.472 463.387 47.336 462.603 47.064C461.819 46.776 461.155 46.384 460.611 45.888C460.083 45.376 459.675 44.776 459.387 44.088C459.115 43.384 458.979 42.624 458.979 41.808V41.232H462.147V41.52C462.147 42.368 462.403 43.072 462.915 43.632C463.443 44.176 464.211 44.448 465.219 44.448C466.227 44.448 467.019 44.176 467.595 43.632C468.187 43.088 468.483 42.336 468.483 41.376C468.483 40.464 468.267 39.784 467.835 39.336C467.403 38.872 466.835 38.64 466.131 38.64C465.667 38.64 465.291 38.744 465.003 38.952C464.715 39.144 464.531 39.376 464.451 39.648H459.267Z" fill="black"/>
<path d="M477.442 45.192C477.442 44.888 477.498 44.6 477.61 44.328C477.738 44.04 477.906 43.8 478.114 43.608C478.322 43.4 478.562 43.24 478.834 43.128C479.106 43 479.402 42.936 479.722 42.936C480.026 42.936 480.314 43 480.586 43.128C480.874 43.24 481.122 43.4 481.33 43.608C481.538 43.8 481.698 44.04 481.81 44.328C481.938 44.6 482.002 44.888 482.002 45.192V48.12C482.002 48.728 481.794 49.24 481.378 49.656C480.978 50.072 480.474 50.28 479.866 50.28H478.33V48.408H479.482C479.914 48.408 480.13 48.168 480.13 47.688V47.4C480.002 47.448 479.866 47.472 479.722 47.472C479.402 47.472 479.106 47.408 478.834 47.28C478.562 47.168 478.322 47.008 478.114 46.8C477.906 46.592 477.738 46.352 477.61 46.08C477.498 45.808 477.442 45.512 477.442 45.192Z" fill="black"/>
<path d="M492.401 38.736C492.401 38.192 492.601 37.72 493.001 37.32C493.401 36.92 493.873 36.72 494.417 36.72C494.961 36.72 495.433 36.92 495.833 37.32C496.233 37.72 496.433 38.192 496.433 38.736C496.433 39.28 496.233 39.752 495.833 40.152C495.433 40.552 494.961 40.752 494.417 40.752C493.873 40.752 493.401 40.552 493.001 40.152C492.601 39.752 492.401 39.28 492.401 38.736ZM488.225 36.864C488.225 34.688 488.769 33 489.857 31.8C490.961 30.6 492.481 30 494.417 30C496.353 30 497.865 30.6 498.953 31.8C500.057 33 500.609 34.688 500.609 36.864V40.608C500.609 42.848 500.057 44.552 498.953 45.72C497.865 46.888 496.353 47.472 494.417 47.472C492.481 47.472 490.961 46.888 489.857 45.72C488.769 44.552 488.225 42.848 488.225 40.608V36.864ZM494.417 44.592C494.993 44.592 495.473 44.504 495.857 44.328C496.241 44.136 496.553 43.872 496.793 43.536C497.033 43.2 497.201 42.8 497.297 42.336C497.393 41.872 497.441 41.36 497.441 40.8V36.672C497.441 36.144 497.385 35.648 497.273 35.184C497.161 34.72 496.985 34.32 496.745 33.984C496.505 33.648 496.193 33.384 495.809 33.192C495.425 32.984 494.961 32.88 494.417 32.88C493.873 32.88 493.409 32.984 493.025 33.192C492.641 33.384 492.329 33.648 492.089 33.984C491.849 34.32 491.673 34.72 491.561 35.184C491.449 35.648 491.393 36.144 491.393 36.672V40.8C491.393 41.36 491.441 41.872 491.537 42.336C491.633 42.8 491.801 43.2 492.041 43.536C492.281 43.872 492.593 44.136 492.977 44.328C493.361 44.504 493.841 44.592 494.417 44.592Z" fill="black"/>
<path d="M507.097 38.736C507.097 38.192 507.297 37.72 507.697 37.32C508.097 36.92 508.569 36.72 509.113 36.72C509.657 36.72 510.129 36.92 510.529 37.32C510.929 37.72 511.129 38.192 511.129 38.736C511.129 39.28 510.929 39.752 510.529 40.152C510.129 40.552 509.657 40.752 509.113 40.752C508.569 40.752 508.097 40.552 507.697 40.152C507.297 39.752 507.097 39.28 507.097 38.736ZM502.921 36.864C502.921 34.688 503.465 33 504.553 31.8C505.657 30.6 507.177 30 509.113 30C511.049 30 512.561 30.6 513.649 31.8C514.753 33 515.305 34.688 515.305 36.864V40.608C515.305 42.848 514.753 44.552 513.649 45.72C512.561 46.888 511.049 47.472 509.113 47.472C507.177 47.472 505.657 46.888 504.553 45.72C503.465 44.552 502.921 42.848 502.921 40.608V36.864ZM509.113 44.592C509.689 44.592 510.169 44.504 510.553 44.328C510.937 44.136 511.249 43.872 511.489 43.536C511.729 43.2 511.897 42.8 511.993 42.336C512.089 41.872 512.137 41.36 512.137 40.8V36.672C512.137 36.144 512.081 35.648 511.969 35.184C511.857 34.72 511.681 34.32 511.441 33.984C511.201 33.648 510.889 33.384 510.505 33.192C510.121 32.984 509.657 32.88 509.113 32.88C508.569 32.88 508.105 32.984 507.721 33.192C507.337 33.384 507.025 33.648 506.785 33.984C506.545 34.32 506.369 34.72 506.257 35.184C506.145 35.648 506.089 36.144 506.089 36.672V40.8C506.089 41.36 506.137 41.872 506.233 42.336C506.329 42.8 506.497 43.2 506.737 43.536C506.977 43.872 507.289 44.136 507.673 44.328C508.057 44.504 508.537 44.592 509.113 44.592Z" fill="black"/>
<path d="M521.792 38.736C521.792 38.192 521.992 37.72 522.392 37.32C522.792 36.92 523.264 36.72 523.808 36.72C524.352 36.72 524.824 36.92 525.224 37.32C525.624 37.72 525.824 38.192 525.824 38.736C525.824 39.28 525.624 39.752 525.224 40.152C524.824 40.552 524.352 40.752 523.808 40.752C523.264 40.752 522.792 40.552 522.392 40.152C521.992 39.752 521.792 39.28 521.792 38.736ZM517.616 36.864C517.616 34.688 518.16 33 519.248 31.8C520.352 30.6 521.872 30 523.808 30C525.744 30 527.256 30.6 528.344 31.8C529.448 33 530 34.688 530 36.864V40.608C530 42.848 529.448 44.552 528.344 45.72C527.256 46.888 525.744 47.472 523.808 47.472C521.872 47.472 520.352 46.888 519.248 45.72C518.16 44.552 517.616 42.848 517.616 40.608V36.864ZM523.808 44.592C524.384 44.592 524.864 44.504 525.248 44.328C525.632 44.136 525.944 43.872 526.184 43.536C526.424 43.2 526.592 42.8 526.688 42.336C526.784 41.872 526.832 41.36 526.832 40.8V36.672C526.832 36.144 526.776 35.648 526.664 35.184C526.552 34.72 526.376 34.32 526.136 33.984C525.896 33.648 525.584 33.384 525.2 33.192C524.816 32.984 524.352 32.88 523.808 32.88C523.264 32.88 522.8 32.984 522.416 33.192C522.032 33.384 521.72 33.648 521.48 33.984C521.24 34.32 521.064 34.72 520.952 35.184C520.84 35.648 520.784 36.144 520.784 36.672V40.8C520.784 41.36 520.832 41.872 520.928 42.336C521.024 42.8 521.192 43.2 521.432 43.536C521.672 43.872 521.984 44.136 522.368 44.328C522.752 44.504 523.232 44.592 523.808 44.592Z" fill="black"/>
<rect x="305" y="78.2025" width="225" height="8" fill="#BAFF62" stroke="black" stroke-width="2"/>
<path d="M480.799 127.755V115.979H480.388L478.879 121.543H476V121.264L477.92 114.45H483.816V127.755H487.792V130.675H476.274V127.755H480.799Z" fill="black"/>
<path d="M493.832 122.562C493.832 122.037 494.023 121.581 494.404 121.195C494.785 120.809 495.234 120.615 495.752 120.615C496.27 120.615 496.72 120.809 497.1 121.195C497.481 121.581 497.672 122.037 497.672 122.562C497.672 123.088 497.481 123.544 497.1 123.93C496.72 124.316 496.27 124.51 495.752 124.51C495.234 124.51 494.785 124.316 494.404 123.93C494.023 123.544 493.832 123.088 493.832 122.562ZM489.856 120.754C489.856 118.653 490.374 117.022 491.41 115.863C492.461 114.704 493.909 114.125 495.752 114.125C497.596 114.125 499.035 114.704 500.071 115.863C501.123 117.022 501.648 118.653 501.648 120.754V124.371C501.648 126.534 501.123 128.18 500.071 129.308C499.035 130.436 497.596 131 495.752 131C493.909 131 492.461 130.436 491.41 129.308C490.374 128.18 489.856 126.534 489.856 124.371V120.754ZM495.752 128.218C496.301 128.218 496.758 128.133 497.123 127.963C497.489 127.778 497.786 127.523 498.015 127.198C498.243 126.874 498.403 126.488 498.494 126.039C498.586 125.591 498.632 125.097 498.632 124.556V120.569C498.632 120.059 498.578 119.58 498.472 119.132C498.365 118.684 498.197 118.297 497.969 117.973C497.74 117.648 497.443 117.393 497.078 117.208C496.712 117.007 496.27 116.907 495.752 116.907C495.234 116.907 494.792 117.007 494.427 117.208C494.061 117.393 493.764 117.648 493.535 117.973C493.307 118.297 493.139 118.684 493.033 119.132C492.926 119.58 492.873 120.059 492.873 120.569V124.556C492.873 125.097 492.918 125.591 493.01 126.039C493.101 126.488 493.261 126.874 493.49 127.198C493.718 127.523 494.015 127.778 494.381 127.963C494.747 128.133 495.204 128.218 495.752 128.218Z" fill="black"/>
<path d="M507.825 122.562C507.825 122.037 508.016 121.581 508.397 121.195C508.778 120.809 509.227 120.615 509.745 120.615C510.263 120.615 510.713 120.809 511.093 121.195C511.474 121.581 511.665 122.037 511.665 122.562C511.665 123.088 511.474 123.544 511.093 123.93C510.713 124.316 510.263 124.51 509.745 124.51C509.227 124.51 508.778 124.316 508.397 123.93C508.016 123.544 507.825 123.088 507.825 122.562ZM503.849 120.754C503.849 118.653 504.367 117.022 505.403 115.863C506.454 114.704 507.902 114.125 509.745 114.125C511.589 114.125 513.028 114.704 514.064 115.863C515.116 117.022 515.641 118.653 515.641 120.754V124.371C515.641 126.534 515.116 128.18 514.064 129.308C513.028 130.436 511.589 131 509.745 131C507.902 131 506.454 130.436 505.403 129.308C504.367 128.18 503.849 126.534 503.849 124.371V120.754ZM509.745 128.218C510.294 128.218 510.751 128.133 511.116 127.963C511.482 127.778 511.779 127.523 512.008 127.198C512.236 126.874 512.396 126.488 512.488 126.039C512.579 125.591 512.625 125.097 512.625 124.556V120.569C512.625 120.059 512.571 119.58 512.465 119.132C512.358 118.684 512.19 118.297 511.962 117.973C511.733 117.648 511.436 117.393 511.071 117.208C510.705 117.007 510.263 116.907 509.745 116.907C509.227 116.907 508.785 117.007 508.42 117.208C508.054 117.393 507.757 117.648 507.528 117.973C507.3 118.297 507.132 118.684 507.026 119.132C506.919 119.58 506.866 120.059 506.866 120.569V124.556C506.866 125.097 506.911 125.591 507.003 126.039C507.094 126.488 507.254 126.874 507.483 127.198C507.711 127.523 508.008 127.778 508.374 127.963C508.74 128.133 509.197 128.218 509.745 128.218Z" fill="black"/>
<path d="M524.47 117.648C524.47 118.205 524.371 118.699 524.172 119.132C523.974 119.549 523.708 119.912 523.373 120.221C523.053 120.515 522.679 120.739 522.253 120.894C521.841 121.048 521.415 121.125 520.973 121.125C520.531 121.125 520.097 121.048 519.67 120.894C519.259 120.739 518.886 120.515 518.551 120.221C518.231 119.912 517.972 119.549 517.774 119.132C517.576 118.699 517.476 118.205 517.476 117.648C517.476 117.092 517.576 116.605 517.774 116.188C517.972 115.755 518.231 115.392 518.551 115.099C518.886 114.789 519.259 114.558 519.67 114.403C520.097 114.249 520.531 114.171 520.973 114.171C521.415 114.171 521.841 114.249 522.253 114.403C522.679 114.558 523.053 114.789 523.373 115.099C523.708 115.392 523.974 115.755 524.172 116.188C524.371 116.605 524.47 117.092 524.47 117.648ZM520.973 119.178C521.354 119.178 521.689 119.047 521.979 118.784C522.268 118.521 522.413 118.143 522.413 117.648C522.413 117.154 522.268 116.775 521.979 116.513C521.689 116.25 521.354 116.118 520.973 116.118C520.592 116.118 520.257 116.25 519.967 116.513C519.678 116.775 519.533 117.154 519.533 117.648C519.533 118.143 519.678 118.521 519.967 118.784C520.257 119.047 520.592 119.178 520.973 119.178ZM530 127.477C530 128.033 529.901 128.527 529.703 128.96C529.505 129.377 529.238 129.741 528.903 130.05C528.583 130.343 528.21 130.567 527.783 130.722C527.372 130.876 526.945 130.954 526.503 130.954C526.062 130.954 525.627 130.876 525.201 130.722C524.789 130.567 524.416 130.343 524.081 130.05C523.761 129.741 523.502 129.377 523.304 128.96C523.106 128.527 523.007 128.033 523.007 127.477C523.007 126.92 523.106 126.434 523.304 126.016C523.502 125.584 523.761 125.22 524.081 124.927C524.416 124.618 524.789 124.386 525.201 124.231C525.627 124.077 526.062 124 526.503 124C526.945 124 527.372 124.077 527.783 124.231C528.21 124.386 528.583 124.618 528.903 124.927C529.238 125.22 529.505 125.584 529.703 126.016C529.901 126.434 530 126.92 530 127.477ZM526.503 129.007C526.884 129.007 527.22 128.875 527.509 128.612C527.798 128.35 527.943 127.971 527.943 127.477C527.943 126.982 527.798 126.604 527.509 126.341C527.22 126.078 526.884 125.947 526.503 125.947C526.123 125.947 525.787 126.078 525.498 126.341C525.208 126.604 525.064 126.982 525.064 127.477C525.064 127.971 525.208 128.35 525.498 128.612C525.787 128.875 526.123 129.007 526.503 129.007ZM528.652 118.854L529.589 120.662L518.802 126.271L517.865 124.463L528.652 118.854Z" fill="black"/>
<rect x="296" y="21" width="243" height="119" stroke="black" stroke-width="2"/>
<rect y="182" width="560" height="2" fill="black"/>
<rect width="77.8546" height="44" transform="translate(241.073 226)" fill="black"/>
<path d="M261.073 253.408L263.409 242.4H265.521L263.569 251.584H268.433V253.6H261.073V253.408Z" fill="white"/>
<path d="M279.558 248.64C279.558 249.387 279.451 250.08 279.238 250.72C279.024 251.349 278.71 251.893 278.294 252.352C277.878 252.811 277.355 253.173 276.726 253.44C276.107 253.696 275.387 253.824 274.566 253.824C274.096 253.824 273.654 253.755 273.238 253.616C272.832 253.477 272.475 253.275 272.166 253.008C271.856 252.731 271.611 252.395 271.43 252C271.248 251.605 271.158 251.157 271.158 250.656C271.158 249.835 271.286 249.104 271.542 248.464C271.798 247.813 272.144 247.264 272.582 246.816C273.03 246.368 273.552 246.027 274.15 245.792C274.758 245.557 275.408 245.44 276.102 245.44C276.603 245.44 277.067 245.52 277.494 245.68C277.92 245.829 278.283 246.043 278.582 246.32C278.891 246.597 279.131 246.933 279.302 247.328C279.472 247.723 279.558 248.16 279.558 248.64ZM274.87 251.936C275.254 251.925 275.606 251.84 275.926 251.68C276.256 251.52 276.534 251.312 276.758 251.056C276.992 250.789 277.174 250.48 277.302 250.128C277.43 249.776 277.494 249.403 277.494 249.008C277.494 248.453 277.344 248.037 277.046 247.76C276.747 247.472 276.347 247.328 275.846 247.328C275.462 247.328 275.11 247.413 274.79 247.584C274.47 247.744 274.192 247.963 273.958 248.24C273.723 248.507 273.542 248.816 273.414 249.168C273.286 249.52 273.222 249.888 273.222 250.272C273.222 250.816 273.371 251.232 273.67 251.52C273.968 251.797 274.368 251.936 274.87 251.936Z" fill="white"/>
<path d="M288.971 250.688C288.672 251.637 288.139 252.4 287.371 252.976C286.613 253.541 285.595 253.824 284.315 253.824C283.845 253.824 283.403 253.749 282.987 253.6C282.571 253.451 282.208 253.227 281.899 252.928C281.589 252.629 281.344 252.261 281.163 251.824C280.992 251.376 280.907 250.859 280.907 250.272C280.907 249.611 281.019 248.987 281.243 248.4C281.477 247.813 281.813 247.301 282.251 246.864C282.688 246.427 283.216 246.08 283.835 245.824C284.453 245.568 285.157 245.44 285.947 245.44C286.523 245.44 287.029 245.525 287.467 245.696C287.904 245.867 288.267 246.101 288.555 246.4C288.843 246.688 289.061 247.029 289.211 247.424C289.36 247.819 289.435 248.235 289.435 248.672L287.387 249.072C287.387 248.528 287.248 248.107 286.971 247.808C286.704 247.509 286.267 247.36 285.659 247.36C285.275 247.36 284.917 247.435 284.587 247.584C284.267 247.723 283.984 247.92 283.739 248.176C283.504 248.421 283.317 248.715 283.179 249.056C283.051 249.387 282.987 249.744 282.987 250.128C282.987 250.736 283.147 251.184 283.467 251.472C283.787 251.76 284.192 251.904 284.683 251.904C285.355 251.904 285.877 251.755 286.251 251.456C286.624 251.157 286.907 250.736 287.099 250.192L288.971 250.688Z" fill="white"/>
<path d="M290.607 253.6L293.039 242.176H295.055L293.695 248.576H294.079L297.295 245.44L298.543 246.784L295.599 249.536V249.824L296.879 251.936H297.071L297.951 251.328L298.927 252.736L298.207 253.28C297.941 253.483 297.679 253.621 297.423 253.696C297.178 253.781 296.938 253.824 296.703 253.824C296.362 253.824 296.053 253.744 295.775 253.584C295.498 253.413 295.269 253.173 295.087 252.864L293.647 250.496H293.279L292.623 253.6H290.607Z" fill="white"/>
</svg>
