<svg width="560" height="276" viewBox="0 0 560 276" fill="none" xmlns="http://www.w3.org/2000/svg">
<rect width="560" height="276" fill="#F2F2F2"/>
<rect width="520" height="73" transform="translate(20 20)" fill="white"/>
<circle cx="70.5" cy="60.5" r="25.5" fill="#BAFF62" stroke="black" stroke-width="2"/>
<circle cx="66.5" cy="56.5" r="25.5" fill="#BAFF62" stroke="black" stroke-width="2"/>
<path d="M69.4608 66.9556H72.1301V43H69.4608V52.6507H69.0501C68.4569 51.624 67.6356 50.8483 66.5861 50.3236C65.5366 49.776 64.3959 49.5022 63.1639 49.5022C62.1144 49.5022 61.122 49.6961 60.1866 50.084C59.2512 50.4719 58.4298 51.0308 57.7226 51.7609C56.9925 52.491 56.4221 53.3921 56.0115 54.4644C55.578 55.5367 55.3612 56.7573 55.3612 58.1262V58.8107C55.3612 60.2024 55.5666 61.4344 55.9772 62.5067C56.3879 63.579 56.9583 64.4801 57.6884 65.2102C58.3956 65.9403 59.2284 66.4993 60.1866 66.8871C61.1448 67.2521 62.1601 67.4347 63.2323 67.4347C63.7799 67.4347 64.3389 67.3662 64.9092 67.2293C65.4796 67.1153 66.0272 66.9327 66.5519 66.6818C67.0538 66.408 67.5215 66.0886 67.955 65.7236C68.3885 65.3357 68.7535 64.8794 69.0501 64.3547H69.4608V66.9556ZM63.7799 64.9022C62.9586 64.9022 62.2057 64.7653 61.5212 64.4916C60.8368 64.195 60.2436 63.7843 59.7417 63.2596C59.2169 62.7348 58.8177 62.096 58.5439 61.3431C58.2473 60.5902 58.099 59.7461 58.099 58.8107V58.1262C58.099 57.2136 58.2473 56.3923 58.5439 55.6622C58.8177 54.9093 59.2169 54.2705 59.7417 53.7458C60.2436 53.1982 60.8482 52.7761 61.5555 52.4796C62.2399 52.183 62.9814 52.0347 63.7799 52.0347C64.5784 52.0347 65.3199 52.1944 66.0043 52.5138C66.6888 52.8104 67.2934 53.2324 67.8181 53.78C68.3201 54.3276 68.7193 54.9892 69.0159 55.7649C69.3125 56.5178 69.4608 57.3505 69.4608 58.2631V58.6738C69.4608 59.6092 69.3125 60.4647 69.0159 61.2404C68.7193 61.9933 68.3201 62.6436 67.8181 63.1911C67.2934 63.7387 66.6888 64.1607 66.0043 64.4573C65.3199 64.7539 64.5784 64.9022 63.7799 64.9022Z" fill="black"/>
<rect x="20" y="20" width="93" height="73" stroke="black" stroke-width="2"/>
<rect x="113" y="20" width="427" height="73" fill="#BAFF62"/>
<path d="M148.04 61.876V49.684H147.608L146.024 55.444H143V55.156L145.016 48.1H151.208V61.876H155.384V64.9H143.288V61.876H148.04Z" fill="black"/>
<path d="M169.767 61.876V64.9H157.959V61.588C157.959 60.708 158.087 59.956 158.343 59.332C158.615 58.708 158.991 58.18 159.471 57.748C159.967 57.316 160.559 56.964 161.247 56.692C161.935 56.404 162.711 56.164 163.575 55.972C164.215 55.828 164.735 55.668 165.135 55.492C165.551 55.3 165.879 55.092 166.119 54.868C166.359 54.628 166.519 54.372 166.599 54.1C166.695 53.812 166.743 53.492 166.743 53.14C166.743 52.468 166.495 51.908 165.999 51.46C165.519 51.012 164.847 50.788 163.983 50.788C163.071 50.788 162.343 51.068 161.799 51.628C161.255 52.172 160.983 52.932 160.983 53.908V54.964H157.815V53.62C157.815 52.836 157.951 52.092 158.223 51.388C158.511 50.668 158.911 50.044 159.423 49.516C159.951 48.972 160.591 48.548 161.343 48.244C162.095 47.924 162.943 47.764 163.887 47.764C164.895 47.764 165.775 47.916 166.527 48.22C167.279 48.508 167.903 48.892 168.399 49.372C168.911 49.852 169.287 50.412 169.527 51.052C169.783 51.676 169.911 52.324 169.911 52.996V53.284C169.911 54.692 169.511 55.86 168.711 56.788C167.927 57.716 166.639 58.388 164.847 58.804C164.095 58.98 163.471 59.164 162.975 59.356C162.495 59.532 162.119 59.732 161.847 59.956C161.575 60.18 161.383 60.428 161.271 60.7C161.175 60.956 161.127 61.252 161.127 61.588V61.876H169.767Z" fill="black"/>
<path d="M176.807 57.7V52.708L180.983 51.556V51.124H172.631V48.1H183.575V53.38L179.111 54.676V55.108H179.687C180.279 55.108 180.863 55.204 181.439 55.396C182.015 55.572 182.519 55.852 182.951 56.236C183.399 56.62 183.759 57.1 184.031 57.676C184.303 58.236 184.439 58.9 184.439 59.668V59.956C184.439 60.708 184.311 61.404 184.055 62.044C183.815 62.684 183.447 63.244 182.951 63.724C182.471 64.188 181.871 64.556 181.151 64.828C180.431 65.1 179.607 65.236 178.679 65.236C177.735 65.236 176.879 65.084 176.111 64.78C175.343 64.476 174.687 64.06 174.143 63.532C173.615 63.004 173.207 62.396 172.919 61.708C172.631 61.02 172.487 60.292 172.487 59.524V58.516H175.655V59.38C175.655 60.148 175.903 60.812 176.399 61.372C176.895 61.932 177.639 62.212 178.631 62.212C179.479 62.212 180.127 61.996 180.575 61.564C181.039 61.132 181.271 60.564 181.271 59.86C181.271 59.108 181.023 58.564 180.527 58.228C180.047 57.876 179.431 57.7 178.679 57.7H176.807Z" fill="black"/>
<path d="M195.414 62.956C195.414 63.276 195.35 63.58 195.222 63.868C195.11 64.14 194.95 64.38 194.742 64.588C194.534 64.78 194.286 64.932 193.998 65.044C193.726 65.172 193.438 65.236 193.134 65.236C192.814 65.236 192.518 65.172 192.246 65.044C191.974 64.932 191.734 64.78 191.526 64.588C191.318 64.38 191.15 64.14 191.022 63.868C190.91 63.58 190.854 63.276 190.854 62.956C190.854 62.636 190.91 62.34 191.022 62.068C191.15 61.78 191.318 61.54 191.526 61.348C191.734 61.14 191.974 60.98 192.246 60.868C192.518 60.74 192.814 60.676 193.134 60.676C193.438 60.676 193.726 60.74 193.998 60.868C194.286 60.98 194.534 61.14 194.742 61.348C194.95 61.54 195.11 61.78 195.222 62.068C195.35 62.34 195.414 62.636 195.414 62.956Z" fill="black"/>
<path d="M205.813 56.5C205.813 55.956 206.013 55.484 206.413 55.084C206.813 54.684 207.285 54.484 207.829 54.484C208.373 54.484 208.845 54.684 209.245 55.084C209.645 55.484 209.845 55.956 209.845 56.5C209.845 57.044 209.645 57.516 209.245 57.916C208.845 58.316 208.373 58.516 207.829 58.516C207.285 58.516 206.813 58.316 206.413 57.916C206.013 57.516 205.813 57.044 205.813 56.5ZM201.637 54.628C201.637 52.452 202.181 50.764 203.269 49.564C204.373 48.364 205.893 47.764 207.829 47.764C209.765 47.764 211.277 48.364 212.365 49.564C213.469 50.764 214.021 52.452 214.021 54.628V58.372C214.021 60.612 213.469 62.316 212.365 63.484C211.277 64.652 209.765 65.236 207.829 65.236C205.893 65.236 204.373 64.652 203.269 63.484C202.181 62.316 201.637 60.612 201.637 58.372V54.628ZM207.829 62.356C208.405 62.356 208.885 62.268 209.269 62.092C209.653 61.9 209.965 61.636 210.205 61.3C210.445 60.964 210.613 60.564 210.709 60.1C210.805 59.636 210.853 59.124 210.853 58.564V54.436C210.853 53.908 210.797 53.412 210.685 52.948C210.573 52.484 210.397 52.084 210.157 51.748C209.917 51.412 209.605 51.148 209.221 50.956C208.837 50.748 208.373 50.644 207.829 50.644C207.285 50.644 206.821 50.748 206.437 50.956C206.053 51.148 205.741 51.412 205.501 51.748C205.261 52.084 205.085 52.484 204.973 52.948C204.861 53.412 204.805 53.908 204.805 54.436V58.564C204.805 59.124 204.853 59.636 204.949 60.1C205.045 60.564 205.213 60.964 205.453 61.3C205.693 61.636 206.005 61.9 206.389 62.092C206.773 62.268 207.253 62.356 207.829 62.356Z" fill="black"/>
<path d="M220.509 56.5C220.509 55.956 220.709 55.484 221.109 55.084C221.509 54.684 221.981 54.484 222.525 54.484C223.069 54.484 223.541 54.684 223.941 55.084C224.341 55.484 224.541 55.956 224.541 56.5C224.541 57.044 224.341 57.516 223.941 57.916C223.541 58.316 223.069 58.516 222.525 58.516C221.981 58.516 221.509 58.316 221.109 57.916C220.709 57.516 220.509 57.044 220.509 56.5ZM216.333 54.628C216.333 52.452 216.877 50.764 217.965 49.564C219.069 48.364 220.589 47.764 222.525 47.764C224.461 47.764 225.973 48.364 227.061 49.564C228.165 50.764 228.717 52.452 228.717 54.628V58.372C228.717 60.612 228.165 62.316 227.061 63.484C225.973 64.652 224.461 65.236 222.525 65.236C220.589 65.236 219.069 64.652 217.965 63.484C216.877 62.316 216.333 60.612 216.333 58.372V54.628ZM222.525 62.356C223.101 62.356 223.581 62.268 223.965 62.092C224.349 61.9 224.661 61.636 224.901 61.3C225.141 60.964 225.309 60.564 225.405 60.1C225.501 59.636 225.549 59.124 225.549 58.564V54.436C225.549 53.908 225.493 53.412 225.381 52.948C225.269 52.484 225.093 52.084 224.853 51.748C224.613 51.412 224.301 51.148 223.917 50.956C223.533 50.748 223.069 50.644 222.525 50.644C221.981 50.644 221.517 50.748 221.133 50.956C220.749 51.148 220.437 51.412 220.197 51.748C219.957 52.084 219.781 52.484 219.669 52.948C219.557 53.412 219.501 53.908 219.501 54.436V58.564C219.501 59.124 219.549 59.636 219.645 60.1C219.741 60.564 219.909 60.964 220.149 61.3C220.389 61.636 220.701 61.9 221.085 62.092C221.469 62.268 221.949 62.356 222.525 62.356Z" fill="black"/>
<rect x="113" y="20" width="427" height="73" stroke="black" stroke-width="2"/>
<path d="M280 126L277.5 123.541L290 111.245L292.5 113.705L280 126Z" fill="black"/>
<path d="M282.5 123.541L280 126L267.5 113.705L270 111.246L282.5 123.541Z" fill="black"/>
<path d="M278.358 101H281.893L281.893 123.417H278.358L278.358 101Z" fill="black"/>
<rect x="29" y="144" width="518" height="47" fill="white" stroke="black" stroke-width="2"/>
<rect x="20" y="134" width="520" height="49" fill="white"/>
<path d="M54.944 158.5C54.944 158.084 55.096 157.724 55.4 157.42C55.704 157.116 56.064 156.964 56.48 156.964C56.896 156.964 57.256 157.116 57.56 157.42C57.864 157.724 58.016 158.084 58.016 158.5C58.016 158.916 57.864 159.276 57.56 159.58C57.256 159.884 56.896 160.036 56.48 160.036C56.064 160.036 55.704 159.884 55.4 159.58C55.096 159.276 54.944 158.916 54.944 158.5ZM50.984 156.628C51.448 154.388 52.264 152.684 53.432 151.516C54.616 150.348 56.2 149.764 58.184 149.764C59.736 149.764 60.92 150.212 61.736 151.108C62.568 151.988 62.984 153.212 62.984 154.78C62.984 155.1 62.96 155.444 62.912 155.812C62.88 156.164 62.824 156.524 62.744 156.892L62 160.372C61.536 162.612 60.712 164.316 59.528 165.484C58.36 166.652 56.784 167.236 54.8 167.236C53.248 167.236 52.056 166.796 51.224 165.916C50.408 165.02 50 163.788 50 162.22C50 161.9 50.016 161.564 50.048 161.212C50.096 160.844 50.16 160.476 50.24 160.108L50.984 156.628ZM55.088 165.412C55.744 165.412 56.336 165.292 56.864 165.052C57.408 164.796 57.88 164.444 58.28 163.996C58.696 163.532 59.04 162.988 59.312 162.364C59.6 161.724 59.832 161.012 60.008 160.228L60.776 156.628C60.904 155.988 60.968 155.428 60.968 154.948C60.968 153.908 60.712 153.092 60.2 152.5C59.688 151.892 58.92 151.588 57.896 151.588C56.568 151.588 55.496 152.06 54.68 153.004C53.88 153.948 53.312 155.204 52.976 156.772L52.208 160.372C52.08 161.012 52.016 161.572 52.016 162.052C52.016 163.092 52.272 163.916 52.784 164.524C53.296 165.116 54.064 165.412 55.088 165.412Z" fill="black"/>
<path d="M69.5913 160.852L67.9833 156.964C67.8873 156.756 67.7433 156.652 67.5513 156.652C67.3593 156.652 67.2153 156.748 67.1193 156.94L66.0633 158.74L64.5753 157.876L65.6553 156.004C65.9113 155.572 66.1913 155.244 66.4953 155.02C66.8153 154.78 67.2073 154.66 67.6713 154.66C68.5353 154.66 69.1673 155.132 69.5673 156.076L70.9833 159.508L75.8313 154.756L77.1033 156.028L71.7273 161.284L73.2873 164.98C73.3833 165.188 73.5273 165.292 73.7193 165.292C73.8953 165.292 74.0313 165.204 74.1273 165.028L75.1593 163.18L76.6713 163.996L75.6393 165.892C75.3833 166.356 75.0873 166.692 74.7513 166.9C74.4153 167.124 74.0313 167.236 73.5993 167.236C73.2153 167.236 72.8473 167.124 72.4953 166.9C72.1593 166.692 71.8873 166.348 71.6793 165.868L70.3353 162.652L65.7033 167.188L64.4313 165.916L69.5913 160.852Z" fill="black"/>
<path d="M88.6306 162.724H81.8866L79.8466 166.9H77.5666L85.8946 150.1H89.7346L90.9346 166.9H88.8946L88.6306 162.724ZM82.7986 160.852H88.5106L87.8866 150.988H87.5986L82.7986 160.852Z" fill="black"/>
<path d="M101.694 165.028C101.182 165.876 100.574 166.46 99.8699 166.78C99.1659 167.084 98.4219 167.236 97.6379 167.236C96.9979 167.236 96.4139 167.124 95.8859 166.9C95.3579 166.676 94.9099 166.364 94.5419 165.964C94.1739 165.548 93.8859 165.052 93.6779 164.476C93.4699 163.884 93.3659 163.236 93.3659 162.532C93.3659 161.54 93.5179 160.572 93.8219 159.628C94.1259 158.684 94.5659 157.844 95.1419 157.108C95.7179 156.372 96.4219 155.78 97.2539 155.332C98.1019 154.884 99.0699 154.66 100.158 154.66C101.006 154.66 101.71 154.836 102.27 155.188C102.846 155.54 103.238 156.1 103.446 156.868H103.734L105.222 149.764H107.094L103.878 164.884C103.83 165.172 103.934 165.316 104.19 165.316C104.286 165.316 104.39 165.276 104.502 165.196L105.366 164.572L106.398 165.988L105.318 166.804C105.142 166.932 104.926 167.036 104.67 167.116C104.43 167.196 104.158 167.236 103.854 167.236C103.614 167.236 103.382 167.204 103.158 167.14C102.934 167.076 102.726 166.98 102.534 166.852C102.358 166.708 102.214 166.532 102.102 166.324C101.99 166.1 101.934 165.828 101.934 165.508C101.934 165.428 101.934 165.348 101.934 165.268C101.95 165.188 101.966 165.108 101.982 165.028H101.694ZM98.2139 165.46C98.8539 165.46 99.4619 165.316 100.038 165.028C100.63 164.724 101.142 164.316 101.574 163.804C102.022 163.292 102.374 162.692 102.63 162.004C102.886 161.3 103.014 160.54 103.014 159.724C103.014 158.732 102.766 157.94 102.27 157.348C101.774 156.74 101.054 156.436 100.11 156.436C99.3579 156.436 98.6859 156.604 98.0939 156.94C97.5179 157.26 97.0219 157.692 96.6059 158.236C96.1899 158.764 95.8699 159.38 95.6459 160.084C95.4379 160.788 95.3339 161.516 95.3339 162.268C95.3339 164.396 96.2939 165.46 98.2139 165.46Z" fill="black"/>
<path d="M116.389 165.028C115.877 165.876 115.269 166.46 114.565 166.78C113.861 167.084 113.117 167.236 112.333 167.236C111.693 167.236 111.109 167.124 110.581 166.9C110.053 166.676 109.605 166.364 109.237 165.964C108.869 165.548 108.581 165.052 108.373 164.476C108.165 163.884 108.061 163.236 108.061 162.532C108.061 161.54 108.213 160.572 108.517 159.628C108.821 158.684 109.261 157.844 109.837 157.108C110.413 156.372 111.117 155.78 111.949 155.332C112.797 154.884 113.765 154.66 114.853 154.66C115.701 154.66 116.405 154.836 116.965 155.188C117.541 155.54 117.933 156.1 118.141 156.868H118.429L119.917 149.764H121.789L118.573 164.884C118.525 165.172 118.629 165.316 118.885 165.316C118.981 165.316 119.085 165.276 119.197 165.196L120.061 164.572L121.093 165.988L120.013 166.804C119.837 166.932 119.621 167.036 119.365 167.116C119.125 167.196 118.853 167.236 118.549 167.236C118.309 167.236 118.077 167.204 117.853 167.14C117.629 167.076 117.421 166.98 117.229 166.852C117.053 166.708 116.909 166.532 116.797 166.324C116.685 166.1 116.629 165.828 116.629 165.508C116.629 165.428 116.629 165.348 116.629 165.268C116.645 165.188 116.661 165.108 116.677 165.028H116.389ZM112.909 165.46C113.549 165.46 114.157 165.316 114.733 165.028C115.325 164.724 115.837 164.316 116.269 163.804C116.717 163.292 117.069 162.692 117.325 162.004C117.581 161.3 117.709 160.54 117.709 159.724C117.709 158.732 117.461 157.94 116.965 157.348C116.469 156.74 115.749 156.436 114.805 156.436C114.053 156.436 113.381 156.604 112.789 156.94C112.213 157.26 111.717 157.692 111.301 158.236C110.885 158.764 110.565 159.38 110.341 160.084C110.133 160.788 110.029 161.516 110.029 162.268C110.029 164.396 110.989 165.46 112.909 165.46Z" fill="black"/>
<path d="M127.317 157.06C127.365 156.868 127.341 156.724 127.245 156.628C127.149 156.516 127.029 156.46 126.885 156.46C126.757 156.46 126.637 156.5 126.525 156.58L124.341 158.068L123.381 156.652L125.517 155.212C126.061 154.844 126.613 154.66 127.173 154.66C127.669 154.66 128.101 154.804 128.469 155.092C128.837 155.364 129.045 155.812 129.093 156.436H129.381C129.845 155.78 130.365 155.324 130.941 155.068C131.517 154.796 132.117 154.66 132.741 154.66C133.893 154.66 134.797 154.996 135.453 155.668C136.109 156.324 136.437 157.196 136.437 158.284C136.437 158.7 136.389 159.124 136.293 159.556L134.253 159.7C134.333 159.3 134.373 158.964 134.373 158.692C134.373 157.924 134.157 157.356 133.725 156.988C133.309 156.62 132.765 156.436 132.093 156.436C131.613 156.436 131.173 156.532 130.773 156.724C130.389 156.9 130.053 157.148 129.765 157.468C129.477 157.772 129.229 158.132 129.021 158.548C128.829 158.964 128.685 159.396 128.589 159.844L127.461 165.172H130.293V166.9H122.661V165.172H125.589L127.317 157.06Z" fill="black"/>
<path d="M140.044 161.524C140.012 161.652 139.988 161.796 139.972 161.956C139.956 162.116 139.948 162.284 139.948 162.46C139.948 163.34 140.204 164.068 140.716 164.644C141.228 165.204 142.044 165.484 143.164 165.484C143.724 165.484 144.22 165.42 144.652 165.292C145.1 165.164 145.484 164.988 145.804 164.764C146.124 164.524 146.396 164.26 146.62 163.972C146.86 163.668 147.06 163.348 147.22 163.012L148.756 163.876C148.532 164.34 148.252 164.78 147.916 165.196C147.58 165.596 147.18 165.948 146.716 166.252C146.252 166.556 145.716 166.796 145.108 166.972C144.5 167.148 143.804 167.236 143.02 167.236C142.3 167.236 141.636 167.124 141.028 166.9C140.436 166.692 139.924 166.388 139.492 165.988C139.06 165.572 138.724 165.068 138.484 164.476C138.244 163.884 138.124 163.212 138.124 162.46C138.124 161.452 138.284 160.484 138.604 159.556C138.924 158.612 139.388 157.78 139.996 157.06C140.604 156.34 141.356 155.764 142.252 155.332C143.148 154.884 144.164 154.66 145.3 154.66C146.1 154.66 146.796 154.788 147.388 155.044C147.98 155.284 148.468 155.62 148.852 156.052C149.236 156.468 149.524 156.948 149.716 157.492C149.908 158.02 150.004 158.572 150.004 159.148C150.004 159.58 149.956 159.996 149.86 160.396L149.596 161.524H140.044ZM145.06 156.436C144.5 156.436 143.972 156.524 143.476 156.7C142.996 156.86 142.556 157.092 142.156 157.396C141.756 157.7 141.412 158.06 141.124 158.476C140.836 158.876 140.612 159.316 140.452 159.796H148.084C148.132 159.54 148.156 159.3 148.156 159.076C148.156 158.212 147.86 157.556 147.268 157.108C146.676 156.66 145.94 156.436 145.06 156.436Z" fill="black"/>
<path d="M160.115 156.34C159.795 156.34 159.459 156.38 159.107 156.46C158.771 156.54 158.459 156.66 158.171 156.82C157.899 156.98 157.675 157.188 157.499 157.444C157.323 157.684 157.235 157.972 157.235 158.308C157.235 158.82 157.459 159.204 157.907 159.46C158.371 159.716 159.163 159.884 160.283 159.964C161.435 160.044 162.323 160.332 162.947 160.828C163.587 161.324 163.907 162.052 163.907 163.012C163.907 163.684 163.763 164.284 163.475 164.812C163.203 165.34 162.819 165.788 162.323 166.156C161.827 166.508 161.235 166.772 160.547 166.948C159.875 167.14 159.131 167.236 158.315 167.236C157.499 167.236 156.803 167.124 156.227 166.9C155.667 166.692 155.203 166.412 154.835 166.06C154.467 165.692 154.195 165.284 154.019 164.836C153.859 164.372 153.779 163.9 153.779 163.42C153.779 163.34 153.779 163.26 153.779 163.18C153.779 163.084 153.787 162.996 153.803 162.916L155.675 162.676C155.659 162.804 155.651 162.884 155.651 162.916C155.651 162.948 155.651 162.996 155.651 163.06C155.651 163.412 155.699 163.74 155.795 164.044C155.907 164.332 156.083 164.588 156.323 164.812C156.563 165.02 156.875 165.188 157.259 165.316C157.643 165.444 158.115 165.508 158.675 165.508C159.043 165.508 159.419 165.468 159.803 165.388C160.203 165.292 160.563 165.156 160.883 164.98C161.203 164.788 161.467 164.556 161.675 164.284C161.883 163.996 161.987 163.652 161.987 163.252C161.987 162.628 161.731 162.212 161.219 162.004C160.723 161.78 159.979 161.628 158.987 161.548C157.851 161.468 156.955 161.196 156.299 160.732C155.659 160.268 155.339 159.54 155.339 158.548C155.339 157.988 155.459 157.468 155.699 156.988C155.939 156.508 156.275 156.1 156.707 155.764C157.155 155.412 157.683 155.14 158.291 154.948C158.915 154.756 159.603 154.66 160.355 154.66C161.091 154.66 161.723 154.764 162.251 154.972C162.795 155.164 163.235 155.42 163.571 155.74C163.923 156.06 164.179 156.428 164.339 156.844C164.515 157.244 164.603 157.66 164.603 158.092V158.356L162.755 158.62V158.524C162.755 158.492 162.755 158.468 162.755 158.452C162.771 158.42 162.779 158.388 162.779 158.356C162.779 157.748 162.547 157.26 162.083 156.892C161.635 156.524 160.979 156.34 160.115 156.34Z" fill="black"/>
<path d="M174.811 156.34C174.491 156.34 174.154 156.38 173.802 156.46C173.466 156.54 173.155 156.66 172.867 156.82C172.594 156.98 172.37 157.188 172.194 157.444C172.018 157.684 171.93 157.972 171.93 158.308C171.93 158.82 172.155 159.204 172.603 159.46C173.066 159.716 173.858 159.884 174.979 159.964C176.131 160.044 177.018 160.332 177.642 160.828C178.283 161.324 178.603 162.052 178.603 163.012C178.603 163.684 178.458 164.284 178.171 164.812C177.898 165.34 177.515 165.788 177.019 166.156C176.522 166.508 175.931 166.772 175.243 166.948C174.571 167.14 173.826 167.236 173.01 167.236C172.194 167.236 171.498 167.124 170.923 166.9C170.363 166.692 169.898 166.412 169.53 166.06C169.162 165.692 168.891 165.284 168.715 164.836C168.554 164.372 168.474 163.9 168.474 163.42C168.474 163.34 168.474 163.26 168.474 163.18C168.474 163.084 168.482 162.996 168.498 162.916L170.37 162.676C170.354 162.804 170.346 162.884 170.346 162.916C170.346 162.948 170.346 162.996 170.346 163.06C170.346 163.412 170.395 163.74 170.491 164.044C170.603 164.332 170.779 164.588 171.019 164.812C171.258 165.02 171.57 165.188 171.954 165.316C172.339 165.444 172.811 165.508 173.37 165.508C173.738 165.508 174.114 165.468 174.498 165.388C174.898 165.292 175.258 165.156 175.578 164.98C175.898 164.788 176.162 164.556 176.37 164.284C176.578 163.996 176.683 163.652 176.683 163.252C176.683 162.628 176.426 162.212 175.914 162.004C175.418 161.78 174.674 161.628 173.682 161.548C172.546 161.468 171.65 161.196 170.994 160.732C170.354 160.268 170.035 159.54 170.035 158.548C170.035 157.988 170.155 157.468 170.395 156.988C170.634 156.508 170.97 156.1 171.402 155.764C171.85 155.412 172.378 155.14 172.986 154.948C173.61 154.756 174.299 154.66 175.05 154.66C175.786 154.66 176.418 154.764 176.946 154.972C177.49 155.164 177.931 155.42 178.267 155.74C178.619 156.06 178.874 156.428 179.035 156.844C179.21 157.244 179.299 157.66 179.299 158.092V158.356L177.45 158.62V158.524C177.45 158.492 177.45 158.468 177.45 158.452C177.466 158.42 177.474 158.388 177.474 158.356C177.474 157.748 177.242 157.26 176.778 156.892C176.33 156.524 175.674 156.34 174.811 156.34Z" fill="black"/>
<path d="M189.506 156.34C189.186 156.34 188.85 156.38 188.498 156.46C188.162 156.54 187.85 156.66 187.562 156.82C187.29 156.98 187.066 157.188 186.89 157.444C186.714 157.684 186.626 157.972 186.626 158.308C186.626 158.82 186.85 159.204 187.298 159.46C187.762 159.716 188.554 159.884 189.674 159.964C190.826 160.044 191.714 160.332 192.338 160.828C192.978 161.324 193.298 162.052 193.298 163.012C193.298 163.684 193.154 164.284 192.866 164.812C192.594 165.34 192.21 165.788 191.714 166.156C191.218 166.508 190.626 166.772 189.938 166.948C189.266 167.14 188.522 167.236 187.706 167.236C186.89 167.236 186.194 167.124 185.618 166.9C185.058 166.692 184.594 166.412 184.226 166.06C183.858 165.692 183.586 165.284 183.41 164.836C183.25 164.372 183.17 163.9 183.17 163.42C183.17 163.34 183.17 163.26 183.17 163.18C183.17 163.084 183.178 162.996 183.194 162.916L185.066 162.676C185.05 162.804 185.042 162.884 185.042 162.916C185.042 162.948 185.042 162.996 185.042 163.06C185.042 163.412 185.09 163.74 185.186 164.044C185.298 164.332 185.474 164.588 185.714 164.812C185.954 165.02 186.266 165.188 186.65 165.316C187.034 165.444 187.506 165.508 188.066 165.508C188.434 165.508 188.81 165.468 189.194 165.388C189.594 165.292 189.954 165.156 190.274 164.98C190.594 164.788 190.858 164.556 191.066 164.284C191.274 163.996 191.378 163.652 191.378 163.252C191.378 162.628 191.122 162.212 190.61 162.004C190.114 161.78 189.37 161.628 188.378 161.548C187.242 161.468 186.346 161.196 185.69 160.732C185.05 160.268 184.73 159.54 184.73 158.548C184.73 157.988 184.85 157.468 185.09 156.988C185.33 156.508 185.666 156.1 186.098 155.764C186.546 155.412 187.074 155.14 187.682 154.948C188.306 154.756 188.994 154.66 189.746 154.66C190.482 154.66 191.114 154.764 191.642 154.972C192.186 155.164 192.626 155.42 192.962 155.74C193.314 156.06 193.57 156.428 193.73 156.844C193.906 157.244 193.994 157.66 193.994 158.092V158.356L192.146 158.62V158.524C192.146 158.492 192.146 158.468 192.146 158.452C192.162 158.42 192.17 158.388 192.17 158.356C192.17 157.748 191.938 157.26 191.474 156.892C191.026 156.524 190.37 156.34 189.506 156.34Z" fill="black"/>
<rect x="20" y="134" width="520" height="49" stroke="black" stroke-width="2"/>
<rect width="116.386" height="44" transform="translate(221.807 212)" fill="black"/>
<path d="M241.807 226.704H249.871V228.72H246.895L244.943 237.904H242.831L244.783 228.72H241.807V226.704Z" fill="white"/>
<path d="M252.852 231.856L252.692 231.76L251.428 232.688L250.356 231.248L251.636 230.288C251.881 230.107 252.137 229.973 252.404 229.888C252.681 229.792 252.942 229.744 253.188 229.744C253.614 229.744 253.988 229.861 254.308 230.096C254.628 230.331 254.82 230.661 254.884 231.088H255.172C255.385 230.64 255.684 230.304 256.068 230.08C256.452 229.856 256.884 229.744 257.364 229.744C257.972 229.744 258.462 229.936 258.836 230.32C259.22 230.693 259.412 231.216 259.412 231.888C259.412 232.027 259.401 232.165 259.38 232.304C259.369 232.432 259.342 232.592 259.3 232.784L259.22 233.136L257.076 233.296L257.124 233.072C257.156 232.912 257.172 232.768 257.172 232.64C257.172 232.331 257.086 232.085 256.916 231.904C256.745 231.723 256.489 231.632 256.148 231.632C255.721 231.632 255.38 231.776 255.124 232.064C254.878 232.352 254.697 232.763 254.58 233.296L254.004 235.984H255.924V237.904H250.452V235.984H251.988L252.852 231.856Z" fill="white"/>
<path d="M267.465 236L267.625 236.112L268.393 235.568L269.401 237.072L268.457 237.712C268.041 237.989 267.603 238.128 267.145 238.128C266.739 238.128 266.377 238.016 266.057 237.792C265.737 237.568 265.534 237.253 265.449 236.848H265.161C265.065 237.029 264.953 237.2 264.825 237.36C264.697 237.509 264.537 237.643 264.345 237.76C264.163 237.867 263.945 237.952 263.689 238.016C263.443 238.091 263.15 238.128 262.809 238.128C262.393 238.128 262.009 238.048 261.657 237.888C261.305 237.717 260.995 237.488 260.729 237.2C260.473 236.901 260.27 236.555 260.121 236.16C259.971 235.765 259.897 235.333 259.897 234.864C259.897 234.149 259.993 233.483 260.185 232.864C260.377 232.245 260.654 231.707 261.017 231.248C261.379 230.779 261.822 230.411 262.345 230.144C262.878 229.877 263.475 229.744 264.137 229.744C264.723 229.744 265.187 229.861 265.529 230.096C265.87 230.331 266.099 230.64 266.217 231.024H266.505L266.729 229.968H268.745L267.465 236ZM263.593 236.208C263.977 236.208 264.318 236.133 264.617 235.984C264.915 235.824 265.161 235.616 265.353 235.36C265.555 235.104 265.71 234.805 265.817 234.464C265.923 234.112 265.977 233.744 265.977 233.36C265.977 232.859 265.833 232.453 265.545 232.144C265.257 231.824 264.873 231.664 264.393 231.664C264.009 231.664 263.667 231.744 263.369 231.904C263.07 232.053 262.819 232.256 262.617 232.512C262.414 232.768 262.259 233.072 262.153 233.424C262.046 233.765 261.993 234.128 261.993 234.512C261.993 234.96 262.121 235.355 262.377 235.696C262.643 236.037 263.049 236.208 263.593 236.208Z" fill="white"/>
<path d="M275.662 233.296C275.704 233.093 275.726 232.923 275.726 232.784C275.726 232.4 275.614 232.101 275.39 231.888C275.166 231.675 274.862 231.568 274.478 231.568C273.998 231.568 273.587 231.739 273.246 232.08C272.904 232.421 272.675 232.88 272.558 233.456L271.614 237.904H269.598L271.278 229.968H273.214L272.942 231.248H273.23C273.486 230.715 273.822 230.331 274.238 230.096C274.664 229.861 275.134 229.744 275.646 229.744C276.318 229.744 276.851 229.947 277.246 230.352C277.651 230.757 277.854 231.328 277.854 232.064C277.854 232.235 277.843 232.395 277.822 232.544C277.8 232.683 277.774 232.837 277.742 233.008L277.102 236L277.262 236.112L277.95 235.632L278.958 237.136L278.094 237.712C277.688 237.989 277.256 238.128 276.798 238.128C276.563 238.128 276.339 238.085 276.126 238C275.912 237.925 275.726 237.819 275.566 237.68C275.406 237.531 275.278 237.355 275.182 237.152C275.086 236.939 275.038 236.699 275.038 236.432C275.038 236.293 275.054 236.133 275.086 235.952L275.662 233.296Z" fill="white"/>
<path d="M284.546 231.568C284.429 231.568 284.306 231.584 284.178 231.616C284.061 231.637 283.949 231.675 283.842 231.728C283.736 231.781 283.645 231.856 283.57 231.952C283.506 232.037 283.474 232.144 283.474 232.272C283.474 232.496 283.602 232.661 283.858 232.768C284.114 232.875 284.552 232.965 285.17 233.04C285.864 233.125 286.424 233.339 286.85 233.68C287.277 234.011 287.49 234.491 287.49 235.12C287.49 236.059 287.16 236.795 286.498 237.328C285.848 237.861 284.941 238.128 283.778 238.128C283.192 238.128 282.685 238.043 282.258 237.872C281.842 237.701 281.496 237.488 281.218 237.232C280.952 236.976 280.749 236.693 280.61 236.384C280.472 236.075 280.397 235.781 280.386 235.504L282.37 235.024C282.402 235.376 282.552 235.68 282.818 235.936C283.085 236.181 283.49 236.304 284.034 236.304C284.408 236.304 284.733 236.245 285.01 236.128C285.288 236.011 285.426 235.803 285.426 235.504C285.426 235.28 285.32 235.104 285.106 234.976C284.893 234.837 284.498 234.741 283.922 234.688C283.154 234.624 282.541 234.405 282.082 234.032C281.634 233.659 281.41 233.163 281.41 232.544C281.41 232.096 281.501 231.696 281.682 231.344C281.874 230.992 282.125 230.699 282.434 230.464C282.744 230.229 283.101 230.053 283.506 229.936C283.922 229.808 284.354 229.744 284.802 229.744C285.357 229.744 285.821 229.819 286.194 229.968C286.568 230.117 286.872 230.304 287.106 230.528C287.341 230.752 287.512 230.997 287.618 231.264C287.736 231.52 287.81 231.76 287.842 231.984L285.89 232.496C285.848 232.208 285.714 231.984 285.49 231.824C285.266 231.653 284.952 231.568 284.546 231.568Z" fill="white"/>
<path d="M293.015 231.888H290.759V229.968H293.431L293.783 228.336C293.826 228.112 293.911 227.899 294.039 227.696C294.167 227.493 294.317 227.323 294.487 227.184C294.669 227.035 294.866 226.917 295.079 226.832C295.303 226.747 295.527 226.704 295.751 226.704H298.567V228.624H296.167C295.879 228.624 295.703 228.784 295.639 229.104L295.447 229.968H298.151V231.888H295.031L293.255 239.824C293.138 240.347 292.919 240.72 292.599 240.944C292.279 241.179 291.933 241.296 291.559 241.296C291.25 241.296 290.946 241.221 290.647 241.072C290.359 240.933 290.135 240.731 289.975 240.464L288.967 238.848L290.519 237.904L291.223 239.12L291.415 239.088L293.015 231.888Z" fill="white"/>
<path d="M301.628 234.592C301.607 234.677 301.596 234.768 301.596 234.864C301.596 235.248 301.74 235.568 302.028 235.824C302.327 236.08 302.716 236.208 303.196 236.208C303.698 236.208 304.098 236.117 304.396 235.936C304.695 235.755 304.924 235.541 305.084 235.296L306.684 236.304C306.556 236.517 306.386 236.731 306.172 236.944C305.97 237.157 305.714 237.355 305.404 237.536C305.106 237.707 304.748 237.845 304.332 237.952C303.927 238.069 303.452 238.128 302.908 238.128C302.418 238.128 301.964 238.053 301.548 237.904C301.143 237.744 300.791 237.531 300.492 237.264C300.204 236.987 299.975 236.661 299.804 236.288C299.644 235.904 299.564 235.483 299.564 235.024C299.564 234.299 299.671 233.616 299.884 232.976C300.108 232.336 300.428 231.776 300.844 231.296C301.26 230.816 301.772 230.437 302.38 230.16C302.988 229.883 303.687 229.744 304.476 229.744C305.031 229.744 305.511 229.835 305.916 230.016C306.332 230.187 306.674 230.421 306.94 230.72C307.207 231.008 307.404 231.339 307.532 231.712C307.671 232.085 307.74 232.469 307.74 232.864C307.74 232.992 307.73 233.125 307.708 233.264C307.698 233.392 307.671 233.563 307.628 233.776L307.452 234.592H301.628ZM304.156 231.568C303.655 231.568 303.218 231.696 302.844 231.952C302.482 232.197 302.21 232.501 302.028 232.864H305.772C305.772 232.459 305.644 232.144 305.388 231.92C305.143 231.685 304.732 231.568 304.156 231.568Z" fill="white"/>
<path d="M311.633 231.856L311.473 231.76L310.209 232.688L309.137 231.248L310.417 230.288C310.662 230.107 310.918 229.973 311.185 229.888C311.462 229.792 311.724 229.744 311.969 229.744C312.396 229.744 312.769 229.861 313.089 230.096C313.409 230.331 313.601 230.661 313.665 231.088H313.953C314.166 230.64 314.465 230.304 314.849 230.08C315.233 229.856 315.665 229.744 316.145 229.744C316.753 229.744 317.244 229.936 317.617 230.32C318.001 230.693 318.193 231.216 318.193 231.888C318.193 232.027 318.182 232.165 318.161 232.304C318.15 232.432 318.124 232.592 318.081 232.784L318.001 233.136L315.857 233.296L315.905 233.072C315.937 232.912 315.953 232.768 315.953 232.64C315.953 232.331 315.868 232.085 315.697 231.904C315.526 231.723 315.27 231.632 314.929 231.632C314.502 231.632 314.161 231.776 313.905 232.064C313.66 232.352 313.478 232.763 313.361 233.296L312.785 235.984H314.705V237.904H309.233V235.984H310.769L311.633 231.856Z" fill="white"/>
</svg>
