<svg width="561" height="276" viewBox="0 0 561 276" fill="none" xmlns="http://www.w3.org/2000/svg">
<rect width="560" height="276" fill="white"/>
<path d="M0 0H280V276H0V0Z" fill="white"/>
<rect x="78" y="39" width="140" height="146" fill="black"/>
<rect x="71" y="32.264" width="138" height="144" fill="#BAFF62"/>
<path d="M188.5 104.264C188.5 131.05 166.786 152.764 140 152.764C113.214 152.764 91.5 131.05 91.5 104.264C91.5 77.4782 113.214 55.764 140 55.764C166.786 55.764 188.5 77.4782 188.5 104.264Z" fill="black"/>
<rect x="71" y="32.264" width="138" height="144" stroke="black" stroke-width="2"/>
<path d="M97.7824 197.912L92.5984 205.904V206.336L94.7584 214.4H91.3984L89.6704 207.488H89.2384L85.0624 214.4H81.5344V214.112L86.6944 206.048V205.616L84.4864 197.6H87.7984L89.6224 204.464H90.0544L94.2304 197.6H97.7824V197.912Z" fill="black"/>
<path d="M112.766 197.888L105.806 208.496H105.086L103.838 214.4H100.67L101.918 208.496H101.198L98.5577 197.6H101.918L103.742 205.616H104.174L109.31 197.6H112.766V197.888Z" fill="black"/>
<path d="M114.549 197.6H125.925V202.784L114.429 210.944V211.376H123.645V214.4H111.813V209.216L123.333 201.056V200.624H114.549V197.6Z" fill="black"/>
<path d="M147.828 212.24L148.404 209.504H146.58L146.004 212.24H143.412L143.988 209.504H141.804V206.912H144.54L144.948 205.088H142.764V202.496H145.5L146.076 199.76H148.668L148.092 202.496H149.916L150.492 199.76H153.084L152.508 202.496H154.668V205.088H151.956L151.548 206.912H153.708V209.504H150.996L150.42 212.24H147.828ZM149.364 205.088H147.54L147.132 206.912H148.956L149.364 205.088Z" fill="black"/>
<path d="M160.699 211.376L163.291 199.184H162.859L160.051 204.944H156.883V204.656L160.603 197.6H166.795L163.867 211.376H168.019V214.4H155.947V211.376H160.699Z" fill="black"/>
<path d="M182.258 211.376V214.4H170.114L170.81 211.088C171.002 210.144 171.29 209.352 171.674 208.712C172.074 208.056 172.554 207.52 173.114 207.104C173.69 206.672 174.354 206.336 175.106 206.096C175.858 205.84 176.698 205.632 177.626 205.472C178.106 205.392 178.57 205.28 179.018 205.136C179.482 204.976 179.89 204.776 180.242 204.536C180.61 204.296 180.898 203.992 181.106 203.624C181.33 203.256 181.442 202.816 181.442 202.304C181.442 201.696 181.242 201.208 180.842 200.84C180.442 200.472 179.858 200.288 179.09 200.288C178.146 200.288 177.354 200.568 176.714 201.128C176.09 201.672 175.674 202.432 175.466 203.408L175.25 204.464H172.082L172.37 203.12C172.77 201.264 173.57 199.824 174.77 198.8C175.986 197.776 177.57 197.264 179.522 197.264C180.322 197.264 181.042 197.392 181.682 197.648C182.322 197.888 182.858 198.224 183.29 198.656C183.738 199.072 184.082 199.56 184.322 200.12C184.562 200.68 184.682 201.264 184.682 201.872C184.682 203.616 184.138 205.008 183.05 206.048C181.978 207.072 180.466 207.792 178.514 208.208C177.65 208.384 176.946 208.568 176.402 208.76C175.858 208.952 175.426 209.16 175.106 209.384C174.786 209.608 174.546 209.864 174.386 210.152C174.242 210.424 174.122 210.736 174.026 211.088L173.954 211.376H182.258Z" fill="black"/>
<path d="M190.858 207.2V202.208L195.874 201.056V200.624H188.194V197.6H198.466V202.88L193.21 204.176V204.608H193.762C194.29 204.608 194.794 204.696 195.274 204.872C195.77 205.048 196.21 205.312 196.594 205.664C196.978 206.016 197.282 206.456 197.506 206.984C197.746 207.512 197.866 208.128 197.866 208.832C197.866 209.712 197.706 210.512 197.386 211.232C197.066 211.952 196.61 212.576 196.018 213.104C195.442 213.616 194.73 214.016 193.882 214.304C193.05 214.592 192.122 214.736 191.098 214.736C190.266 214.736 189.506 214.616 188.818 214.376C188.146 214.136 187.57 213.8 187.09 213.368C186.61 212.936 186.234 212.424 185.962 211.832C185.706 211.24 185.578 210.592 185.578 209.888C185.578 209.472 185.626 209.048 185.722 208.616L185.842 208.016H189.01L188.914 208.52C188.882 208.712 188.858 208.872 188.842 209C188.826 209.112 188.818 209.232 188.818 209.36C188.818 210.08 189.034 210.656 189.466 211.088C189.914 211.504 190.57 211.712 191.434 211.712C192.346 211.712 193.098 211.496 193.69 211.064C194.282 210.616 194.578 209.984 194.578 209.168C194.578 208.56 194.37 208.08 193.954 207.728C193.554 207.376 193.002 207.2 192.298 207.2H190.858Z" fill="black"/>
<path d="M33 228.736H247V232.736H33V228.736Z" fill="#CBCBCB"/>
<path d="M68.5 240.736H211.5V244.736H68.5V240.736Z" fill="#CBCBCB"/>
<path d="M0 0H280H0ZM280 276H0H280ZM0 276V0V276ZM281 0V276H279V0H281Z" fill="black"/>
<path d="M330 20H510V24H330V20Z" fill="#CBCBCB"/>
<path d="M300 34H540V38H300V34Z" fill="#CBCBCB"/>
<path d="M280 70H560V72H280V70Z" fill="black"/>
<path d="M300 104H355V108H300V104Z" fill="#CBCBCB"/>
<path d="M483 104H540V108H483V104Z" fill="#CBCBCB"/>
<path d="M300 118H373V122H300V118Z" fill="#CBCBCB"/>
<path d="M483 118H540V122H483V118Z" fill="#CBCBCB"/>
<path d="M300 132H388V136H300V132Z" fill="#CBCBCB"/>
<path d="M483 132H540V136H483V132Z" fill="#CBCBCB"/>
<path d="M279 168H561V170H279V168Z" fill="black"/>
<rect width="78.6066" height="44" transform="translate(380.697 202)" fill="black"/>
<path d="M403.065 218.592H406.489L405.401 226.624L405.017 228.448H405.401L405.817 226.528L408.057 218.592H411.577L409.193 229.792H407.369L408.937 222.432L409.657 219.936H409.273L406.409 229.792H403.545L404.809 219.936H404.425L404.105 222.336L402.505 229.792H400.697L403.065 218.592Z" fill="white"/>
<path d="M417.118 229.6C416.904 229.749 416.686 229.856 416.462 229.92C416.238 229.984 416.019 230.016 415.806 230.016C415.571 230.016 415.347 229.973 415.134 229.888C414.92 229.813 414.734 229.707 414.574 229.568C414.414 229.419 414.286 229.243 414.19 229.04C414.104 228.827 414.062 228.592 414.062 228.336C414.062 228.133 414.083 227.947 414.126 227.776L415.086 223.76L414.926 223.648L412.782 225.12L411.774 223.616L414.094 222.048C414.307 221.899 414.526 221.792 414.75 221.728C414.974 221.664 415.192 221.632 415.406 221.632C415.64 221.632 415.864 221.675 416.078 221.76C416.291 221.835 416.478 221.947 416.638 222.096C416.798 222.235 416.92 222.411 417.006 222.624C417.102 222.827 417.15 223.056 417.15 223.312C417.15 223.515 417.128 223.701 417.086 223.872L416.126 227.888L416.286 228L418.43 226.528L419.438 228.032L417.118 229.6ZM418.51 219.504C418.51 219.717 418.467 219.92 418.382 220.112C418.307 220.293 418.2 220.453 418.062 220.592C417.923 220.72 417.758 220.827 417.566 220.912C417.384 220.987 417.192 221.024 416.99 221.024C416.776 221.024 416.579 220.987 416.398 220.912C416.216 220.827 416.056 220.72 415.918 220.592C415.779 220.453 415.667 220.293 415.582 220.112C415.507 219.92 415.47 219.717 415.47 219.504C415.47 219.291 415.507 219.093 415.582 218.912C415.667 218.72 415.779 218.56 415.918 218.432C416.056 218.293 416.216 218.187 416.398 218.112C416.579 218.027 416.776 217.984 416.99 217.984C417.192 217.984 417.384 218.027 417.566 218.112C417.758 218.187 417.923 218.293 418.062 218.432C418.2 218.56 418.307 218.72 418.382 218.912C418.467 219.093 418.51 219.291 418.51 219.504Z" fill="white"/>
<path d="M426.898 225.184C426.941 224.981 426.962 224.811 426.962 224.672C426.962 224.288 426.85 223.989 426.626 223.776C426.402 223.563 426.098 223.456 425.714 223.456C425.234 223.456 424.824 223.627 424.482 223.968C424.141 224.309 423.912 224.768 423.794 225.344L422.85 229.792H420.834L422.514 221.856H424.45L424.178 223.136H424.466C424.722 222.603 425.058 222.219 425.474 221.984C425.901 221.749 426.37 221.632 426.882 221.632C427.554 221.632 428.088 221.835 428.482 222.24C428.888 222.645 429.09 223.216 429.09 223.952C429.09 224.123 429.08 224.283 429.058 224.432C429.037 224.571 429.01 224.725 428.978 224.896L428.338 227.888L428.498 228L429.186 227.52L430.194 229.024L429.33 229.6C428.925 229.877 428.493 230.016 428.034 230.016C427.8 230.016 427.576 229.973 427.362 229.888C427.149 229.813 426.962 229.707 426.802 229.568C426.642 229.419 426.514 229.243 426.418 229.04C426.322 228.827 426.274 228.587 426.274 228.32C426.274 228.181 426.29 228.021 426.322 227.84L426.898 225.184Z" fill="white"/>
<path d="M434.119 223.776H431.879V221.856H434.535L435.271 218.368H437.287L436.551 221.856H439.303V223.776H436.135L435.239 227.888L435.399 228L437.543 226.528L438.551 228.032L436.231 229.6C435.826 229.877 435.394 230.016 434.935 230.016C434.701 230.016 434.477 229.973 434.263 229.888C434.05 229.813 433.863 229.701 433.703 229.552C433.543 229.403 433.415 229.221 433.319 229.008C433.223 228.795 433.175 228.555 433.175 228.288C433.175 228.203 433.181 228.128 433.191 228.064C433.202 227.989 433.218 227.893 433.239 227.776L434.119 223.776Z" fill="white"/>
</svg>
