<svg width="560" height="276" viewBox="0 0 560 276" fill="none" xmlns="http://www.w3.org/2000/svg">
<rect width="560" height="276" fill="#F2F2F2"/>
<rect width="226" height="73" transform="translate(20 20)" fill="white"/>
<circle cx="70.5" cy="60.5" r="25.5" fill="#BAFF62" stroke="black" stroke-width="2"/>
<path d="M92 56.5C92 70.5833 80.5833 82 66.5 82C52.4167 82 41 70.5833 41 56.5C41 42.4167 52.4167 31 66.5 31C80.5833 31 92 42.4167 92 56.5Z" fill="#BAFF62" stroke="black" stroke-width="2"/>
<path d="M69.4608 66.9556H72.1301V43H69.4608V52.6507H69.0501C68.4569 51.624 67.6356 50.8483 66.5861 50.3236C65.5366 49.776 64.3959 49.5022 63.1639 49.5022C62.1144 49.5022 61.122 49.6961 60.1866 50.084C59.2512 50.4719 58.4298 51.0308 57.7226 51.7609C56.9925 52.491 56.4221 53.3921 56.0115 54.4644C55.578 55.5367 55.3612 56.7573 55.3612 58.1262V58.8107C55.3612 60.2024 55.5666 61.4344 55.9772 62.5067C56.3879 63.579 56.9583 64.4801 57.6884 65.2102C58.3956 65.9403 59.2284 66.4993 60.1866 66.8871C61.1448 67.2521 62.1601 67.4347 63.2323 67.4347C63.7799 67.4347 64.3389 67.3662 64.9092 67.2293C65.4796 67.1153 66.0272 66.9327 66.5519 66.6818C67.0538 66.408 67.5215 66.0886 67.955 65.7236C68.3885 65.3357 68.7535 64.8794 69.0501 64.3547H69.4608V66.9556ZM63.7799 64.9022C62.9586 64.9022 62.2057 64.7653 61.5212 64.4916C60.8368 64.195 60.2436 63.7843 59.7417 63.2596C59.2169 62.7348 58.8177 62.096 58.5439 61.3431C58.2473 60.5902 58.099 59.7461 58.099 58.8107V58.1262C58.099 57.2136 58.2473 56.3923 58.5439 55.6622C58.8177 54.9093 59.2169 54.2705 59.7417 53.7458C60.2436 53.1982 60.8482 52.7761 61.5555 52.4796C62.2399 52.183 62.9814 52.0347 63.7799 52.0347C64.5784 52.0347 65.3199 52.1944 66.0043 52.5138C66.6888 52.8104 67.2934 53.2324 67.8181 53.78C68.3201 54.3276 68.7193 54.9892 69.0159 55.7649C69.3125 56.5178 69.4608 57.3505 69.4608 58.2631V58.6738C69.4608 59.6092 69.3125 60.4647 69.0159 61.2404C68.7193 61.9933 68.3201 62.6436 67.8181 63.1911C67.2934 63.7387 66.6888 64.1607 66.0043 64.4573C65.3199 64.7539 64.5784 64.9022 63.7799 64.9022Z" fill="black"/>
<rect x="20" y="20" width="93" height="73" stroke="black" stroke-width="2"/>
<rect x="113" y="20" width="133" height="73" fill="#BAFF62"/>
<path d="M148.04 61.876V49.684H147.608L146.024 55.444H143V55.156L145.016 48.1H151.208V61.876H155.384V64.9H143.288V61.876H148.04Z" fill="black"/>
<path d="M166.023 62.956C166.023 63.276 165.959 63.58 165.831 63.868C165.719 64.14 165.559 64.38 165.351 64.588C165.143 64.78 164.895 64.932 164.607 65.044C164.335 65.172 164.047 65.236 163.743 65.236C163.423 65.236 163.127 65.172 162.855 65.044C162.583 64.932 162.343 64.78 162.135 64.588C161.927 64.38 161.759 64.14 161.631 63.868C161.519 63.58 161.463 63.276 161.463 62.956C161.463 62.636 161.519 62.34 161.631 62.068C161.759 61.78 161.927 61.54 162.135 61.348C162.343 61.14 162.583 60.98 162.855 60.868C163.127 60.74 163.423 60.676 163.743 60.676C164.047 60.676 164.335 60.74 164.607 60.868C164.895 60.98 165.143 61.14 165.351 61.348C165.559 61.54 165.719 61.78 165.831 62.068C165.959 62.34 166.023 62.636 166.023 62.956Z" fill="black"/>
<path d="M176.423 56.5C176.423 55.956 176.623 55.484 177.023 55.084C177.423 54.684 177.895 54.484 178.439 54.484C178.983 54.484 179.455 54.684 179.855 55.084C180.255 55.484 180.455 55.956 180.455 56.5C180.455 57.044 180.255 57.516 179.855 57.916C179.455 58.316 178.983 58.516 178.439 58.516C177.895 58.516 177.423 58.316 177.023 57.916C176.623 57.516 176.423 57.044 176.423 56.5ZM172.247 54.628C172.247 52.452 172.791 50.764 173.879 49.564C174.983 48.364 176.503 47.764 178.439 47.764C180.375 47.764 181.887 48.364 182.975 49.564C184.079 50.764 184.631 52.452 184.631 54.628V58.372C184.631 60.612 184.079 62.316 182.975 63.484C181.887 64.652 180.375 65.236 178.439 65.236C176.503 65.236 174.983 64.652 173.879 63.484C172.791 62.316 172.247 60.612 172.247 58.372V54.628ZM178.439 62.356C179.015 62.356 179.495 62.268 179.879 62.092C180.263 61.9 180.575 61.636 180.815 61.3C181.055 60.964 181.223 60.564 181.319 60.1C181.415 59.636 181.463 59.124 181.463 58.564V54.436C181.463 53.908 181.407 53.412 181.295 52.948C181.183 52.484 181.007 52.084 180.767 51.748C180.527 51.412 180.215 51.148 179.831 50.956C179.447 50.748 178.983 50.644 178.439 50.644C177.895 50.644 177.431 50.748 177.047 50.956C176.663 51.148 176.351 51.412 176.111 51.748C175.871 52.084 175.695 52.484 175.583 52.948C175.471 53.412 175.415 53.908 175.415 54.436V58.564C175.415 59.124 175.463 59.636 175.559 60.1C175.655 60.564 175.823 60.964 176.063 61.3C176.303 61.636 176.615 61.9 176.999 62.092C177.383 62.268 177.863 62.356 178.439 62.356Z" fill="black"/>
<path d="M191.118 56.5C191.118 55.956 191.318 55.484 191.718 55.084C192.118 54.684 192.59 54.484 193.134 54.484C193.678 54.484 194.15 54.684 194.55 55.084C194.95 55.484 195.15 55.956 195.15 56.5C195.15 57.044 194.95 57.516 194.55 57.916C194.15 58.316 193.678 58.516 193.134 58.516C192.59 58.516 192.118 58.316 191.718 57.916C191.318 57.516 191.118 57.044 191.118 56.5ZM186.942 54.628C186.942 52.452 187.486 50.764 188.574 49.564C189.678 48.364 191.198 47.764 193.134 47.764C195.07 47.764 196.582 48.364 197.67 49.564C198.774 50.764 199.326 52.452 199.326 54.628V58.372C199.326 60.612 198.774 62.316 197.67 63.484C196.582 64.652 195.07 65.236 193.134 65.236C191.198 65.236 189.678 64.652 188.574 63.484C187.486 62.316 186.942 60.612 186.942 58.372V54.628ZM193.134 62.356C193.71 62.356 194.19 62.268 194.574 62.092C194.958 61.9 195.27 61.636 195.51 61.3C195.75 60.964 195.918 60.564 196.014 60.1C196.11 59.636 196.158 59.124 196.158 58.564V54.436C196.158 53.908 196.102 53.412 195.99 52.948C195.878 52.484 195.702 52.084 195.462 51.748C195.222 51.412 194.91 51.148 194.526 50.956C194.142 50.748 193.678 50.644 193.134 50.644C192.59 50.644 192.126 50.748 191.742 50.956C191.358 51.148 191.046 51.412 190.806 51.748C190.566 52.084 190.39 52.484 190.278 52.948C190.166 53.412 190.11 53.908 190.11 54.436V58.564C190.11 59.124 190.158 59.636 190.254 60.1C190.35 60.564 190.518 60.964 190.758 61.3C190.998 61.636 191.31 61.9 191.694 62.092C192.078 62.268 192.558 62.356 193.134 62.356Z" fill="black"/>
<rect x="113" y="20" width="133" height="73" stroke="black" stroke-width="2"/>
<path d="M294 41.6111L291.858 43.7889L281.147 32.9L283.289 30.7222L294 41.6111Z" fill="black"/>
<path d="M291.858 39.4333L294 41.6111L283.289 52.5L281.147 50.3222L291.858 39.4333Z" fill="black"/>
<path d="M266 43.0416L266 39.9618L291.75 39.9618V43.0416L266 43.0416Z" fill="black"/>
<path d="M266 71.3889L268.142 69.2111L278.853 80.1L276.711 82.2778L266 71.3889Z" fill="black"/>
<path d="M268.142 73.5667L266 71.3889L276.711 60.5L278.853 62.6778L268.142 73.5667Z" fill="black"/>
<path d="M294 69.9584L294 73.0383L268.25 73.0383L268.25 69.9584L294 69.9584Z" fill="black"/>
<rect width="226" height="73" transform="translate(314 20)" fill="white"/>
<circle cx="364.5" cy="60.5" r="25.5" fill="#7761FF" stroke="black" stroke-width="2"/>
<circle cx="360.5" cy="56.5" r="25.5" fill="#7761FF" stroke="black" stroke-width="2"/>
<path d="M362.099 46.1542C363.015 46.3111 363.838 46.5857 364.57 46.9779C365.329 47.3439 365.969 47.8015 366.492 48.3506C367.015 48.8996 367.42 49.5141 367.708 50.1939C367.996 50.8476 368.139 51.5405 368.139 52.2726V52.9785H365.159V52.5079C365.159 51.645 364.871 50.9129 364.296 50.3116C363.747 49.7102 363.015 49.2918 362.099 49.0565V54.665C364.27 54.9265 365.917 55.5278 367.041 56.4691C368.192 57.3842 368.767 58.6524 368.767 60.2734V60.5088C368.767 62.2606 368.152 63.6725 366.924 64.7445C365.721 65.7904 364.113 66.3787 362.099 66.5094V68.9018H359.276V66.431C358.125 66.248 357.132 65.9342 356.295 65.4897C355.484 65.0191 354.805 64.47 354.255 63.8425C353.733 63.1888 353.34 62.4959 353.079 61.7638C352.817 61.0056 352.687 60.2473 352.687 59.489V58.5478H355.667V59.0184C355.667 60.2734 355.981 61.2801 356.609 62.0383C357.236 62.7966 358.125 63.3065 359.276 63.5679V57.1751C357.315 56.9136 355.811 56.3514 354.765 55.4886C353.746 54.5996 353.236 53.3707 353.236 51.8019V51.5666C353.236 50.7299 353.393 49.9978 353.706 49.3703C354.046 48.7166 354.491 48.1675 355.04 47.723C355.589 47.2524 356.23 46.8864 356.962 46.6249C357.694 46.3373 358.465 46.1542 359.276 46.0758V43.6442H362.099V46.1542ZM365.708 60.5088C365.708 59.5936 365.42 58.9138 364.845 58.4693C364.27 58.0248 363.355 57.698 362.099 57.4888V63.6856C363.224 63.5549 364.1 63.2149 364.727 62.6659C365.381 62.1168 365.708 61.3978 365.708 60.5088ZM356.295 51.5666C356.295 52.2987 356.504 52.9001 356.922 53.3707C357.367 53.8152 358.151 54.1421 359.276 54.3512V48.8996C358.439 49.0304 357.733 49.318 357.158 49.7625C356.583 50.207 356.295 50.8084 356.295 51.5666Z" fill="black"/>
<rect x="314" y="20" width="93" height="73" stroke="black" stroke-width="2"/>
<rect x="407" y="20" width="133" height="73" fill="#7761FF"/>
<path d="M448.952 61.876V64.9H437.144V61.588C437.144 60.708 437.272 59.956 437.528 59.332C437.8 58.708 438.176 58.18 438.656 57.748C439.152 57.316 439.744 56.964 440.432 56.692C441.12 56.404 441.896 56.164 442.76 55.972C443.4 55.828 443.92 55.668 444.32 55.492C444.736 55.3 445.064 55.092 445.304 54.868C445.544 54.628 445.704 54.372 445.784 54.1C445.88 53.812 445.928 53.492 445.928 53.14C445.928 52.468 445.68 51.908 445.184 51.46C444.704 51.012 444.032 50.788 443.168 50.788C442.256 50.788 441.528 51.068 440.984 51.628C440.44 52.172 440.168 52.932 440.168 53.908V54.964H437V53.62C437 52.836 437.136 52.092 437.408 51.388C437.696 50.668 438.096 50.044 438.608 49.516C439.136 48.972 439.776 48.548 440.528 48.244C441.28 47.924 442.128 47.764 443.072 47.764C444.08 47.764 444.96 47.916 445.712 48.22C446.464 48.508 447.088 48.892 447.584 49.372C448.096 49.852 448.472 50.412 448.712 51.052C448.968 51.676 449.096 52.324 449.096 52.996V53.284C449.096 54.692 448.696 55.86 447.896 56.788C447.112 57.716 445.824 58.388 444.032 58.804C443.28 58.98 442.656 59.164 442.16 59.356C441.68 59.532 441.304 59.732 441.032 59.956C440.76 60.18 440.568 60.428 440.456 60.7C440.36 60.956 440.312 61.252 440.312 61.588V61.876H448.952Z" fill="black"/>
<path d="M459.903 62.956C459.903 63.276 459.839 63.58 459.711 63.868C459.599 64.14 459.439 64.38 459.231 64.588C459.023 64.78 458.775 64.932 458.487 65.044C458.215 65.172 457.927 65.236 457.623 65.236C457.303 65.236 457.007 65.172 456.735 65.044C456.463 64.932 456.223 64.78 456.015 64.588C455.807 64.38 455.639 64.14 455.511 63.868C455.399 63.58 455.343 63.276 455.343 62.956C455.343 62.636 455.399 62.34 455.511 62.068C455.639 61.78 455.807 61.54 456.015 61.348C456.223 61.14 456.463 60.98 456.735 60.868C457.007 60.74 457.303 60.676 457.623 60.676C457.927 60.676 458.215 60.74 458.487 60.868C458.775 60.98 459.023 61.14 459.231 61.348C459.439 61.54 459.599 61.78 459.711 62.068C459.839 62.34 459.903 62.636 459.903 62.956Z" fill="black"/>
<path d="M470.303 56.5C470.303 55.956 470.503 55.484 470.903 55.084C471.303 54.684 471.775 54.484 472.319 54.484C472.863 54.484 473.335 54.684 473.735 55.084C474.135 55.484 474.335 55.956 474.335 56.5C474.335 57.044 474.135 57.516 473.735 57.916C473.335 58.316 472.863 58.516 472.319 58.516C471.775 58.516 471.303 58.316 470.903 57.916C470.503 57.516 470.303 57.044 470.303 56.5ZM466.127 54.628C466.127 52.452 466.671 50.764 467.759 49.564C468.863 48.364 470.383 47.764 472.319 47.764C474.255 47.764 475.767 48.364 476.855 49.564C477.959 50.764 478.511 52.452 478.511 54.628V58.372C478.511 60.612 477.959 62.316 476.855 63.484C475.767 64.652 474.255 65.236 472.319 65.236C470.383 65.236 468.863 64.652 467.759 63.484C466.671 62.316 466.127 60.612 466.127 58.372V54.628ZM472.319 62.356C472.895 62.356 473.375 62.268 473.759 62.092C474.143 61.9 474.455 61.636 474.695 61.3C474.935 60.964 475.103 60.564 475.199 60.1C475.295 59.636 475.343 59.124 475.343 58.564V54.436C475.343 53.908 475.287 53.412 475.175 52.948C475.063 52.484 474.887 52.084 474.647 51.748C474.407 51.412 474.095 51.148 473.711 50.956C473.327 50.748 472.863 50.644 472.319 50.644C471.775 50.644 471.311 50.748 470.927 50.956C470.543 51.148 470.231 51.412 469.991 51.748C469.751 52.084 469.575 52.484 469.463 52.948C469.351 53.412 469.295 53.908 469.295 54.436V58.564C469.295 59.124 469.343 59.636 469.439 60.1C469.535 60.564 469.703 60.964 469.943 61.3C470.183 61.636 470.495 61.9 470.879 62.092C471.263 62.268 471.743 62.356 472.319 62.356Z" fill="black"/>
<path d="M484.998 56.5C484.998 55.956 485.198 55.484 485.598 55.084C485.998 54.684 486.47 54.484 487.014 54.484C487.558 54.484 488.03 54.684 488.43 55.084C488.83 55.484 489.03 55.956 489.03 56.5C489.03 57.044 488.83 57.516 488.43 57.916C488.03 58.316 487.558 58.516 487.014 58.516C486.47 58.516 485.998 58.316 485.598 57.916C485.198 57.516 484.998 57.044 484.998 56.5ZM480.822 54.628C480.822 52.452 481.366 50.764 482.454 49.564C483.558 48.364 485.078 47.764 487.014 47.764C488.95 47.764 490.462 48.364 491.55 49.564C492.654 50.764 493.206 52.452 493.206 54.628V58.372C493.206 60.612 492.654 62.316 491.55 63.484C490.462 64.652 488.95 65.236 487.014 65.236C485.078 65.236 483.558 64.652 482.454 63.484C481.366 62.316 480.822 60.612 480.822 58.372V54.628ZM487.014 62.356C487.59 62.356 488.07 62.268 488.454 62.092C488.838 61.9 489.15 61.636 489.39 61.3C489.63 60.964 489.798 60.564 489.894 60.1C489.99 59.636 490.038 59.124 490.038 58.564V54.436C490.038 53.908 489.982 53.412 489.87 52.948C489.758 52.484 489.582 52.084 489.342 51.748C489.102 51.412 488.79 51.148 488.406 50.956C488.022 50.748 487.558 50.644 487.014 50.644C486.47 50.644 486.006 50.748 485.622 50.956C485.238 51.148 484.926 51.412 484.686 51.748C484.446 52.084 484.27 52.484 484.158 52.948C484.046 53.412 483.99 53.908 483.99 54.436V58.564C483.99 59.124 484.038 59.636 484.134 60.1C484.23 60.564 484.398 60.964 484.638 61.3C484.878 61.636 485.19 61.9 485.574 62.092C485.958 62.268 486.438 62.356 487.014 62.356Z" fill="black"/>
<rect x="407" y="20" width="133" height="73" stroke="black" stroke-width="2"/>
<rect x="164" y="122.667" width="376" height="4" fill="#CBCBCB"/>
<rect x="277" y="136.667" width="263" height="4" fill="#CBCBCB"/>
<rect y="170.333" width="560" height="2" fill="black"/>
<rect width="78.6546" height="44" transform="translate(240.673 202)" fill="black"/>
<path d="M267.761 220.512C267.793 220.352 267.809 220.208 267.809 220.08C267.809 219.664 267.659 219.328 267.361 219.072C267.062 218.805 266.603 218.672 265.985 218.672C265.739 218.672 265.499 218.699 265.265 218.752C265.03 218.805 264.822 218.891 264.641 219.008C264.459 219.115 264.315 219.253 264.209 219.424C264.102 219.595 264.049 219.792 264.049 220.016C264.049 220.389 264.203 220.683 264.513 220.896C264.833 221.109 265.345 221.275 266.049 221.392C267.041 221.552 267.819 221.872 268.385 222.352C268.961 222.821 269.249 223.509 269.249 224.416C269.249 225.024 269.137 225.568 268.913 226.048C268.699 226.528 268.39 226.939 267.985 227.28C267.59 227.621 267.11 227.883 266.545 228.064C265.979 228.245 265.345 228.336 264.641 228.336C263.969 228.336 263.382 228.251 262.881 228.08C262.379 227.899 261.963 227.659 261.633 227.36C261.313 227.051 261.073 226.693 260.913 226.288C260.753 225.883 260.673 225.445 260.673 224.976C260.673 224.837 260.678 224.699 260.689 224.56C260.699 224.421 260.721 224.277 260.753 224.128L260.833 223.76H262.945L262.881 224.032C262.838 224.235 262.817 224.464 262.817 224.72C262.817 225.232 262.977 225.632 263.297 225.92C263.627 226.208 264.118 226.352 264.769 226.352C265.473 226.352 266.022 226.208 266.417 225.92C266.811 225.621 267.009 225.216 267.009 224.704C267.009 224.299 266.838 223.984 266.497 223.76C266.166 223.536 265.606 223.365 264.817 223.248C264.443 223.195 264.075 223.099 263.713 222.96C263.361 222.821 263.046 222.629 262.769 222.384C262.491 222.139 262.267 221.84 262.097 221.488C261.926 221.125 261.841 220.699 261.841 220.208C261.841 219.707 261.931 219.243 262.113 218.816C262.305 218.379 262.582 218.005 262.945 217.696C263.318 217.376 263.771 217.131 264.305 216.96C264.849 216.779 265.473 216.688 266.177 216.688C266.774 216.688 267.307 216.763 267.777 216.912C268.246 217.061 268.641 217.269 268.961 217.536C269.291 217.803 269.542 218.123 269.713 218.496C269.883 218.859 269.969 219.253 269.969 219.68C269.969 219.797 269.963 219.915 269.953 220.032C269.942 220.149 269.921 220.283 269.889 220.432L269.825 220.72H267.713L267.761 220.512Z" fill="white"/>
<path d="M272.566 226.096L272.39 226.96H272.678L272.854 226.192L274.47 220.176H277.67L276.838 226.192L276.678 226.96H276.966L277.158 226.096L278.774 219.984L280.422 220.384L278.294 228.112H275.078L276.022 221.136H275.734L273.894 228.112H270.758L271.67 220.176H273.35L272.566 226.096Z" fill="white"/>
<path d="M287.706 226.208L287.866 226.32L288.634 225.776L289.642 227.28L288.698 227.92C288.282 228.197 287.845 228.336 287.386 228.336C286.981 228.336 286.618 228.224 286.298 228C285.978 227.776 285.776 227.461 285.69 227.056H285.402C285.306 227.237 285.194 227.408 285.066 227.568C284.938 227.717 284.778 227.851 284.586 227.968C284.405 228.075 284.186 228.16 283.93 228.224C283.685 228.299 283.392 228.336 283.05 228.336C282.634 228.336 282.25 228.256 281.898 228.096C281.546 227.925 281.237 227.696 280.97 227.408C280.714 227.109 280.512 226.763 280.362 226.368C280.213 225.973 280.138 225.541 280.138 225.072C280.138 224.357 280.234 223.691 280.426 223.072C280.618 222.453 280.896 221.915 281.258 221.456C281.621 220.987 282.064 220.619 282.586 220.352C283.12 220.085 283.717 219.952 284.378 219.952C284.965 219.952 285.429 220.069 285.77 220.304C286.112 220.539 286.341 220.848 286.458 221.232H286.746L286.97 220.176H288.986L287.706 226.208ZM283.834 226.416C284.218 226.416 284.56 226.341 284.858 226.192C285.157 226.032 285.402 225.824 285.594 225.568C285.797 225.312 285.952 225.013 286.058 224.672C286.165 224.32 286.218 223.952 286.218 223.568C286.218 223.067 286.074 222.661 285.786 222.352C285.498 222.032 285.114 221.872 284.634 221.872C284.25 221.872 283.909 221.952 283.61 222.112C283.312 222.261 283.061 222.464 282.858 222.72C282.656 222.976 282.501 223.28 282.394 223.632C282.288 223.973 282.234 224.336 282.234 224.72C282.234 225.168 282.362 225.563 282.618 225.904C282.885 226.245 283.29 226.416 283.834 226.416Z" fill="white"/>
<path d="M291.775 231.312H289.759L291.727 222.08L291.567 221.968L290.831 222.512L289.791 221.072L290.655 220.432C290.879 220.272 291.109 220.155 291.343 220.08C291.589 219.995 291.823 219.952 292.047 219.952C292.474 219.952 292.847 220.075 293.167 220.32C293.487 220.565 293.685 220.901 293.759 221.328H294.047C294.57 220.411 295.423 219.952 296.607 219.952C296.97 219.952 297.317 220.021 297.647 220.16C297.978 220.299 298.266 220.501 298.511 220.768C298.767 221.035 298.965 221.365 299.103 221.76C299.253 222.144 299.327 222.587 299.327 223.088C299.327 223.717 299.247 224.347 299.087 224.976C298.938 225.605 298.698 226.171 298.367 226.672C298.037 227.163 297.61 227.563 297.087 227.872C296.575 228.181 295.957 228.336 295.231 228.336C294.89 228.336 294.591 228.293 294.335 228.208C294.079 228.133 293.861 228.032 293.679 227.904C293.498 227.776 293.349 227.632 293.231 227.472C293.114 227.301 293.034 227.131 292.991 226.96H292.703L291.775 231.312ZM294.847 226.416C295.242 226.416 295.589 226.347 295.887 226.208C296.186 226.059 296.431 225.856 296.623 225.6C296.826 225.344 296.975 225.04 297.071 224.688C297.167 224.336 297.215 223.952 297.215 223.536C297.215 223.088 297.071 222.699 296.783 222.368C296.495 222.037 296.095 221.872 295.583 221.872C295.221 221.872 294.895 221.947 294.607 222.096C294.319 222.235 294.074 222.432 293.871 222.688C293.669 222.944 293.509 223.248 293.391 223.6C293.285 223.952 293.231 224.336 293.231 224.752C293.231 225.253 293.375 225.659 293.663 225.968C293.951 226.267 294.346 226.416 294.847 226.416Z" fill="white"/>
</svg>
