<svg width="560" height="315" viewBox="0 0 560 315" fill="none" xmlns="http://www.w3.org/2000/svg">
<rect width="560" height="315" fill="#F2F2F2"/>
<rect width="520" height="73" transform="translate(20 20)" fill="white"/>
<circle cx="70.5" cy="60.5" r="25.5" fill="#BAFF62" stroke="black" stroke-width="2"/>
<circle cx="66.5" cy="56.5" r="25.5" fill="#BAFF62" stroke="black" stroke-width="2"/>
<path d="M69.4608 66.9556H72.1301V43H69.4608V52.6507H69.0501C68.4569 51.624 67.6356 50.8483 66.5861 50.3236C65.5366 49.776 64.3959 49.5022 63.1639 49.5022C62.1144 49.5022 61.122 49.6961 60.1866 50.084C59.2512 50.4719 58.4298 51.0308 57.7226 51.7609C56.9925 52.491 56.4221 53.3921 56.0115 54.4644C55.578 55.5367 55.3612 56.7573 55.3612 58.1262V58.8107C55.3612 60.2024 55.5666 61.4344 55.9772 62.5067C56.3879 63.579 56.9583 64.4801 57.6884 65.2102C58.3956 65.9403 59.2284 66.4993 60.1866 66.8871C61.1448 67.2521 62.1601 67.4347 63.2323 67.4347C63.7799 67.4347 64.3389 67.3662 64.9092 67.2293C65.4796 67.1153 66.0272 66.9327 66.5519 66.6818C67.0538 66.408 67.5215 66.0886 67.955 65.7236C68.3885 65.3357 68.7535 64.8794 69.0501 64.3547H69.4608V66.9556ZM63.7799 64.9022C62.9586 64.9022 62.2057 64.7653 61.5212 64.4916C60.8368 64.195 60.2436 63.7843 59.7417 63.2596C59.2169 62.7348 58.8177 62.096 58.5439 61.3431C58.2473 60.5902 58.099 59.7461 58.099 58.8107V58.1262C58.099 57.2136 58.2473 56.3923 58.5439 55.6622C58.8177 54.9093 59.2169 54.2705 59.7417 53.7458C60.2436 53.1982 60.8482 52.7761 61.5555 52.4796C62.2399 52.183 62.9814 52.0347 63.7799 52.0347C64.5784 52.0347 65.3199 52.1944 66.0043 52.5138C66.6888 52.8104 67.2934 53.2324 67.8181 53.78C68.3201 54.3276 68.7193 54.9892 69.0159 55.7649C69.3125 56.5178 69.4608 57.3505 69.4608 58.2631V58.6738C69.4608 59.6092 69.3125 60.4647 69.0159 61.2404C68.7193 61.9933 68.3201 62.6436 67.8181 63.1911C67.2934 63.7387 66.6888 64.1607 66.0043 64.4573C65.3199 64.7539 64.5784 64.9022 63.7799 64.9022Z" fill="black"/>
<rect x="20" y="20" width="93" height="73" stroke="black" stroke-width="2"/>
<rect x="113" y="20" width="427" height="73" fill="#BAFF62"/>
<path d="M148.04 61.876V49.684H147.608L146.024 55.444H143V55.156L145.016 48.1H151.208V61.876H155.384V64.9H143.288V61.876H148.04Z" fill="black"/>
<path d="M169.767 61.876V64.9H157.959V61.588C157.959 60.708 158.087 59.956 158.343 59.332C158.615 58.708 158.991 58.18 159.471 57.748C159.967 57.316 160.559 56.964 161.247 56.692C161.935 56.404 162.711 56.164 163.575 55.972C164.215 55.828 164.735 55.668 165.135 55.492C165.551 55.3 165.879 55.092 166.119 54.868C166.359 54.628 166.519 54.372 166.599 54.1C166.695 53.812 166.743 53.492 166.743 53.14C166.743 52.468 166.495 51.908 165.999 51.46C165.519 51.012 164.847 50.788 163.983 50.788C163.071 50.788 162.343 51.068 161.799 51.628C161.255 52.172 160.983 52.932 160.983 53.908V54.964H157.815V53.62C157.815 52.836 157.951 52.092 158.223 51.388C158.511 50.668 158.911 50.044 159.423 49.516C159.951 48.972 160.591 48.548 161.343 48.244C162.095 47.924 162.943 47.764 163.887 47.764C164.895 47.764 165.775 47.916 166.527 48.22C167.279 48.508 167.903 48.892 168.399 49.372C168.911 49.852 169.287 50.412 169.527 51.052C169.783 51.676 169.911 52.324 169.911 52.996V53.284C169.911 54.692 169.511 55.86 168.711 56.788C167.927 57.716 166.639 58.388 164.847 58.804C164.095 58.98 163.471 59.164 162.975 59.356C162.495 59.532 162.119 59.732 161.847 59.956C161.575 60.18 161.383 60.428 161.271 60.7C161.175 60.956 161.127 61.252 161.127 61.588V61.876H169.767Z" fill="black"/>
<path d="M176.807 57.7V52.708L180.983 51.556V51.124H172.631V48.1H183.575V53.38L179.111 54.676V55.108H179.687C180.279 55.108 180.863 55.204 181.439 55.396C182.015 55.572 182.519 55.852 182.951 56.236C183.399 56.62 183.759 57.1 184.031 57.676C184.303 58.236 184.439 58.9 184.439 59.668V59.956C184.439 60.708 184.311 61.404 184.055 62.044C183.815 62.684 183.447 63.244 182.951 63.724C182.471 64.188 181.871 64.556 181.151 64.828C180.431 65.1 179.607 65.236 178.679 65.236C177.735 65.236 176.879 65.084 176.111 64.78C175.343 64.476 174.687 64.06 174.143 63.532C173.615 63.004 173.207 62.396 172.919 61.708C172.631 61.02 172.487 60.292 172.487 59.524V58.516H175.655V59.38C175.655 60.148 175.903 60.812 176.399 61.372C176.895 61.932 177.639 62.212 178.631 62.212C179.479 62.212 180.127 61.996 180.575 61.564C181.039 61.132 181.271 60.564 181.271 59.86C181.271 59.108 181.023 58.564 180.527 58.228C180.047 57.876 179.431 57.7 178.679 57.7H176.807Z" fill="black"/>
<path d="M195.414 62.956C195.414 63.276 195.35 63.58 195.222 63.868C195.11 64.14 194.95 64.38 194.742 64.588C194.534 64.78 194.286 64.932 193.998 65.044C193.726 65.172 193.438 65.236 193.134 65.236C192.814 65.236 192.518 65.172 192.246 65.044C191.974 64.932 191.734 64.78 191.526 64.588C191.318 64.38 191.15 64.14 191.022 63.868C190.91 63.58 190.854 63.276 190.854 62.956C190.854 62.636 190.91 62.34 191.022 62.068C191.15 61.78 191.318 61.54 191.526 61.348C191.734 61.14 191.974 60.98 192.246 60.868C192.518 60.74 192.814 60.676 193.134 60.676C193.438 60.676 193.726 60.74 193.998 60.868C194.286 60.98 194.534 61.14 194.742 61.348C194.95 61.54 195.11 61.78 195.222 62.068C195.35 62.34 195.414 62.636 195.414 62.956Z" fill="black"/>
<path d="M205.813 56.5C205.813 55.956 206.013 55.484 206.413 55.084C206.813 54.684 207.285 54.484 207.829 54.484C208.373 54.484 208.845 54.684 209.245 55.084C209.645 55.484 209.845 55.956 209.845 56.5C209.845 57.044 209.645 57.516 209.245 57.916C208.845 58.316 208.373 58.516 207.829 58.516C207.285 58.516 206.813 58.316 206.413 57.916C206.013 57.516 205.813 57.044 205.813 56.5ZM201.637 54.628C201.637 52.452 202.181 50.764 203.269 49.564C204.373 48.364 205.893 47.764 207.829 47.764C209.765 47.764 211.277 48.364 212.365 49.564C213.469 50.764 214.021 52.452 214.021 54.628V58.372C214.021 60.612 213.469 62.316 212.365 63.484C211.277 64.652 209.765 65.236 207.829 65.236C205.893 65.236 204.373 64.652 203.269 63.484C202.181 62.316 201.637 60.612 201.637 58.372V54.628ZM207.829 62.356C208.405 62.356 208.885 62.268 209.269 62.092C209.653 61.9 209.965 61.636 210.205 61.3C210.445 60.964 210.613 60.564 210.709 60.1C210.805 59.636 210.853 59.124 210.853 58.564V54.436C210.853 53.908 210.797 53.412 210.685 52.948C210.573 52.484 210.397 52.084 210.157 51.748C209.917 51.412 209.605 51.148 209.221 50.956C208.837 50.748 208.373 50.644 207.829 50.644C207.285 50.644 206.821 50.748 206.437 50.956C206.053 51.148 205.741 51.412 205.501 51.748C205.261 52.084 205.085 52.484 204.973 52.948C204.861 53.412 204.805 53.908 204.805 54.436V58.564C204.805 59.124 204.853 59.636 204.949 60.1C205.045 60.564 205.213 60.964 205.453 61.3C205.693 61.636 206.005 61.9 206.389 62.092C206.773 62.268 207.253 62.356 207.829 62.356Z" fill="black"/>
<path d="M220.509 56.5C220.509 55.956 220.709 55.484 221.109 55.084C221.509 54.684 221.981 54.484 222.525 54.484C223.069 54.484 223.541 54.684 223.941 55.084C224.341 55.484 224.541 55.956 224.541 56.5C224.541 57.044 224.341 57.516 223.941 57.916C223.541 58.316 223.069 58.516 222.525 58.516C221.981 58.516 221.509 58.316 221.109 57.916C220.709 57.516 220.509 57.044 220.509 56.5ZM216.333 54.628C216.333 52.452 216.877 50.764 217.965 49.564C219.069 48.364 220.589 47.764 222.525 47.764C224.461 47.764 225.973 48.364 227.061 49.564C228.165 50.764 228.717 52.452 228.717 54.628V58.372C228.717 60.612 228.165 62.316 227.061 63.484C225.973 64.652 224.461 65.236 222.525 65.236C220.589 65.236 219.069 64.652 217.965 63.484C216.877 62.316 216.333 60.612 216.333 58.372V54.628ZM222.525 62.356C223.101 62.356 223.581 62.268 223.965 62.092C224.349 61.9 224.661 61.636 224.901 61.3C225.141 60.964 225.309 60.564 225.405 60.1C225.501 59.636 225.549 59.124 225.549 58.564V54.436C225.549 53.908 225.493 53.412 225.381 52.948C225.269 52.484 225.093 52.084 224.853 51.748C224.613 51.412 224.301 51.148 223.917 50.956C223.533 50.748 223.069 50.644 222.525 50.644C221.981 50.644 221.517 50.748 221.133 50.956C220.749 51.148 220.437 51.412 220.197 51.748C219.957 52.084 219.781 52.484 219.669 52.948C219.557 53.412 219.501 53.908 219.501 54.436V58.564C219.501 59.124 219.549 59.636 219.645 60.1C219.741 60.564 219.909 60.964 220.149 61.3C220.389 61.636 220.701 61.9 221.085 62.092C221.469 62.268 221.949 62.356 222.525 62.356Z" fill="black"/>
<rect x="113" y="20" width="427" height="73" stroke="black" stroke-width="2"/>
<path d="M280 126L277.5 123.541L290 111.245L292.5 113.705L280 126Z" fill="black"/>
<path d="M282.5 123.541L280 126L267.5 113.705L270 111.246L282.5 123.541Z" fill="black"/>
<path d="M278.358 101H281.893L281.893 123.417H278.358L278.358 101Z" fill="black"/>
<rect x="29" y="144" width="518" height="56" fill="white" stroke="black" stroke-width="2"/>
<rect x="20" y="134" width="520" height="58" fill="white"/>
<path d="M54.944 163C54.944 162.584 55.096 162.224 55.4 161.92C55.704 161.616 56.064 161.464 56.48 161.464C56.896 161.464 57.256 161.616 57.56 161.92C57.864 162.224 58.016 162.584 58.016 163C58.016 163.416 57.864 163.776 57.56 164.08C57.256 164.384 56.896 164.536 56.48 164.536C56.064 164.536 55.704 164.384 55.4 164.08C55.096 163.776 54.944 163.416 54.944 163ZM50.984 161.128C51.448 158.888 52.264 157.184 53.432 156.016C54.616 154.848 56.2 154.264 58.184 154.264C59.736 154.264 60.92 154.712 61.736 155.608C62.568 156.488 62.984 157.712 62.984 159.28C62.984 159.6 62.96 159.944 62.912 160.312C62.88 160.664 62.824 161.024 62.744 161.392L62 164.872C61.536 167.112 60.712 168.816 59.528 169.984C58.36 171.152 56.784 171.736 54.8 171.736C53.248 171.736 52.056 171.296 51.224 170.416C50.408 169.52 50 168.288 50 166.72C50 166.4 50.016 166.064 50.048 165.712C50.096 165.344 50.16 164.976 50.24 164.608L50.984 161.128ZM55.088 169.912C55.744 169.912 56.336 169.792 56.864 169.552C57.408 169.296 57.88 168.944 58.28 168.496C58.696 168.032 59.04 167.488 59.312 166.864C59.6 166.224 59.832 165.512 60.008 164.728L60.776 161.128C60.904 160.488 60.968 159.928 60.968 159.448C60.968 158.408 60.712 157.592 60.2 157C59.688 156.392 58.92 156.088 57.896 156.088C56.568 156.088 55.496 156.56 54.68 157.504C53.88 158.448 53.312 159.704 52.976 161.272L52.208 164.872C52.08 165.512 52.016 166.072 52.016 166.552C52.016 167.592 52.272 168.416 52.784 169.024C53.296 169.616 54.064 169.912 55.088 169.912Z" fill="black"/>
<path d="M69.5913 165.352L67.9833 161.464C67.8873 161.256 67.7433 161.152 67.5513 161.152C67.3593 161.152 67.2153 161.248 67.1193 161.44L66.0633 163.24L64.5753 162.376L65.6553 160.504C65.9113 160.072 66.1913 159.744 66.4953 159.52C66.8153 159.28 67.2073 159.16 67.6713 159.16C68.5353 159.16 69.1673 159.632 69.5673 160.576L70.9833 164.008L75.8313 159.256L77.1033 160.528L71.7273 165.784L73.2873 169.48C73.3833 169.688 73.5273 169.792 73.7193 169.792C73.8953 169.792 74.0313 169.704 74.1273 169.528L75.1593 167.68L76.6713 168.496L75.6393 170.392C75.3833 170.856 75.0873 171.192 74.7513 171.4C74.4153 171.624 74.0313 171.736 73.5993 171.736C73.2153 171.736 72.8473 171.624 72.4953 171.4C72.1593 171.192 71.8873 170.848 71.6793 170.368L70.3353 167.152L65.7033 171.688L64.4313 170.416L69.5913 165.352Z" fill="black"/>
<path d="M88.6306 167.224H81.8866L79.8466 171.4H77.5666L85.8946 154.6H89.7346L90.9346 171.4H88.8946L88.6306 167.224ZM82.7986 165.352H88.5106L87.8866 155.488H87.5986L82.7986 165.352Z" fill="black"/>
<path d="M101.694 169.528C101.182 170.376 100.574 170.96 99.8699 171.28C99.1659 171.584 98.4219 171.736 97.6379 171.736C96.9979 171.736 96.4139 171.624 95.8859 171.4C95.3579 171.176 94.9099 170.864 94.5419 170.464C94.1739 170.048 93.8859 169.552 93.6779 168.976C93.4699 168.384 93.3659 167.736 93.3659 167.032C93.3659 166.04 93.5179 165.072 93.8219 164.128C94.1259 163.184 94.5659 162.344 95.1419 161.608C95.7179 160.872 96.4219 160.28 97.2539 159.832C98.1019 159.384 99.0699 159.16 100.158 159.16C101.006 159.16 101.71 159.336 102.27 159.688C102.846 160.04 103.238 160.6 103.446 161.368H103.734L105.222 154.264H107.094L103.878 169.384C103.83 169.672 103.934 169.816 104.19 169.816C104.286 169.816 104.39 169.776 104.502 169.696L105.366 169.072L106.398 170.488L105.318 171.304C105.142 171.432 104.926 171.536 104.67 171.616C104.43 171.696 104.158 171.736 103.854 171.736C103.614 171.736 103.382 171.704 103.158 171.64C102.934 171.576 102.726 171.48 102.534 171.352C102.358 171.208 102.214 171.032 102.102 170.824C101.99 170.6 101.934 170.328 101.934 170.008C101.934 169.928 101.934 169.848 101.934 169.768C101.95 169.688 101.966 169.608 101.982 169.528H101.694ZM98.2139 169.96C98.8539 169.96 99.4619 169.816 100.038 169.528C100.63 169.224 101.142 168.816 101.574 168.304C102.022 167.792 102.374 167.192 102.63 166.504C102.886 165.8 103.014 165.04 103.014 164.224C103.014 163.232 102.766 162.44 102.27 161.848C101.774 161.24 101.054 160.936 100.11 160.936C99.3579 160.936 98.6859 161.104 98.0939 161.44C97.5179 161.76 97.0219 162.192 96.6059 162.736C96.1899 163.264 95.8699 163.88 95.6459 164.584C95.4379 165.288 95.3339 166.016 95.3339 166.768C95.3339 168.896 96.2939 169.96 98.2139 169.96Z" fill="black"/>
<path d="M116.389 169.528C115.877 170.376 115.269 170.96 114.565 171.28C113.861 171.584 113.117 171.736 112.333 171.736C111.693 171.736 111.109 171.624 110.581 171.4C110.053 171.176 109.605 170.864 109.237 170.464C108.869 170.048 108.581 169.552 108.373 168.976C108.165 168.384 108.061 167.736 108.061 167.032C108.061 166.04 108.213 165.072 108.517 164.128C108.821 163.184 109.261 162.344 109.837 161.608C110.413 160.872 111.117 160.28 111.949 159.832C112.797 159.384 113.765 159.16 114.853 159.16C115.701 159.16 116.405 159.336 116.965 159.688C117.541 160.04 117.933 160.6 118.141 161.368H118.429L119.917 154.264H121.789L118.573 169.384C118.525 169.672 118.629 169.816 118.885 169.816C118.981 169.816 119.085 169.776 119.197 169.696L120.061 169.072L121.093 170.488L120.013 171.304C119.837 171.432 119.621 171.536 119.365 171.616C119.125 171.696 118.853 171.736 118.549 171.736C118.309 171.736 118.077 171.704 117.853 171.64C117.629 171.576 117.421 171.48 117.229 171.352C117.053 171.208 116.909 171.032 116.797 170.824C116.685 170.6 116.629 170.328 116.629 170.008C116.629 169.928 116.629 169.848 116.629 169.768C116.645 169.688 116.661 169.608 116.677 169.528H116.389ZM112.909 169.96C113.549 169.96 114.157 169.816 114.733 169.528C115.325 169.224 115.837 168.816 116.269 168.304C116.717 167.792 117.069 167.192 117.325 166.504C117.581 165.8 117.709 165.04 117.709 164.224C117.709 163.232 117.461 162.44 116.965 161.848C116.469 161.24 115.749 160.936 114.805 160.936C114.053 160.936 113.381 161.104 112.789 161.44C112.213 161.76 111.717 162.192 111.301 162.736C110.885 163.264 110.565 163.88 110.341 164.584C110.133 165.288 110.029 166.016 110.029 166.768C110.029 168.896 110.989 169.96 112.909 169.96Z" fill="black"/>
<path d="M127.317 161.56C127.365 161.368 127.341 161.224 127.245 161.128C127.149 161.016 127.029 160.96 126.885 160.96C126.757 160.96 126.637 161 126.525 161.08L124.341 162.568L123.381 161.152L125.517 159.712C126.061 159.344 126.613 159.16 127.173 159.16C127.669 159.16 128.101 159.304 128.469 159.592C128.837 159.864 129.045 160.312 129.093 160.936H129.381C129.845 160.28 130.365 159.824 130.941 159.568C131.517 159.296 132.117 159.16 132.741 159.16C133.893 159.16 134.797 159.496 135.453 160.168C136.109 160.824 136.437 161.696 136.437 162.784C136.437 163.2 136.389 163.624 136.293 164.056L134.253 164.2C134.333 163.8 134.373 163.464 134.373 163.192C134.373 162.424 134.157 161.856 133.725 161.488C133.309 161.12 132.765 160.936 132.093 160.936C131.613 160.936 131.173 161.032 130.773 161.224C130.389 161.4 130.053 161.648 129.765 161.968C129.477 162.272 129.229 162.632 129.021 163.048C128.829 163.464 128.685 163.896 128.589 164.344L127.461 169.672H130.293V171.4H122.661V169.672H125.589L127.317 161.56Z" fill="black"/>
<path d="M140.044 166.024C140.012 166.152 139.988 166.296 139.972 166.456C139.956 166.616 139.948 166.784 139.948 166.96C139.948 167.84 140.204 168.568 140.716 169.144C141.228 169.704 142.044 169.984 143.164 169.984C143.724 169.984 144.22 169.92 144.652 169.792C145.1 169.664 145.484 169.488 145.804 169.264C146.124 169.024 146.396 168.76 146.62 168.472C146.86 168.168 147.06 167.848 147.22 167.512L148.756 168.376C148.532 168.84 148.252 169.28 147.916 169.696C147.58 170.096 147.18 170.448 146.716 170.752C146.252 171.056 145.716 171.296 145.108 171.472C144.5 171.648 143.804 171.736 143.02 171.736C142.3 171.736 141.636 171.624 141.028 171.4C140.436 171.192 139.924 170.888 139.492 170.488C139.06 170.072 138.724 169.568 138.484 168.976C138.244 168.384 138.124 167.712 138.124 166.96C138.124 165.952 138.284 164.984 138.604 164.056C138.924 163.112 139.388 162.28 139.996 161.56C140.604 160.84 141.356 160.264 142.252 159.832C143.148 159.384 144.164 159.16 145.3 159.16C146.1 159.16 146.796 159.288 147.388 159.544C147.98 159.784 148.468 160.12 148.852 160.552C149.236 160.968 149.524 161.448 149.716 161.992C149.908 162.52 150.004 163.072 150.004 163.648C150.004 164.08 149.956 164.496 149.86 164.896L149.596 166.024H140.044ZM145.06 160.936C144.5 160.936 143.972 161.024 143.476 161.2C142.996 161.36 142.556 161.592 142.156 161.896C141.756 162.2 141.412 162.56 141.124 162.976C140.836 163.376 140.612 163.816 140.452 164.296H148.084C148.132 164.04 148.156 163.8 148.156 163.576C148.156 162.712 147.86 162.056 147.268 161.608C146.676 161.16 145.94 160.936 145.06 160.936Z" fill="black"/>
<path d="M160.115 160.84C159.795 160.84 159.459 160.88 159.107 160.96C158.771 161.04 158.459 161.16 158.171 161.32C157.899 161.48 157.675 161.688 157.499 161.944C157.323 162.184 157.235 162.472 157.235 162.808C157.235 163.32 157.459 163.704 157.907 163.96C158.371 164.216 159.163 164.384 160.283 164.464C161.435 164.544 162.323 164.832 162.947 165.328C163.587 165.824 163.907 166.552 163.907 167.512C163.907 168.184 163.763 168.784 163.475 169.312C163.203 169.84 162.819 170.288 162.323 170.656C161.827 171.008 161.235 171.272 160.547 171.448C159.875 171.64 159.131 171.736 158.315 171.736C157.499 171.736 156.803 171.624 156.227 171.4C155.667 171.192 155.203 170.912 154.835 170.56C154.467 170.192 154.195 169.784 154.019 169.336C153.859 168.872 153.779 168.4 153.779 167.92C153.779 167.84 153.779 167.76 153.779 167.68C153.779 167.584 153.787 167.496 153.803 167.416L155.675 167.176C155.659 167.304 155.651 167.384 155.651 167.416C155.651 167.448 155.651 167.496 155.651 167.56C155.651 167.912 155.699 168.24 155.795 168.544C155.907 168.832 156.083 169.088 156.323 169.312C156.563 169.52 156.875 169.688 157.259 169.816C157.643 169.944 158.115 170.008 158.675 170.008C159.043 170.008 159.419 169.968 159.803 169.888C160.203 169.792 160.563 169.656 160.883 169.48C161.203 169.288 161.467 169.056 161.675 168.784C161.883 168.496 161.987 168.152 161.987 167.752C161.987 167.128 161.731 166.712 161.219 166.504C160.723 166.28 159.979 166.128 158.987 166.048C157.851 165.968 156.955 165.696 156.299 165.232C155.659 164.768 155.339 164.04 155.339 163.048C155.339 162.488 155.459 161.968 155.699 161.488C155.939 161.008 156.275 160.6 156.707 160.264C157.155 159.912 157.683 159.64 158.291 159.448C158.915 159.256 159.603 159.16 160.355 159.16C161.091 159.16 161.723 159.264 162.251 159.472C162.795 159.664 163.235 159.92 163.571 160.24C163.923 160.56 164.179 160.928 164.339 161.344C164.515 161.744 164.603 162.16 164.603 162.592V162.856L162.755 163.12V163.024C162.755 162.992 162.755 162.968 162.755 162.952C162.771 162.92 162.779 162.888 162.779 162.856C162.779 162.248 162.547 161.76 162.083 161.392C161.635 161.024 160.979 160.84 160.115 160.84Z" fill="black"/>
<path d="M174.811 160.84C174.491 160.84 174.154 160.88 173.802 160.96C173.466 161.04 173.155 161.16 172.867 161.32C172.594 161.48 172.37 161.688 172.194 161.944C172.018 162.184 171.93 162.472 171.93 162.808C171.93 163.32 172.155 163.704 172.603 163.96C173.066 164.216 173.858 164.384 174.979 164.464C176.131 164.544 177.018 164.832 177.642 165.328C178.283 165.824 178.603 166.552 178.603 167.512C178.603 168.184 178.458 168.784 178.171 169.312C177.898 169.84 177.515 170.288 177.019 170.656C176.522 171.008 175.931 171.272 175.243 171.448C174.571 171.64 173.826 171.736 173.01 171.736C172.194 171.736 171.498 171.624 170.923 171.4C170.363 171.192 169.898 170.912 169.53 170.56C169.162 170.192 168.891 169.784 168.715 169.336C168.554 168.872 168.474 168.4 168.474 167.92C168.474 167.84 168.474 167.76 168.474 167.68C168.474 167.584 168.482 167.496 168.498 167.416L170.37 167.176C170.354 167.304 170.346 167.384 170.346 167.416C170.346 167.448 170.346 167.496 170.346 167.56C170.346 167.912 170.395 168.24 170.491 168.544C170.603 168.832 170.779 169.088 171.019 169.312C171.258 169.52 171.57 169.688 171.954 169.816C172.339 169.944 172.811 170.008 173.37 170.008C173.738 170.008 174.114 169.968 174.498 169.888C174.898 169.792 175.258 169.656 175.578 169.48C175.898 169.288 176.162 169.056 176.37 168.784C176.578 168.496 176.683 168.152 176.683 167.752C176.683 167.128 176.426 166.712 175.914 166.504C175.418 166.28 174.674 166.128 173.682 166.048C172.546 165.968 171.65 165.696 170.994 165.232C170.354 164.768 170.035 164.04 170.035 163.048C170.035 162.488 170.155 161.968 170.395 161.488C170.634 161.008 170.97 160.6 171.402 160.264C171.85 159.912 172.378 159.64 172.986 159.448C173.61 159.256 174.299 159.16 175.05 159.16C175.786 159.16 176.418 159.264 176.946 159.472C177.49 159.664 177.931 159.92 178.267 160.24C178.619 160.56 178.874 160.928 179.035 161.344C179.21 161.744 179.299 162.16 179.299 162.592V162.856L177.45 163.12V163.024C177.45 162.992 177.45 162.968 177.45 162.952C177.466 162.92 177.474 162.888 177.474 162.856C177.474 162.248 177.242 161.76 176.778 161.392C176.33 161.024 175.674 160.84 174.811 160.84Z" fill="black"/>
<path d="M189.506 160.84C189.186 160.84 188.85 160.88 188.498 160.96C188.162 161.04 187.85 161.16 187.562 161.32C187.29 161.48 187.066 161.688 186.89 161.944C186.714 162.184 186.626 162.472 186.626 162.808C186.626 163.32 186.85 163.704 187.298 163.96C187.762 164.216 188.554 164.384 189.674 164.464C190.826 164.544 191.714 164.832 192.338 165.328C192.978 165.824 193.298 166.552 193.298 167.512C193.298 168.184 193.154 168.784 192.866 169.312C192.594 169.84 192.21 170.288 191.714 170.656C191.218 171.008 190.626 171.272 189.938 171.448C189.266 171.64 188.522 171.736 187.706 171.736C186.89 171.736 186.194 171.624 185.618 171.4C185.058 171.192 184.594 170.912 184.226 170.56C183.858 170.192 183.586 169.784 183.41 169.336C183.25 168.872 183.17 168.4 183.17 167.92C183.17 167.84 183.17 167.76 183.17 167.68C183.17 167.584 183.178 167.496 183.194 167.416L185.066 167.176C185.05 167.304 185.042 167.384 185.042 167.416C185.042 167.448 185.042 167.496 185.042 167.56C185.042 167.912 185.09 168.24 185.186 168.544C185.298 168.832 185.474 169.088 185.714 169.312C185.954 169.52 186.266 169.688 186.65 169.816C187.034 169.944 187.506 170.008 188.066 170.008C188.434 170.008 188.81 169.968 189.194 169.888C189.594 169.792 189.954 169.656 190.274 169.48C190.594 169.288 190.858 169.056 191.066 168.784C191.274 168.496 191.378 168.152 191.378 167.752C191.378 167.128 191.122 166.712 190.61 166.504C190.114 166.28 189.37 166.128 188.378 166.048C187.242 165.968 186.346 165.696 185.69 165.232C185.05 164.768 184.73 164.04 184.73 163.048C184.73 162.488 184.85 161.968 185.09 161.488C185.33 161.008 185.666 160.6 186.098 160.264C186.546 159.912 187.074 159.64 187.682 159.448C188.306 159.256 188.994 159.16 189.746 159.16C190.482 159.16 191.114 159.264 191.642 159.472C192.186 159.664 192.626 159.92 192.962 160.24C193.314 160.56 193.57 160.928 193.73 161.344C193.906 161.744 193.994 162.16 193.994 162.592V162.856L192.146 163.12V163.024C192.146 162.992 192.146 162.968 192.146 162.952C192.162 162.92 192.17 162.888 192.17 162.856C192.17 162.248 191.938 161.76 191.474 161.392C191.026 161.024 190.37 160.84 189.506 160.84Z" fill="black"/>
<rect x="20" y="134" width="520" height="58" stroke="black" stroke-width="2"/>
<rect width="116.386" height="44" transform="translate(221.807 233)" fill="black"/>
<path d="M241.807 247.704H249.871V249.72H246.895L244.943 258.904H242.831L244.783 249.72H241.807V247.704Z" fill="white"/>
<path d="M252.852 252.856L252.692 252.76L251.428 253.688L250.356 252.248L251.636 251.288C251.881 251.107 252.137 250.973 252.404 250.888C252.681 250.792 252.942 250.744 253.188 250.744C253.614 250.744 253.988 250.861 254.308 251.096C254.628 251.331 254.82 251.661 254.884 252.088H255.172C255.385 251.64 255.684 251.304 256.068 251.08C256.452 250.856 256.884 250.744 257.364 250.744C257.972 250.744 258.462 250.936 258.836 251.32C259.22 251.693 259.412 252.216 259.412 252.888C259.412 253.027 259.401 253.165 259.38 253.304C259.369 253.432 259.342 253.592 259.3 253.784L259.22 254.136L257.076 254.296L257.124 254.072C257.156 253.912 257.172 253.768 257.172 253.64C257.172 253.331 257.086 253.085 256.916 252.904C256.745 252.723 256.489 252.632 256.148 252.632C255.721 252.632 255.38 252.776 255.124 253.064C254.878 253.352 254.697 253.763 254.58 254.296L254.004 256.984H255.924V258.904H250.452V256.984H251.988L252.852 252.856Z" fill="white"/>
<path d="M267.465 257L267.625 257.112L268.393 256.568L269.401 258.072L268.457 258.712C268.041 258.989 267.603 259.128 267.145 259.128C266.739 259.128 266.377 259.016 266.057 258.792C265.737 258.568 265.534 258.253 265.449 257.848H265.161C265.065 258.029 264.953 258.2 264.825 258.36C264.697 258.509 264.537 258.643 264.345 258.76C264.163 258.867 263.945 258.952 263.689 259.016C263.443 259.091 263.15 259.128 262.809 259.128C262.393 259.128 262.009 259.048 261.657 258.888C261.305 258.717 260.995 258.488 260.729 258.2C260.473 257.901 260.27 257.555 260.121 257.16C259.971 256.765 259.897 256.333 259.897 255.864C259.897 255.149 259.993 254.483 260.185 253.864C260.377 253.245 260.654 252.707 261.017 252.248C261.379 251.779 261.822 251.411 262.345 251.144C262.878 250.877 263.475 250.744 264.137 250.744C264.723 250.744 265.187 250.861 265.529 251.096C265.87 251.331 266.099 251.64 266.217 252.024H266.505L266.729 250.968H268.745L267.465 257ZM263.593 257.208C263.977 257.208 264.318 257.133 264.617 256.984C264.915 256.824 265.161 256.616 265.353 256.36C265.555 256.104 265.71 255.805 265.817 255.464C265.923 255.112 265.977 254.744 265.977 254.36C265.977 253.859 265.833 253.453 265.545 253.144C265.257 252.824 264.873 252.664 264.393 252.664C264.009 252.664 263.667 252.744 263.369 252.904C263.07 253.053 262.819 253.256 262.617 253.512C262.414 253.768 262.259 254.072 262.153 254.424C262.046 254.765 261.993 255.128 261.993 255.512C261.993 255.96 262.121 256.355 262.377 256.696C262.643 257.037 263.049 257.208 263.593 257.208Z" fill="white"/>
<path d="M275.662 254.296C275.704 254.093 275.726 253.923 275.726 253.784C275.726 253.4 275.614 253.101 275.39 252.888C275.166 252.675 274.862 252.568 274.478 252.568C273.998 252.568 273.587 252.739 273.246 253.08C272.904 253.421 272.675 253.88 272.558 254.456L271.614 258.904H269.598L271.278 250.968H273.214L272.942 252.248H273.23C273.486 251.715 273.822 251.331 274.238 251.096C274.664 250.861 275.134 250.744 275.646 250.744C276.318 250.744 276.851 250.947 277.246 251.352C277.651 251.757 277.854 252.328 277.854 253.064C277.854 253.235 277.843 253.395 277.822 253.544C277.8 253.683 277.774 253.837 277.742 254.008L277.102 257L277.262 257.112L277.95 256.632L278.958 258.136L278.094 258.712C277.688 258.989 277.256 259.128 276.798 259.128C276.563 259.128 276.339 259.085 276.126 259C275.912 258.925 275.726 258.819 275.566 258.68C275.406 258.531 275.278 258.355 275.182 258.152C275.086 257.939 275.038 257.699 275.038 257.432C275.038 257.293 275.054 257.133 275.086 256.952L275.662 254.296Z" fill="white"/>
<path d="M284.546 252.568C284.429 252.568 284.306 252.584 284.178 252.616C284.061 252.637 283.949 252.675 283.842 252.728C283.736 252.781 283.645 252.856 283.57 252.952C283.506 253.037 283.474 253.144 283.474 253.272C283.474 253.496 283.602 253.661 283.858 253.768C284.114 253.875 284.552 253.965 285.17 254.04C285.864 254.125 286.424 254.339 286.85 254.68C287.277 255.011 287.49 255.491 287.49 256.12C287.49 257.059 287.16 257.795 286.498 258.328C285.848 258.861 284.941 259.128 283.778 259.128C283.192 259.128 282.685 259.043 282.258 258.872C281.842 258.701 281.496 258.488 281.218 258.232C280.952 257.976 280.749 257.693 280.61 257.384C280.472 257.075 280.397 256.781 280.386 256.504L282.37 256.024C282.402 256.376 282.552 256.68 282.818 256.936C283.085 257.181 283.49 257.304 284.034 257.304C284.408 257.304 284.733 257.245 285.01 257.128C285.288 257.011 285.426 256.803 285.426 256.504C285.426 256.28 285.32 256.104 285.106 255.976C284.893 255.837 284.498 255.741 283.922 255.688C283.154 255.624 282.541 255.405 282.082 255.032C281.634 254.659 281.41 254.163 281.41 253.544C281.41 253.096 281.501 252.696 281.682 252.344C281.874 251.992 282.125 251.699 282.434 251.464C282.744 251.229 283.101 251.053 283.506 250.936C283.922 250.808 284.354 250.744 284.802 250.744C285.357 250.744 285.821 250.819 286.194 250.968C286.568 251.117 286.872 251.304 287.106 251.528C287.341 251.752 287.512 251.997 287.618 252.264C287.736 252.52 287.81 252.76 287.842 252.984L285.89 253.496C285.848 253.208 285.714 252.984 285.49 252.824C285.266 252.653 284.952 252.568 284.546 252.568Z" fill="white"/>
<path d="M293.015 252.888H290.759V250.968H293.431L293.783 249.336C293.826 249.112 293.911 248.899 294.039 248.696C294.167 248.493 294.317 248.323 294.487 248.184C294.669 248.035 294.866 247.917 295.079 247.832C295.303 247.747 295.527 247.704 295.751 247.704H298.567V249.624H296.167C295.879 249.624 295.703 249.784 295.639 250.104L295.447 250.968H298.151V252.888H295.031L293.255 260.824C293.138 261.347 292.919 261.72 292.599 261.944C292.279 262.179 291.933 262.296 291.559 262.296C291.25 262.296 290.946 262.221 290.647 262.072C290.359 261.933 290.135 261.731 289.975 261.464L288.967 259.848L290.519 258.904L291.223 260.12L291.415 260.088L293.015 252.888Z" fill="white"/>
<path d="M301.628 255.592C301.607 255.677 301.596 255.768 301.596 255.864C301.596 256.248 301.74 256.568 302.028 256.824C302.327 257.08 302.716 257.208 303.196 257.208C303.697 257.208 304.097 257.117 304.396 256.936C304.695 256.755 304.924 256.541 305.084 256.296L306.684 257.304C306.556 257.517 306.385 257.731 306.172 257.944C305.969 258.157 305.713 258.355 305.404 258.536C305.105 258.707 304.748 258.845 304.332 258.952C303.927 259.069 303.452 259.128 302.908 259.128C302.417 259.128 301.964 259.053 301.548 258.904C301.143 258.744 300.791 258.531 300.492 258.264C300.204 257.987 299.975 257.661 299.804 257.288C299.644 256.904 299.564 256.483 299.564 256.024C299.564 255.299 299.671 254.616 299.884 253.976C300.108 253.336 300.428 252.776 300.844 252.296C301.26 251.816 301.772 251.437 302.38 251.16C302.988 250.883 303.687 250.744 304.476 250.744C305.031 250.744 305.511 250.835 305.916 251.016C306.332 251.187 306.673 251.421 306.94 251.72C307.207 252.008 307.404 252.339 307.532 252.712C307.671 253.085 307.74 253.469 307.74 253.864C307.74 253.992 307.729 254.125 307.708 254.264C307.697 254.392 307.671 254.563 307.628 254.776L307.452 255.592H301.628ZM304.156 252.568C303.655 252.568 303.217 252.696 302.844 252.952C302.481 253.197 302.209 253.501 302.028 253.864H305.772C305.772 253.459 305.644 253.144 305.388 252.92C305.143 252.685 304.732 252.568 304.156 252.568Z" fill="white"/>
<path d="M311.633 252.856L311.473 252.76L310.209 253.688L309.137 252.248L310.417 251.288C310.662 251.107 310.918 250.973 311.185 250.888C311.462 250.792 311.724 250.744 311.969 250.744C312.396 250.744 312.769 250.861 313.089 251.096C313.409 251.331 313.601 251.661 313.665 252.088H313.953C314.166 251.64 314.465 251.304 314.849 251.08C315.233 250.856 315.665 250.744 316.145 250.744C316.753 250.744 317.244 250.936 317.617 251.32C318.001 251.693 318.193 252.216 318.193 252.888C318.193 253.027 318.182 253.165 318.161 253.304C318.15 253.432 318.124 253.592 318.081 253.784L318.001 254.136L315.857 254.296L315.905 254.072C315.937 253.912 315.953 253.768 315.953 253.64C315.953 253.331 315.868 253.085 315.697 252.904C315.526 252.723 315.27 252.632 314.929 252.632C314.502 252.632 314.161 252.776 313.905 253.064C313.66 253.352 313.478 253.763 313.361 254.296L312.785 256.984H314.705V258.904H309.233V256.984H310.769L311.633 252.856Z" fill="white"/>
</svg>
