<svg width="16" height="16" viewBox="0 0 16 16" fill="none" xmlns="http://www.w3.org/2000/svg">
<g clip-path="url(#clip0_451_1281)">
<rect width="16" height="16" rx="2" fill="#BAFF62"/>
<path d="M8.5 14V14.5H9H10.4712H10.9712V14V12.2544L12.7113 14.322L12.8611 14.5H13.0938H15H16.1014L15.3764 13.6709L12.5107 10.3936L15.2668 7.37754L16.0319 6.54025H14.8977H12.9659H12.7381L12.5886 6.71211L10.9712 8.57159V7V6.5H10.4712H9H8.5V7V14Z" fill="white" stroke="black"/>
<path d="M2.28729 12.0232L2.28726 12.0232L2.29367 12.0269C2.83898 12.3415 3.43062 12.5 4.05996 12.5C4.73881 12.5 5.33622 12.3817 5.78729 12.0791L5.78734 12.0791L5.79514 12.0737C5.86016 12.0282 5.92301 11.9815 5.98356 11.9335V12.3039H6.48356H8H8.5V11.8039V2V1.5H8H6.45648H5.95648V2V4.71384C5.75987 4.57264 5.53255 4.46057 5.28357 4.37203C4.92564 4.24476 4.51337 4.18908 4.05996 4.18908C3.42035 4.18908 2.82217 4.35292 2.27509 4.67909C1.72538 5.0028 1.29445 5.47758 0.97717 6.08104C0.651563 6.70034 0.5 7.42376 0.5 8.23249V8.45658C0.5 9.26532 0.651563 9.98873 0.97717 10.608C1.29539 11.2133 1.73111 11.6913 2.28729 12.0232ZM5.55541 6.99738L5.55538 6.99741L5.55973 7.00179C5.80832 7.25267 5.97002 7.64937 5.97002 8.27451V8.41457C5.97002 9.02568 5.81065 9.42637 5.55752 9.6895C5.28823 9.9602 4.9549 10.0994 4.52031 10.0994C4.08676 10.0994 3.74702 9.96068 3.46752 9.68738C3.21558 9.42421 3.05706 9.02404 3.05706 8.41457V8.27451C3.05706 7.65111 3.21786 7.25488 3.46527 7.0039C3.7452 6.72914 4.0856 6.58964 4.52031 6.58964C4.96763 6.58964 5.29799 6.73111 5.55541 6.99738Z" fill="white" stroke="black"/>
</g>
<defs>
<clipPath id="clip0_451_1281">
<rect width="16" height="16" rx="2" fill="white"/>
</clipPath>
</defs>
</svg>